<?xml version="1.0" encoding="UTF-8"?>
<svg version="1.1" xmlns="http://www.w3.org/2000/svg" width="599" height="295" viewBox="0 0 199 59" fill="none">
<g clip-path="url(#clip0)">
<path d="M0 0 C176.88 0 353.76 0 536 0 C536 77.88 536 155.76 536 236 C359.12 236 182.24 236 0 236 C0 158.12 0 80.24 0 0 Z " fill="#FEFEFE" transform="translate(0,0)"/>
<path d="M0 0 C8.63097159 7.33041423 15.0914567 16.25021599 20.53125 26.125 C20.93601562 26.79789063 21.34078125 27.47078125 21.7578125 28.1640625 C22.7514536 30.68329397 22.59960486 31.64660921 21.53125 34.125 C19.8515625 36.16796875 19.8515625 36.16796875 17.65625 38.3125 C16.88372391 39.06870132 16.11119781 39.82490265 15.31526184 40.60401917 C12.53125 43.125 12.53125 43.125 9.66996765 45.10215759 C3.8720777 49.09635507 3.8720777 49.09635507 0.52920532 55.08450317 C0.16618385 58.51905351 0.13605068 61.8018876 0.23828125 65.25390625 C0.23164963 66.48415024 0.22501801 67.71439423 0.21818542 68.98191833 C0.20883202 72.88585603 0.275128 76.78423249 0.34375 80.6875 C0.3568686 83.34450167 0.35271821 86.00113008 0.34960938 88.65820312 C0.35278875 95.14844262 0.41796618 101.63579809 0.53125 108.125 C-8.11461058 108.22488799 -16.61479336 108.10697485 -25.23583984 107.35205078 C-31.08032099 106.94158654 -36.92546942 107.02087881 -42.78125 107.0625 C-44.01037109 107.06701172 -45.23949219 107.07152344 -46.50585938 107.07617188 C-49.49354356 107.08779711 -52.48111855 107.10413441 -55.46875 107.125 C-55.30576416 107.88127686 -55.14277832 108.63755371 -54.97485352 109.41674805 C-54.37283442 112.63826169 -54.37316781 115.66236335 -54.40625 118.9375 C-54.41527344 120.09894531 -54.42429688 121.26039063 -54.43359375 122.45703125 C-54.45099609 123.77767578 -54.45099609 123.77767578 -54.46875 125.125 C-55.45875 124.795 -56.44875 124.465 -57.46875 124.125 C-57.46875 124.785 -57.46875 125.445 -57.46875 126.125 C-58.12875 126.125 -58.78875 126.125 -59.46875 126.125 C-59.79875 119.525 -60.12875 112.925 -60.46875 106.125 C-64.490625 106.3415625 -64.490625 106.3415625 -68.59375 106.5625 C-69.42664551 106.60560303 -70.25954102 106.64870605 -71.11767578 106.69311523 C-74.2737287 106.87121271 -77.29751337 107.09316318 -80.41015625 107.671875 C-83.07843254 108.06717519 -85.31112681 108.11568871 -87.98828125 108.01953125 C-104.43032826 107.61976752 -116.30875433 113.22464977 -130.46875 121.125 C-131.2225293 121.53830566 -131.97630859 121.95161133 -132.75292969 122.37744141 C-135.72201647 124.00979337 -138.65430546 125.68385184 -141.5703125 127.41015625 C-144.25251584 128.99706631 -146.96563575 130.47826677 -149.71875 131.9375 C-162.67956851 138.9913968 -175.11191976 146.67275226 -186.46875 156.125 C-187.37536377 156.87934326 -187.37536377 156.87934326 -188.30029297 157.64892578 C-196.77687298 164.75489837 -204.76406982 172.19146794 -212.46875 180.125 C-214.13309702 181.79398309 -215.7991151 183.46130686 -217.46875 185.125 C-208.58807599 166.04474001 -189.60217685 148.85821335 -173.46875 136.125 C-172.623125 135.43535156 -171.7775 134.74570313 -170.90625 134.03515625 C-165.9985263 130.03996242 -160.98322749 126.29196281 -155.765625 122.7109375 C-153.81942658 121.36713383 -151.92491699 119.97824151 -150.03125 118.5625 C-147.27639088 116.59266218 -144.42265568 114.96042068 -141.44140625 113.35546875 C-137.58514044 111.27028541 -133.73576656 109.17453931 -129.8984375 107.0546875 C-128.046875 106.03645833 -126.1953125 105.01822917 -124.34375 104 C-123.41949219 103.48824219 -122.49523437 102.97648437 -121.54296875 102.44921875 C-120.62902344 101.94777344 -119.71507813 101.44632812 -118.7734375 100.9296875 C-117.96890137 100.48608887 -117.16436523 100.04249023 -116.33544922 99.58544922 C-112.45567509 97.6088857 -108.44770949 95.89342644 -104.46875 94.125 C-104.13875 79.275 -103.80875 64.425 -103.46875 49.125 C-98.51875 48.135 -98.51875 48.135 -93.46875 47.125 C-92.80875 45.805 -92.14875 44.485 -91.46875 43.125 C-89.5168457 42.39550781 -89.5168457 42.39550781 -87.14453125 42.078125 C-86.28021484 41.95566406 -85.41589844 41.83320312 -84.52539062 41.70703125 C-83.61982422 41.59746094 -82.71425781 41.48789063 -81.78125 41.375 C-80.89501953 41.24996094 -80.00878906 41.12492187 -79.09570312 40.99609375 C-65.98705052 39.23016127 -65.98705052 39.23016127 -59.65625 41.625 C-56.63738367 42.78923835 -56.63738367 42.78923835 -53.46875 43.125 C-51.84375 44.625 -51.84375 44.625 -50.46875 46.125 C-49.7675 45.50625 -49.06625 44.8875 -48.34375 44.25 C-41.87355482 39.46768182 -35.24765584 39.58145675 -27.46875 40.125 C-25.64150391 40.50591797 -25.64150391 40.50591797 -23.77734375 40.89453125 C-16.06276246 42.64318154 -16.06276246 42.64318154 -8.84765625 40.25390625 C-5.83672205 38.11467211 -3.11732564 35.69959308 -0.46875 33.125 C-5.46976737 21.38348095 -13.85478322 13.34850659 -25.46875 8.125 C-30.08268759 6.52861653 -34.71423488 5.22904471 -39.46875 4.125 C-40.2834375 3.93164062 -41.098125 3.73828125 -41.9375 3.5390625 C-60.25688046 0.54237372 -76.47959672 6.67518511 -91.40625 17.0625 C-97.2594533 21.50851725 -102.35471352 26.39033738 -105.46875 33.125 C-106.12875 33.125 -106.78875 33.125 -107.46875 33.125 C-107.7471875 33.98738281 -108.025625 34.84976563 -108.3125 35.73828125 C-109.42136375 38.98620312 -110.67403811 42.13492965 -111.96875 45.3125 C-118.00281897 61.01175908 -116.6327246 75.8179057 -114.46875 92.125 C-116.5666023 93.32505531 -118.6707749 94.51002983 -120.78125 95.6875 C-121.37615234 96.02974609 -121.97105469 96.37199219 -122.58398438 96.72460938 C-124.17157559 97.60266262 -125.81868931 98.37086268 -127.46875 99.125 C-128.95375 98.63 -128.95375 98.63 -130.46875 98.125 C-131.3828125 96.0859375 -131.3828125 96.0859375 -132.09375 93.5 C-132.33351563 92.66210938 -132.57328125 91.82421875 -132.8203125 90.9609375 C-136.23941958 76.00749329 -135.93735777 58.80500465 -131.46875 44.125 C-131.11683594 42.94679687 -130.76492187 41.76859375 -130.40234375 40.5546875 C-127.80019721 32.60225284 -124.37200365 25.89128531 -119.46875 19.125 C-118.55802734 17.86236328 -118.55802734 17.86236328 -117.62890625 16.57421875 C-103.83615245 -1.56226529 -84.80391201 -13.00096763 -62.3671875 -16.40625 C-40.20940791 -19.07051207 -17.8759542 -13.57667407 0 0 Z " fill="#192B57" transform="translate(237.46875,31.875)"/>
<path d="M0 0 C8.63097159 7.33041423 15.0914567 16.25021599 20.53125 26.125 C20.93601562 26.79789063 21.34078125 27.47078125 21.7578125 28.1640625 C22.7514536 30.68329397 22.59960486 31.64660921 21.53125 34.125 C15.84440635 41.0417889 8.5219896 46.59774233 1.53125 52.125 C1.20125 51.135 0.87125 50.145 0.53125 49.125 C-0.15582031 49.09921875 -0.84289062 49.0734375 -1.55078125 49.046875 C-2.90236328 48.96179688 -2.90236328 48.96179688 -4.28125 48.875 C-5.17457031 48.82859375 -6.06789062 48.7821875 -6.98828125 48.734375 C-9.46875 48.125 -9.46875 48.125 -11.29296875 46.203125 C-12.46875 44.125 -12.46875 44.125 -12.46875 42.125 C-10.49937339 40.50143654 -8.53529852 38.98940434 -6.46875 37.5 C-5.89640625 37.07976562 -5.3240625 36.65953125 -4.734375 36.2265625 C-3.31671067 35.18694199 -1.89325738 34.15522409 -0.46875 33.125 C-5.46976737 21.38348095 -13.85478322 13.34850659 -25.46875 8.125 C-30.08268759 6.52861653 -34.71423488 5.22904471 -39.46875 4.125 C-40.2834375 3.93164062 -41.098125 3.73828125 -41.9375 3.5390625 C-60.25688046 0.54237372 -76.47959672 6.67518511 -91.40625 17.0625 C-97.2594533 21.50851725 -102.35471352 26.39033738 -105.46875 33.125 C-106.12875 33.125 -106.78875 33.125 -107.46875 33.125 C-107.7471875 33.98738281 -108.025625 34.84976563 -108.3125 35.73828125 C-109.42136375 38.98620312 -110.67403811 42.13492965 -111.96875 45.3125 C-118.00281897 61.01175908 -116.6327246 75.8179057 -114.46875 92.125 C-116.5666023 93.32505531 -118.6707749 94.51002983 -120.78125 95.6875 C-121.37615234 96.02974609 -121.97105469 96.37199219 -122.58398438 96.72460938 C-124.17157559 97.60266262 -125.81868931 98.37086268 -127.46875 99.125 C-128.45875 98.795 -129.44875 98.465 -130.46875 98.125 C-131.3828125 96.0859375 -131.3828125 96.0859375 -132.09375 93.5 C-132.45339844 92.24316406 -132.45339844 92.24316406 -132.8203125 90.9609375 C-136.23941958 76.00749329 -135.93735777 58.80500465 -131.46875 44.125 C-131.11683594 42.94679687 -130.76492187 41.76859375 -130.40234375 40.5546875 C-127.80019721 32.60225284 -124.37200365 25.89128531 -119.46875 19.125 C-118.86160156 18.28324219 -118.25445312 17.44148438 -117.62890625 16.57421875 C-103.83615245 -1.56226529 -84.80391201 -13.00096763 -62.3671875 -16.40625 C-40.20940791 -19.07051207 -17.8759542 -13.57667407 0 0 Z " fill="#BF1A81" transform="translate(237.46875,31.875)"/>
<path d="M0 0 C6.56590664 3.74073566 9.97068705 8.82689386 12.20825195 15.91577148 C13.2422097 20.23082181 13.30102029 24.45511635 13.25 28.875 C13.24170166 29.80006348 13.23340332 30.72512695 13.22485352 31.67822266 C13.00546045 40.51484455 11.48934755 46.80864703 5.4375 53.4375 C0.52649364 57.85948666 -4.39544626 58.93155868 -10.88671875 58.74609375 C-17.33499941 57.881214 -21.71235709 54.41445626 -25.86328125 49.609375 C-30.08275282 42.68894375 -30.68470268 36.42960093 -30.625 28.5 C-30.6549707 27.09331055 -30.6549707 27.09331055 -30.68554688 25.65820312 C-30.67931069 16.68433427 -27.9504332 9.49252927 -21.8125 2.87890625 C-15.66110976 -2.57749519 -7.33609448 -3.24804183 0 0 Z " fill="#102552" transform="translate(463.1875,97.5625)"/>
<path d="M0 0 C0.33 0 0.66 0 1 0 C1.93529548 15.90002314 -4.94181457 30.96315514 -15 43 C-26.53782065 55.83081512 -41.20588197 64.06251896 -58 68 C-58.91265625 68.22300781 -59.8253125 68.44601563 -60.765625 68.67578125 C-83.62167802 73.36829493 -107.77851128 69.08453826 -127.5390625 56.7421875 C-139.34112711 48.38707509 -139.34112711 48.38707509 -142 42 C-139.75900431 40.77164675 -137.5098622 39.56770505 -135.25 38.375 C-134.61578125 38.024375 -133.9815625 37.67375 -133.328125 37.3125 C-128.62750864 34.86426231 -128.62750864 34.86426231 -125.796875 35.4765625 C-123.51702959 37.40947491 -121.85576932 39.65935862 -120 42 C-105.43334686 54.03836462 -86.6622404 59.19727204 -68 58 C-46.7883398 55.85858418 -28.07167227 47.46581096 -14 31 C-7.04682724 21.62951327 -2.07306708 11.49609926 0 0 Z " fill="#BF1A81" transform="translate(263,113)"/>
<path d="M0 0 C0.72058594 -0.00773437 1.44117188 -0.01546875 2.18359375 -0.0234375 C2.89644531 -0.02085938 3.60929687 -0.01828125 4.34375 -0.015625 C5.29024414 -0.01224121 5.29024414 -0.01224121 6.25585938 -0.00878906 C9.40701147 0.35459445 12.45001222 1.37857492 15.5 2.25 C15.5 17.76 15.5 33.27 15.5 49.25 C2.375 49.0625 2.375 49.0625 -1.73095703 48.97973633 C-2.81231934 48.97224365 -3.89368164 48.96475098 -5.0078125 48.95703125 C-6.65740967 48.93346558 -6.65740967 48.93346558 -8.34033203 48.90942383 C-11.95317287 49.29884687 -14.33215132 50.52386662 -17.5 52.25 C-18.16 52.25 -18.82 52.25 -19.5 52.25 C-19.59908722 46.0936347 -19.67157253 39.9377365 -19.71972656 33.78076172 C-19.73980659 31.68758047 -19.7670764 29.59445508 -19.80175781 27.50146484 C-19.85043434 24.48781531 -19.87300512 21.47490927 -19.890625 18.4609375 C-19.91127014 17.52945892 -19.93191528 16.59798035 -19.95318604 15.63827515 C-19.95511191 10.02583355 -19.39119852 6.62388869 -15.5 2.25 C-10.38637295 0.09036139 -5.45986502 -0.0586032 0 0 Z " fill="#BF1A81" transform="translate(206.5,74.75)"/>
<path d="M0 0 C0 4.62 0 9.24 0 14 C-1.78664063 14.845625 -3.57328125 15.69125 -5.4140625 16.5625 C-17.52593679 22.32499637 -29.45877552 28.14540535 -41 35 C-42.74583639 35.94523095 -44.49580145 36.88287981 -46.25 37.8125 C-59.21081851 44.8663968 -71.64316976 52.54775226 -83 62 C-83.60440918 62.50289551 -84.20881836 63.00579102 -84.83154297 63.52392578 C-93.30812298 70.62989837 -101.29531982 78.06646794 -109 86 C-110.66434702 87.66898309 -112.3303651 89.33630686 -114 91 C-105.11932599 71.91974001 -86.13342685 54.73321335 -70 42 C-69.154375 41.31035156 -68.30875 40.62070313 -67.4375 39.91015625 C-62.5297763 35.91496242 -57.51447749 32.16696281 -52.296875 28.5859375 C-50.35067658 27.24213383 -48.45616699 25.85324151 -46.5625 24.4375 C-43.80764088 22.46766218 -40.95390568 20.83542068 -37.97265625 19.23046875 C-34.11639044 17.14528541 -30.26701656 15.04953931 -26.4296875 12.9296875 C-24.578125 11.91145833 -22.7265625 10.89322917 -20.875 9.875 C-19.95074219 9.36324219 -19.02648437 8.85148438 -18.07421875 8.32421875 C-2.90231362 0 -2.90231362 0 0 0 Z " fill="#BF1981" transform="translate(134,126)"/>
<path d="M0 0 C2.64 0 5.28 0 8 0 C8.01458252 1.30670654 8.02916504 2.61341309 8.04418945 3.9597168 C8.10222815 8.81481075 8.17946116 13.66944363 8.26245117 18.52416992 C8.29567422 20.62402861 8.3237143 22.72397603 8.34643555 24.82397461 C8.38002936 27.84527344 8.43234834 30.86576101 8.48828125 33.88671875 C8.49467117 34.82335861 8.5010611 35.75999847 8.50764465 36.72502136 C8.61702076 41.59057461 8.76957227 45.0853652 12 49 C15.22760391 50.61380195 17.40579169 50.39935648 21 50 C24.48141623 48.50158762 27.3237234 46.69367718 30 44 C31.26071895 40.58501261 31.19292156 37.39954162 31.09765625 33.7890625 C31.10711777 32.82092621 31.11657928 31.85278992 31.12632751 30.85531616 C31.14685146 27.77697347 31.10556472 24.70304466 31.0625 21.625 C31.06557572 19.53254209 31.07269252 17.44008595 31.08398438 15.34765625 C31.10279762 10.23060872 31.06619876 5.11662536 31 0 C33.64 0 36.28 0 39 0 C39 19.14 39 38.28 39 58 C36.36 58 33.72 58 31 58 C30.505 55.525 30.505 55.525 30 53 C29.45730469 53.42152344 28.91460937 53.84304687 28.35546875 54.27734375 C27.64003906 54.82519531 26.92460937 55.37304688 26.1875 55.9375 C25.47980469 56.48277344 24.77210938 57.02804688 24.04296875 57.58984375 C20.11608541 60.30036934 16.65535419 60.31561723 12 60 C6.47032949 57.93992667 3.38683406 54.98712084 0.90481567 49.6410675 C-0.02062883 46.93978647 -0.24236544 44.95878853 -0.22705078 42.11791992 C-0.22689972 41.17732224 -0.22674866 40.23672455 -0.22659302 39.2676239 C-0.21627045 38.2653627 -0.20594788 37.2631015 -0.1953125 36.23046875 C-0.1924826 35.19432938 -0.18965271 34.15819 -0.18673706 33.09065247 C-0.17556454 29.78948293 -0.15046505 26.48858719 -0.125 23.1875 C-0.11496643 20.94596747 -0.10584124 18.70443067 -0.09765625 16.46289062 C-0.07563478 10.9751674 -0.04218621 5.48760326 0 0 Z " fill="#112652" transform="translate(335,98)"/>
<path d="M0 0 C4.83655023 2.41827511 7.36498898 5.31553596 10 10 C10.93011869 12.94592534 11.12198837 15.5962338 11.11352539 18.67675781 C11.11344986 19.59741028 11.11337433 20.51806274 11.11329651 21.46661377 C11.10813522 22.45216248 11.10297394 23.43771118 11.09765625 24.453125 C11.0962413 25.46848328 11.09482635 26.48384155 11.09336853 27.52996826 C11.08777516 30.77000892 11.07522385 34.00998025 11.0625 37.25 C11.05748414 39.44791567 11.05292139 41.64583242 11.04882812 43.84375 C11.0378079 49.22919029 11.02107633 54.61459019 11 60 C8.36 60 5.72 60 3 60 C2.98541748 58.69329346 2.97083496 57.38658691 2.95581055 56.0402832 C2.89777185 51.18518925 2.82053884 46.33055637 2.73754883 41.47583008 C2.70432578 39.37597139 2.6762857 37.27602397 2.65356445 35.17602539 C2.61997064 32.15472656 2.56765166 29.13423899 2.51171875 26.11328125 C2.50532883 25.17664139 2.4989389 24.24000153 2.49235535 23.27497864 C2.38297924 18.40942539 2.23042773 14.9146348 -1 11 C-4.17087015 9.41456493 -6.47990484 9.65934563 -10 10 C-13.22162627 11.58225262 -16.44571676 13.44571676 -19 16 C-19.12197808 17.38050858 -19.17768899 18.76697647 -19.20532227 20.15258789 C-19.22526749 21.03342545 -19.24521271 21.914263 -19.26576233 22.8217926 C-19.29083107 24.25772011 -19.29083107 24.25772011 -19.31640625 25.72265625 C-19.33718735 26.69786728 -19.35796844 27.67307831 -19.37937927 28.67784119 C-19.44498412 31.8059863 -19.50381028 34.93421822 -19.5625 38.0625 C-19.60567483 40.1777435 -19.64928877 42.29297809 -19.69335938 44.40820312 C-19.80067655 49.60537587 -19.9024222 54.80263577 -20 60 C-22.64 60 -25.28 60 -28 60 C-28 40.86 -28 21.72 -28 2 C-25.36 2 -22.72 2 -20 2 C-19.67 3.65 -19.34 5.3 -19 7 C-18.45730469 6.57847656 -17.91460937 6.15695313 -17.35546875 5.72265625 C-16.64003906 5.17480469 -15.92460937 4.62695312 -15.1875 4.0625 C-14.47980469 3.51722656 -13.77210938 2.97195312 -13.04296875 2.41015625 C-9.0237329 -0.36411553 -4.73870074 -0.63842078 0 0 Z " fill="#0E2350" transform="translate(513,96)"/>
<path d="M0 0 C0.79245117 0.36786621 1.58490234 0.73573242 2.40136719 1.11474609 C2.99594727 1.39914551 3.59052734 1.68354492 4.203125 1.9765625 C3.83349439 23.42963331 3.83349439 23.42963331 -0.18554688 28.84912109 C-4.18133232 32.12128815 -8.92581351 33.4143046 -13.796875 34.9765625 C-18.416875 36.9565625 -23.036875 38.9365625 -27.796875 40.9765625 C-27.796875 27.4465625 -27.796875 13.9165625 -27.796875 -0.0234375 C-6.88965851 -3.23993235 -6.88965851 -3.23993235 0 0 Z " fill="#FDFDFD" transform="translate(177.796875,77.0234375)"/>
<path d="M0 0 C4.56086146 1.90919782 6.61256034 4.73671489 9 9 C11.44802364 18.046339 11.53825869 29.93024573 7.16796875 38.3359375 C5.02906149 41.38334383 3.5856294 42.8047902 0 44 C-3.98157554 44.37562033 -6.49733536 44.21683573 -10.1875 42.625 C-15.85108055 37.33899149 -17.16548453 31.2132534 -17.47265625 23.67919922 C-17.55878547 16.61814129 -17.42424025 9.86246077 -13 4 C-8.77806854 0.15335134 -5.65329967 -0.71951087 0 0 Z " fill="#FAFBFB" transform="translate(458,104)"/>
<path d="M0 0 C2.97 0 5.94 0 9 0 C9 5.61 9 11.22 9 17 C13.95 17 18.9 17 24 17 C24 19.64 24 22.28 24 25 C19.05 25 14.1 25 9 25 C9.11821673 30.35700426 9.24246299 35.71382175 9.37231445 41.07055664 C9.41564287 42.89310904 9.45731947 44.71570148 9.49731445 46.53833008 C9.55506762 49.15718661 9.61874756 51.77584195 9.68359375 54.39453125 C9.70030624 55.21025101 9.71701874 56.02597076 9.73423767 56.8664093 C9.82013245 60.14179544 9.95752134 62.87256401 11 66 C15.12801588 68.06400794 19.68632355 67.07841911 24 66 C24 68.97 24 71.94 24 75 C18.39251798 76.40187051 13.23564955 76.73088543 7.75 74.9375 C3.40539066 71.87652524 1.67806766 68.03420299 0 63 C-0.0853013 60.12305329 -0.11585645 57.27099818 -0.09765625 54.39453125 C-0.0962413 53.55532639 -0.09482635 52.71612152 -0.09336853 51.85148621 C-0.08777215 49.17178784 -0.07522035 46.4921731 -0.0625 43.8125 C-0.05748453 41.99544392 -0.05292171 40.17838652 -0.04882812 38.36132812 C-0.03780391 33.90751987 -0.02054178 29.45377411 0 25 C-1.65 25 -3.3 25 -5 25 C-5 22.36 -5 19.72 -5 17 C-3.35 17 -1.7 17 0 17 C0 11.39 0 5.78 0 0 Z " fill="#182C57" transform="translate(385,81)"/>
<path d="M0 0 C2.97 0 5.94 0 9 0 C9 5.61 9 11.22 9 17 C13.95 17 18.9 17 24 17 C24 19.64 24 22.28 24 25 C19.05 25 14.1 25 9 25 C9.11821673 30.35700426 9.24246299 35.71382175 9.37231445 41.07055664 C9.41564287 42.89310904 9.45731947 44.71570148 9.49731445 46.53833008 C9.55506762 49.15718661 9.61874756 51.77584195 9.68359375 54.39453125 C9.70030624 55.21025101 9.71701874 56.02597076 9.73423767 56.8664093 C9.82013245 60.14179544 9.95752134 62.87256401 11 66 C15.12801588 68.06400794 19.68632355 67.07841911 24 66 C24 68.97 24 71.94 24 75 C18.39251798 76.40187051 13.23564955 76.73088543 7.75 74.9375 C3.40539066 71.87652524 1.67806766 68.03420299 0 63 C-0.0853013 60.12305329 -0.11585645 57.27099818 -0.09765625 54.39453125 C-0.0962413 53.55532639 -0.09482635 52.71612152 -0.09336853 51.85148621 C-0.08777215 49.17178784 -0.07522035 46.4921731 -0.0625 43.8125 C-0.05748453 41.99544392 -0.05292171 40.17838652 -0.04882812 38.36132812 C-0.03780391 33.90751987 -0.02054178 29.45377411 0 25 C-1.65 25 -3.3 25 -5 25 C-5 22.36 -5 19.72 -5 17 C-3.35 17 -1.7 17 0 17 C0 11.39 0 5.78 0 0 Z " fill="#182C57" transform="translate(305,81)"/>
<path d="M0 0 C0 9.24 0 18.48 0 28 C-13.125 27.8125 -13.125 27.8125 -17.23095703 27.72973633 C-18.31231934 27.72224365 -19.39368164 27.71475098 -20.5078125 27.70703125 C-22.15740967 27.68346558 -22.15740967 27.68346558 -23.84033203 27.65942383 C-27.45317287 28.04884687 -29.83215132 29.27386662 -33 31 C-33.66 31 -34.32 31 -35 31 C-35 27.04 -35 23.08 -35 19 C-33.53949219 18.21496094 -32.07898438 17.42992188 -30.57421875 16.62109375 C-16.93672144 9.31062537 -16.93672144 9.31062537 -3.828125 1.109375 C-2 0 -2 0 0 0 Z " fill="#FCFCFC" transform="translate(222,96)"/>
<path d="M0 0 C2.97 0 5.94 0 9 0 C9 19.14 9 38.28 9 58 C6.03 58 3.06 58 0 58 C0 38.86 0 19.72 0 0 Z " fill="#23365F" transform="translate(415,98)"/>
<path d="M0 0 C0.15100362 9.36222447 -0.43022792 18.65980766 -1 28 C-4.33270874 28.33977725 -7.66624786 28.67063063 -11 29 C-12.40185547 29.14308594 -12.40185547 29.14308594 -13.83203125 29.2890625 C-19.25318323 29.81980465 -24.55322171 30.1027694 -30 30 C-24.96623807 25.85088435 -18.90602755 23.6577124 -13 21 C-17.95 20.67 -22.9 20.34 -28 20 C-28 18.02 -28 16.04 -28 14 C-25.00074658 12.41524955 -22.00045992 10.83246479 -19 9.25 C-18.16082031 8.8065625 -17.32164062 8.363125 -16.45703125 7.90625 C-1.45840993 0 -1.45840993 0 0 0 Z " fill="#BE1A81" transform="translate(178,104)"/>
<path d="M0 0 C0.72058594 -0.00773437 1.44117188 -0.01546875 2.18359375 -0.0234375 C6.97885624 -0.00609478 10.94782059 0.74059314 15.5 2.25 C12.82040761 5.08372824 10.18099262 7.25886931 6.8671875 9.30859375 C5.97773438 9.85966797 5.08828125 10.41074219 4.171875 10.97851562 C3.24890625 11.54248047 2.3259375 12.10644531 1.375 12.6875 C0.47523438 13.24759766 -0.42453125 13.80769531 -1.3515625 14.38476562 C-7.24965399 18.01599006 -13.25160193 21.26270122 -19.5 24.25 C-19.60871967 21.70716766 -19.68762401 19.16904912 -19.75 16.625 C-19.78351563 15.91214844 -19.81703125 15.19929688 -19.8515625 14.46484375 C-19.94636504 9.29810519 -19.15967403 6.18119823 -15.5 2.25 C-10.38637295 0.09036139 -5.45986502 -0.0586032 0 0 Z " fill="#FBFBFC" transform="translate(206.5,74.75)"/>
<path d="M0 0 C0.86496094 -0.01224609 1.72992188 -0.02449219 2.62109375 -0.03710938 C8.29363377 -0.04986621 14.00675861 0.18030765 19.375 2.1875 C21.41027785 4.65450345 22.375 5.98749318 22.375 9.1875 C19.83326023 9.21466824 17.29181585 9.23441969 14.75 9.25 C13.68072266 9.26256836 13.68072266 9.26256836 12.58984375 9.27539062 C9.43685094 9.28985389 6.52412676 9.21261609 3.40625 8.6875 C-0.58398033 8.02931768 -4.46476542 8.08054403 -8.5 8.125 C-9.675625 8.13176758 -9.675625 8.13176758 -10.875 8.13867188 C-12.79170014 8.15035907 -14.70836048 8.16829092 -16.625 8.1875 C-15.91364254 4.93270406 -15.26227752 3.31760877 -12.625 1.1875 C-8.41014393 -0.21745202 -4.41494761 0.00320388 0 0 Z " fill="#F8F9FA" transform="translate(204.625,124.8125)"/>
<path d="M0 0 C8.25 0 16.5 0 25 0 C25 2.97 25 5.94 25 9 C16.75 9 8.5 9 0 9 C0 6.03 0 3.06 0 0 Z " fill="#000000" transform="translate(270,118)"/>
<path d="M0 0 C1.17246771 4.09902098 1.07076062 7.75436258 1 12 C-2.33270874 12.33977725 -5.66624786 12.67063063 -9 13 C-10.40185547 13.14308594 -10.40185547 13.14308594 -11.83203125 13.2890625 C-17.25318323 13.81980465 -22.55322171 14.1027694 -28 14 C-24.96252955 11.5454466 -21.91326204 9.90759188 -18.359375 8.30078125 C-16.75449219 7.57084961 -16.75449219 7.57084961 -15.1171875 6.82617188 C-14.00601563 6.32666016 -12.89484375 5.82714844 -11.75 5.3125 C-10.62335938 4.80138672 -9.49671875 4.29027344 -8.3359375 3.76367188 C-5.55923437 2.50474292 -2.7805667 1.25036665 0 0 Z " fill="#F4F4F6" transform="translate(176,120)"/>
<path d="M0 0 C0.33 0 0.66 0 1 0 C1 12.87 1 25.74 1 39 C-0.98 39.495 -0.98 39.495 -3 40 C-3.07433779 35.10704853 -3.12869027 30.21442817 -3.16479492 25.32104492 C-3.17985114 23.65757519 -3.20030063 21.99414495 -3.22631836 20.33081055 C-3.26284207 17.93528478 -3.27975782 15.54028533 -3.29296875 13.14453125 C-3.30845261 12.4047554 -3.32393646 11.66497955 -3.33988953 10.90278625 C-3.3413383 6.42494143 -2.76594451 3.56620987 0 0 Z " fill="#EEEFF2" transform="translate(146,81)"/>
<path d="M0 0 C0 13.2 0 26.4 0 40 C-4.00648047 34.99189941 -4.59219893 33.26403608 -4.49609375 27.36328125 C-4.49754898 26.64262985 -4.49900421 25.92197845 -4.50050354 25.17948914 C-4.49885029 23.66413304 -4.48735327 22.14875915 -4.46655273 20.63354492 C-4.43745637 18.30901407 -4.44598113 15.98674612 -4.45898438 13.66210938 C-4.45275061 12.18748889 -4.4443625 10.71287559 -4.43359375 9.23828125 C-4.43652939 8.54245438 -4.43946503 7.8466275 -4.44248962 7.12971497 C-4.40405273 5.17700195 -4.40405273 5.17700195 -4 2 C-1 0 -1 0 0 0 Z " fill="#C0C5D1" transform="translate(229,91)"/>
<path d="M0 0 C-0.33 0.99 -0.66 1.98 -1 3 C-1.98097656 2.84015625 -2.96195313 2.6803125 -3.97265625 2.515625 C-13.47987673 1.16735436 -24.34330477 0.40665151 -33 5 C-33.66 5.66 -34.32 6.32 -35 7 C-35.66 6.34 -36.32 5.68 -37 5 C-26.07781176 -4.88197984 -13.67882658 -2.47101383 0 0 Z " fill="#314369" transform="translate(223,74)"/>
<path d="M0 0 C0.33 0 0.66 0 1 0 C1 9.9 1 19.8 1 30 C-7.97257964 31.12157246 -7.97257964 31.12157246 -11.98046875 31.02734375 C-12.83447266 31.01509766 -13.68847656 31.00285156 -14.56835938 30.99023438 C-16.32624957 30.95484061 -18.08406854 30.91572902 -19.84179688 30.87304688 C-24.35777862 30.81484241 -27.89839726 30.83455756 -32 33 C-32 32.01 -32 31.02 -32 30 C-27.26262096 27.55894726 -22.87907538 27.73573741 -17.6875 27.8125 C-16.87087891 27.81314453 -16.05425781 27.81378906 -15.21289062 27.81445312 C-9.99276001 27.85188832 -5.26237096 28.34220363 0 29 C0 19.43 0 9.86 0 0 Z " fill="#2A3C64" transform="translate(222,95)"/>
<path d="M0 0 C2.97 0 5.94 0 9 0 C9 3.3 9 6.6 9 10 C6.03 10 3.06 10 0 10 C0 6.7 0 3.4 0 0 Z " fill="#0E2350" transform="translate(415,79)"/>
<path d="M0 0 C0.33 0 0.66 0 1 0 C1 10.89 1 21.78 1 33 C-0.32 32.34 -1.64 31.68 -3 31 C-2.55362542 20.53369067 -1.8785366 10.32283217 0 0 Z " fill="#964388" transform="translate(184,94)"/>
<path d="M0 0 C0.97582031 0.00902344 1.95164063 0.01804687 2.95703125 0.02734375 C4.06111328 0.04474609 4.06111328 0.04474609 5.1875 0.0625 C1.90618414 2.74721298 -1.53158453 4.47914304 -5.375 6.25 C-7.07849609 7.04470703 -7.07849609 7.04470703 -8.81640625 7.85546875 C-11.8125 9.0625 -11.8125 9.0625 -14.8125 9.0625 C-13.68798273 6.0905615 -12.58956209 3.72809313 -10.8125 1.0625 C-7.21239122 -0.02561578 -3.74038257 -0.04506485 0 0 Z " fill="#B5197E" transform="translate(159.8125,124.9375)"/>
<path d="M0 0 C0.33 0 0.66 0 1 0 C1 11.22 1 22.44 1 34 C2.98 33.505 2.98 33.505 5 33 C5.36630156 36.93774177 5.30233203 38.56539771 3 41.875 C2.34 42.57625 1.68 43.2775 1 44 C-0.32456929 34.99918661 -0.11081876 26.01139818 -0.0625 16.9375 C-0.0574758 15.29231907 -0.05291452 13.64713665 -0.04882812 12.00195312 C-0.03789342 8.00126502 -0.0206793 4.00064912 0 0 Z " fill="#77839C" transform="translate(142,87)"/>
<path d="M0 0 C0 3.63 0 7.26 0 11 C-0.33 11 -0.66 11 -1 11 C-1.66 18.59 -2.32 26.18 -3 34 C-3.33 34 -3.66 34 -4 34 C-4.07406517 29.4793661 -4.12856045 24.959084 -4.16479492 20.43798828 C-4.17989711 18.89951426 -4.20038046 17.36108339 -4.22631836 15.82275391 C-4.26264074 13.61349859 -4.27971119 11.40481152 -4.29296875 9.1953125 C-4.30845261 8.50567413 -4.32393646 7.81603577 -4.33988953 7.10549927 C-4.34057617 5.16455078 -4.34057617 5.16455078 -4 2 C-1 0 -1 0 0 0 Z " fill="#FAFAFB" transform="translate(229,91)"/>
<path d="M0 0 C0.89694794 3.58779175 1.08304117 6.34618837 1 10 C0.67 9.34 0.34 8.68 0 8 C-4.29 8 -8.58 8 -13 8 C-13 7.34 -13 6.68 -13 6 C-8.71 4.02 -4.42 2.04 0 0 Z " fill="#CDCCD8" transform="translate(176,120)"/>
<path d="M0 0 C0.33 0 0.66 0 1 0 C1.01981934 0.94842773 1.03963867 1.89685547 1.06005859 2.87402344 C1.13825761 6.40032364 1.22495366 9.92620361 1.31738281 13.45214844 C1.35561266 14.97680658 1.390476 16.50155307 1.421875 18.02636719 C1.46765662 20.22102381 1.52562766 22.4150754 1.5859375 24.609375 C1.59748871 25.2886908 1.60903992 25.96800659 1.62094116 26.66790771 C1.73234916 30.2583736 2.05958376 32.93618488 4 36 C2.515 36.495 2.515 36.495 1 37 C0.896875 36.360625 0.79375 35.72125 0.6875 35.0625 C0.460625 34.381875 0.23375 33.70125 0 33 C-0.99 32.67 -1.98 32.34 -3 32 C-2.34 31.67 -1.68 31.34 -1 31 C-0.67 20.77 -0.34 10.54 0 0 Z " fill="#415175" transform="translate(224,94)"/>
<path d="M0 0 C0.33 0.66 0.66 1.32 1 2 C-2.50776784 3.60355101 -5.14354879 4.22036864 -9 4 C-9.33 5.32 -9.66 6.64 -10 8 C-10.99 8 -11.98 8 -13 8 C-12.4376049 4.73810844 -11.5859495 3.08865152 -9 1 C-5.8035914 -0.06546953 -3.34252724 -0.07427838 0 0 Z " fill="#C8CDD7" transform="translate(201,125)"/>
<path d="M0 0 C3.93846154 4.30769231 3.93846154 4.30769231 4.25 7.8125 C4.1675 8.534375 4.085 9.25625 4 10 C2.02 10.99 2.02 10.99 0 12 C0 8.04 0 4.08 0 0 Z " fill="#B9197F" transform="translate(225,81)"/>
<path d="M0 0 C0.36630156 3.93774177 0.30233203 5.56539771 -2 8.875 C-2.66 9.57625 -3.32 10.2775 -4 11 C-4 7.7 -4 4.4 -4 1 C-2 0 -2 0 0 0 Z " fill="#AF197C" transform="translate(147,120)"/>
<path d="M0 0 C1.09570312 0.00902344 2.19140625 0.01804687 3.3203125 0.02734375 C4.16335937 0.03894531 5.00640625 0.05054687 5.875 0.0625 C5.875 1.7125 5.875 3.3625 5.875 5.0625 C5.545 4.4025 5.215 3.7425 4.875 3.0625 C0.585 3.0625 -3.705 3.0625 -8.125 3.0625 C-8.125 2.4025 -8.125 1.7425 -8.125 1.0625 C-5.36047967 -0.31976016 -3.0788637 -0.03275387 0 0 Z " fill="#9FA2B6" transform="translate(171.125,124.9375)"/>
<path d="M0 0 C0 0.66 0 1.32 0 2 C0.66 2.33 1.32 2.66 2 3 C1.16855469 3.29003906 1.16855469 3.29003906 0.3203125 3.5859375 C-0.40414062 3.84632812 -1.12859375 4.10671875 -1.875 4.375 C-2.59429687 4.63023438 -3.31359375 4.88546875 -4.0546875 5.1484375 C-6.18157994 5.93877783 -6.18157994 5.93877783 -8 8 C-8.66 7.34 -9.32 6.68 -10 6 C-2.92307692 0 -2.92307692 0 0 0 Z " fill="#405074" transform="translate(196,73)"/>
<path d="M0 0 C0 0.66 0 1.32 0 2 C-5.28 2 -10.56 2 -16 2 C-16 1.67 -16 1.34 -16 1 C-14.95199219 0.90912109 -14.95199219 0.90912109 -13.8828125 0.81640625 C-12.97273437 0.73261719 -12.06265625 0.64882812 -11.125 0.5625 C-10.22007812 0.48128906 -9.31515625 0.40007812 -8.3828125 0.31640625 C-1.84090909 -0.55227273 -1.84090909 -0.55227273 0 0 Z " fill="#CCD0DA" transform="translate(227,132)"/>
<path d="M0 0 C0.66 0 1.32 0 2 0 C2 2.97 2 5.94 2 9 C1.01 8.67 0.02 8.34 -1 8 C-1.04241723 5.66705225 -1.04092937 3.33297433 -1 1 C-0.67 0.67 -0.34 0.34 0 0 Z " fill="#E6E7EC" transform="translate(182,117)"/>
<path d="M0 0 C0.33 0 0.66 0 1 0 C1.19392201 5.52677733 0.7479503 9.75614911 -1 15 C-3 12 -3 12 -2.5390625 9.08203125 C-2.23742187 8.00308594 -1.93578125 6.92414063 -1.625 5.8125 C-1.32851563 4.72582031 -1.03203125 3.63914062 -0.7265625 2.51953125 C-0.48679687 1.68808594 -0.24703125 0.85664062 0 0 Z " fill="#C22586" transform="translate(263,113)"/>
<path d="M0 0 C0.33 0.66 0.66 1.32 1 2 C-4.94 2.495 -4.94 2.495 -11 3 C-4.84615385 -1.61538462 -4.84615385 -1.61538462 0 0 Z " fill="#38496E" transform="translate(162,74)"/>
<path d="M0 0 C2.64 0.33 5.28 0.66 8 1 C7.67 1.99 7.34 2.98 7 4 C4.69 3.67 2.38 3.34 0 3 C0 2.01 0 1.02 0 0 Z " fill="#3D4E72" transform="translate(215,73)"/>
</g>
<path d="M0 0 C-2.97 1.32 -5.94 2.64 -9 4 C-9 3.01 -9 2.02 -9 1 C-5.19495213 -0.79682816 -4.29399165 -1.07349791 0 0 Z " fill="#2E4067" transform="translate(199,124)"/>

</svg>
