<?xml version="1.0" standalone="no"?>
<!DOCTYPE svg PUBLIC "-//W3C//DTD SVG 20010904//EN"
 "http://www.w3.org/TR/2001/REC-SVG-20010904/DTD/svg10.dtd">
<svg version="1.0" xmlns="http://www.w3.org/2000/svg"
 width="199" height="59" viewBox="0 0 244.000000 270.000000"
 preserveAspectRatio="xMidYMid meet">
<metadata>
Created by potrace 1.16, written by Peter Selinger 2001-2019
</metadata>
<g transform="translate(0.000000,270.000000) scale(0.100000,-0.100000)"
fill="#000000" stroke="none">
<!-- <svg width="199" height="59" viewBox="0 0 199 59" fill="none" xmlns="http://www.w3.org/2000/svg">
<g clip-path="url(#clip0)"> -->
<path d="M1069 2696 c-3 -3 -40 -15 -81 -25 -303 -78 -565 -307 -723 -632 -25
-51 -45 -98 -45 -105 0 -6 15 -15 34 -18 48 -9 122 -62 155 -110 43 -64 56
-106 56 -181 0 -117 -65 -219 -174 -271 -20 -11 -67 -20 -108 -22 l-73 -4 0
-42 c1 -121 45 -344 96 -488 40 -110 148 -318 165 -318 4 0 8 106 8 236 0 264
6 297 68 391 56 84 139 140 241 162 29 6 102 11 161 11 l109 0 1 105 2 105
-54 53 c-33 32 -66 78 -88 122 l-34 70 -3 186 -4 185 -114 57 c-70 35 -114 63
-114 72 0 10 113 71 320 175 l320 160 320 -160 320 -160 0 -122 c0 -106 3
-124 19 -142 20 -22 68 -257 56 -276 -7 -12 -192 -14 -199 -2 -9 14 43 264 59
282 11 12 15 40 15 108 0 51 -3 92 -7 92 -5 -1 -44 -20 -88 -43 l-80 -42 0
-180 0 -181 -38 -76 c-28 -57 -54 -92 -102 -136 l-65 -59 0 -96 0 -95 158 -4
c133 -4 166 -8 215 -27 81 -32 168 -114 209 -199 l33 -66 5 -266 5 -265 36 55
c135 205 220 478 236 758 5 96 4 112 -8 107 -23 -9 -149 59 -198 107 -51 50
-90 127 -97 195 -12 104 69 188 174 180 28 -2 52 -2 52 -1 0 13 -54 143 -85
204 -125 252 -344 468 -565 562 -131 55 -214 72 -360 76 -75 1 -138 1 -141 -2z"/>
<path d="M908 2379 c-153 -76 -278 -141 -278 -144 0 -5 135 -75 145 -75 3 0 5
18 5 40 0 59 29 84 126 106 112 27 464 27 574 1 103 -24 125 -42 121 -101 l-2
-46 58 28 c32 15 66 33 77 38 16 10 -24 32 -260 150 -154 77 -281 140 -284
141 -3 1 -130 -61 -282 -138z"/>
<path d="M1034 2280 c-49 -5 -115 -17 -145 -27 l-54 -18 -3 -132 c-1 -73 0
-133 4 -133 3 0 34 8 68 17 88 25 480 25 579 0 38 -9 70 -17 73 -17 2 0 4 59
4 131 l0 130 -34 14 c-79 33 -328 51 -492 35z"/>
<path d="M1032 1959 c-51 -5 -116 -17 -144 -27 -64 -21 -74 -46 -58 -142 37
-227 254 -367 466 -302 162 50 264 189 264 359 0 63 0 64 -34 78 -80 34 -331
51 -494 34z"/>
<path d="M52 1854 l-52 -26 2 -201 3 -201 50 -25 c65 -34 160 -35 221 -3 53
27 117 100 132 150 39 128 -25 267 -145 317 -58 24 -150 19 -211 -11z m138
-58 c0 -16 7 -27 21 -31 34 -11 19 -39 -25 -45 -46 -6 -67 -30 -47 -54 8 -9
25 -16 39 -16 70 0 96 -89 42 -140 -16 -15 -30 -37 -30 -48 0 -12 -5 -24 -10
-27 -15 -9 -40 13 -40 35 0 10 -9 20 -21 23 -13 4 -20 12 -17 24 2 13 14 19
45 21 23 2 46 9 52 16 17 20 3 45 -28 52 -49 10 -71 24 -81 50 -14 36 -2 72
31 96 15 12 26 25 23 30 -10 16 5 38 26 38 15 0 20 -7 20 -24z"/>
<path d="M2074 1776 c-29 -29 -34 -41 -34 -83 0 -98 76 -199 187 -250 61 -28
77 -25 166 30 l47 29 0 154 0 154 -40 0 c-32 0 -46 -7 -74 -35 -42 -41 -50
-43 -71 -12 -20 31 -56 47 -106 47 -33 0 -48 -7 -75 -34z"/>
<path d="M1000 1369 l-1 -104 93 -87 93 -87 82 87 82 87 1 93 c0 51 -4 92 -9
92 -5 0 -22 -5 -38 -11 -62 -24 -197 -12 -285 26 -17 7 -18 -2 -18 -96z"/>
<path d="M661 1214 c-96 -34 -165 -97 -210 -194 -26 -55 -26 -57 -29 -335 l-3
-280 57 -63 c32 -35 98 -96 148 -134 l91 -70 5 298 c5 291 6 299 25 299 20 0
20 -8 23 -313 l2 -313 66 -30 c234 -106 502 -106 742 2 l72 32 2 311 c3 303 3
311 23 311 19 0 20 -8 25 -293 l5 -292 40 27 c65 43 156 125 197 176 l38 49 0
243 c0 133 -5 266 -10 296 -21 112 -89 203 -192 255 -41 21 -71 28 -134 32
l-80 4 -125 -183 c-69 -101 -132 -185 -140 -187 -8 -1 -34 29 -63 73 -27 41
-50 75 -52 75 -1 0 -26 -34 -55 -75 -28 -41 -57 -75 -63 -75 -7 0 -54 62 -106
138 -166 245 -155 232 -208 232 -26 -1 -67 -8 -91 -16z"/>
<path d="M961 1080 c56 -82 103 -150 105 -150 2 0 22 28 45 61 l41 61 -88 89
-89 89 -58 0 -58 0 102 -150z"/>
<path d="M1298 1146 c-43 -46 -78 -87 -78 -91 0 -11 73 -125 80 -125 5 1 192
275 198 292 2 4 -25 8 -60 7 l-63 -1 -77 -82z"/>
</g>

</svg>
