<?xml version="1.0" encoding="UTF-8"?>
<svg version="1.1" xmlns="http://www.w3.org/2000/svg" width="176" height="164">
<path d="M0 0 C58.08 0 116.16 0 176 0 C176 54.12 176 108.24 176 164 C117.92 164 59.84 164 0 164 C0 109.88 0 55.76 0 0 Z " fill="#FBFBFB" transform="translate(0,0)"/>
<path d="M0 0 C0.76683105 0.4758252 1.53366211 0.95165039 2.32373047 1.44189453 C23.87087294 14.68364887 47.21786196 19.4291813 72.109375 14.11328125 C80.78559973 11.811831 89.28085816 7.9517644 96.75 3 C100 1 100 1 102.01464844 1.06811523 C104.86451265 2.40578514 105.5620576 4.14521827 107.015625 6.91015625 C107.80839844 8.39418945 107.80839844 8.39418945 108.6171875 9.90820312 C109.15601563 10.94912109 109.69484375 11.99003906 110.25 13.0625 C110.80429688 14.10728516 111.35859375 15.15207031 111.9296875 16.22851562 C113.29859538 18.81291929 114.65465203 21.40327591 116 24 C112.47382138 27.81727028 108.93435958 30.51834655 104.3125 32.9375 C103.66676025 33.27740967 103.02102051 33.61731934 102.35571289 33.9675293 C94.55522086 37.92395074 86.3860807 40.58579559 78 43 C76.85144531 43.34160156 75.70289062 43.68320313 74.51953125 44.03515625 C48.30578044 50.76867647 18.46808646 44.87345781 -4.5625 31.3125 C-5.18801758 30.94431152 -5.81353516 30.57612305 -6.45800781 30.19677734 C-9.6844002 28.18005489 -11.89545712 26.69913415 -13 23 C-12.03369141 20.43457031 -12.03369141 20.43457031 -10.3515625 17.578125 C-9.75859375 16.55332031 -9.165625 15.52851562 -8.5546875 14.47265625 C-7.91789062 13.40917969 -7.28109375 12.34570312 -6.625 11.25 C-5.9959375 10.17105469 -5.366875 9.09210938 -4.71875 7.98046875 C-3.15993552 5.31158941 -1.58672825 2.65234687 0 0 Z " fill="#090909" transform="translate(39,110)"/>
<path d="M0 0 C0.63519562 0.22196045 1.27039124 0.4439209 1.92483521 0.67260742 C3.93484843 1.37721261 5.94001385 2.09460116 7.9453125 2.8125 C9.31480322 3.29512563 10.68459242 3.7769052 12.0546875 4.2578125 C15.39673707 5.4329434 18.73456658 6.61957584 22.0703125 7.8125 C22.13089844 9.07707031 22.19148438 10.34164063 22.25390625 11.64453125 C22.33832154 13.30469871 22.42296905 14.96485437 22.5078125 16.625 C22.54712891 17.45837891 22.58644531 18.29175781 22.62695312 19.15039062 C22.66884766 19.95283203 22.71074219 20.75527344 22.75390625 21.58203125 C22.79056396 22.32042236 22.82722168 23.05881348 22.86499023 23.81958008 C23.01873391 26.019995 23.01873391 26.019995 24.0703125 28.8125 C24.08656768 31.40218807 24.04521085 33.95729659 23.94921875 36.54296875 C23.91380226 37.66859978 23.91380226 37.66859978 23.87767029 38.81697083 C23.80115577 41.21151219 23.71707924 43.60572013 23.6328125 46 C23.57957956 47.6243327 23.52683924 49.24868162 23.47460938 50.87304688 C23.34555723 54.85307534 23.20972296 58.83282144 23.0703125 62.8125 C21.4203125 62.8125 19.7703125 62.8125 18.0703125 62.8125 C18.0456624 57.70386104 18.02747643 52.59525641 18.01538086 47.48657227 C18.01034046 45.74730832 18.0035082 44.00804864 17.99487305 42.26879883 C17.98279458 39.77424063 17.97708142 37.27973827 17.97265625 34.78515625 C17.96749496 34.00286148 17.96233368 33.22056671 17.95701599 32.41456604 C17.95682024 30.54682886 18.00831556 28.67920796 18.0703125 26.8125 C18.5653125 26.3175 18.5653125 26.3175 19.0703125 25.8125 C19.14344817 23.28200598 19.16278777 20.77945163 19.1328125 18.25 C19.12830078 17.53908203 19.12378906 16.82816406 19.11914062 16.09570312 C19.10732114 14.33459987 19.08938513 12.57353964 19.0703125 10.8125 C13.6253125 12.2975 13.6253125 12.2975 8.0703125 13.8125 C8.35321564 22.11099216 9.05609284 27.2059268 14.0703125 33.8125 C15.21632744 36.10452988 15.20268489 37.4070669 15.21557617 39.95507812 C15.22195602 40.80936401 15.22833588 41.6636499 15.23490906 42.54382324 C15.23602188 43.46779907 15.2371347 44.3917749 15.23828125 45.34375 C15.24327385 46.76403503 15.24327385 46.76403503 15.24836731 48.2130127 C15.25343496 50.21703606 15.25577569 52.22106789 15.25561523 54.22509766 C15.25780356 57.29994503 15.27596604 60.37443481 15.29492188 63.44921875 C15.29785539 65.39322793 15.29984047 67.33723883 15.30078125 69.28125 C15.30796677 70.20522583 15.31515228 71.12920166 15.32255554 72.08117676 C15.31947891 72.93546265 15.31640228 73.78974854 15.31323242 74.66992188 C15.31465744 75.42333862 15.31608246 76.17675537 15.31755066 76.95300293 C15.0703125 78.8125 15.0703125 78.8125 13.0703125 80.8125 C13.7921875 81.51375 14.5140625 82.215 15.2578125 82.9375 C18.06855063 85.74020745 20.56547476 88.73512792 23.0703125 91.8125 C21.94496094 92.05033203 21.94496094 92.05033203 20.796875 92.29296875 C14.46021585 93.73747165 9.00475764 95.55468799 3.32421875 98.7265625 C-3.17299518 101.85693594 -11.99538954 102.1710283 -18.7578125 99.8359375 C-24.56575712 97.00152141 -30.67193226 93.60406487 -33.9296875 87.8125 C-33.47320139 84.18422251 -31.70772456 81.6097415 -29.6796875 78.625 C-28.80570313 77.30435547 -28.80570313 77.30435547 -27.9140625 75.95703125 C-25.6041555 73.46069475 -24.26094835 73.10542121 -20.9296875 72.8125 C-20.9296875 71.8225 -20.9296875 70.8325 -20.9296875 69.8125 C-21.63996094 69.89628906 -22.35023437 69.98007813 -23.08203125 70.06640625 C-24.00113281 70.16824219 -24.92023438 70.27007812 -25.8671875 70.375 C-27.24197266 70.53162109 -27.24197266 70.53162109 -28.64453125 70.69140625 C-29.39863281 70.73136719 -30.15273437 70.77132812 -30.9296875 70.8125 C-31.9296875 69.8125 -31.9296875 69.8125 -32.02734375 66.87109375 C-32.01574219 65.67613281 -32.00414063 64.48117188 -31.9921875 63.25 C-31.98316406 62.05246094 -31.97414063 60.85492188 -31.96484375 59.62109375 C-31.95324219 58.69425781 -31.94164063 57.76742187 -31.9296875 56.8125 C-31.5996875 56.8125 -31.2696875 56.8125 -30.9296875 56.8125 C-30.5996875 60.4425 -30.2696875 64.0725 -29.9296875 67.8125 C-22.0096875 67.3175 -22.0096875 67.3175 -13.9296875 66.8125 C-14.2596875 67.4725 -14.5896875 68.1325 -14.9296875 68.8125 C-15.9196875 68.8125 -16.9096875 68.8125 -17.9296875 68.8125 C-17.9296875 70.1325 -17.9296875 71.4525 -17.9296875 72.8125 C-16.846875 72.3175 -16.846875 72.3175 -15.7421875 71.8125 C-12.91271323 70.80646471 -10.90073284 70.64272598 -7.9296875 70.8125 C-7.9296875 69.1625 -7.9296875 67.5125 -7.9296875 65.8125 C-7.2696875 65.8125 -6.6096875 65.8125 -5.9296875 65.8125 C-3.37754026 73.94746933 -3.37754026 73.94746933 -3.9296875 77.8125 C-6.9296875 79.8125 -6.9296875 79.8125 -9.6171875 79.4375 C-10.761875 79.128125 -10.761875 79.128125 -11.9296875 78.8125 C-11.5996875 77.1625 -11.2696875 75.5125 -10.9296875 73.8125 C-10.5996875 75.1325 -10.2696875 76.4525 -9.9296875 77.8125 C-8.9396875 77.8125 -7.9496875 77.8125 -6.9296875 77.8125 C-7.2596875 76.4925 -7.5896875 75.1725 -7.9296875 73.8125 C-10.4046875 74.3075 -10.4046875 74.3075 -12.9296875 74.8125 C-12.9724085 76.47861905 -12.97032582 78.14632885 -12.9296875 79.8125 C-11.89562077 81.07199049 -11.89562077 81.07199049 -9.64453125 80.91015625 C-8.72800781 80.89855469 -7.81148437 80.88695313 -6.8671875 80.875 C-5.94808594 80.86597656 -5.02898437 80.85695313 -4.08203125 80.84765625 C-3.37175781 80.83605469 -2.66148438 80.82445313 -1.9296875 80.8125 C-0.91883322 77.46863602 -0.81425287 74.4376882 -0.83203125 70.953125 C-0.83525391 69.83808594 -0.83847656 68.72304687 -0.84179688 67.57421875 C-0.85017578 66.41535156 -0.85855469 65.25648437 -0.8671875 64.0625 C-0.87169922 62.88816406 -0.87621094 61.71382812 -0.88085938 60.50390625 C-0.89263656 57.60671928 -0.90908424 54.70963546 -0.9296875 51.8125 C-2.2496875 51.8125 -3.5696875 51.8125 -4.9296875 51.8125 C-4.4346875 50.8225 -4.4346875 50.8225 -3.9296875 49.8125 C-2.6096875 50.1425 -1.2896875 50.4725 0.0703125 50.8125 C0.0703125 49.1625 0.0703125 47.5125 0.0703125 45.8125 C0.4003125 45.8125 0.7303125 45.8125 1.0703125 45.8125 C1.0703125 57.3625 1.0703125 68.9125 1.0703125 80.8125 C2.3903125 79.8225 3.7103125 78.8325 5.0703125 77.8125 C5.48794123 74.8770574 5.65493482 72.32109161 5.63671875 69.3828125 C5.64291733 68.555466 5.64911591 67.72811951 5.65550232 66.8757019 C5.66260465 65.12564266 5.65941919 63.37551592 5.64672852 61.62548828 C5.63289522 58.95347837 5.66688265 56.28499337 5.70507812 53.61328125 C5.70602967 51.91145748 5.7041686 50.20962934 5.69921875 48.5078125 C5.71247696 47.71182648 5.72573517 46.91584045 5.73939514 46.09573364 C5.66914887 41.88801299 5.41801725 40.26039024 2.74951172 36.82299805 C-0.65773329 34.26616712 -3.15353541 33.98024776 -7.3671875 33.5 C-16.12284948 32.26504442 -22.62285921 28.61902299 -29.9296875 23.8125 C-29.2696875 20.5125 -28.6096875 17.2125 -27.9296875 13.8125 C-28.68894531 13.60753906 -29.44820312 13.40257812 -30.23046875 13.19140625 C-31.22433594 12.92199219 -32.21820313 12.65257812 -33.2421875 12.375 C-34.22832031 12.10816406 -35.21445312 11.84132813 -36.23046875 11.56640625 C-38.14486276 11.03170575 -40.04402365 10.44105462 -41.9296875 9.8125 C-41.9296875 9.1525 -41.9296875 8.4925 -41.9296875 7.8125 C-37.91367517 6.37630004 -33.89350886 4.95260384 -29.86914062 3.54003906 C-28.50238985 3.05837902 -27.13680473 2.57339733 -25.77246094 2.08496094 C-23.80445021 1.38107389 -21.8324748 0.68947283 -19.859375 0 C-18.67585449 -0.41894531 -17.49233398 -0.83789062 -16.27294922 -1.26953125 C-10.15211278 -2.95014648 -5.92057055 -2.09577718 0 0 Z " fill="#040404" transform="translate(97.9296875,10.1875)"/>
<path d="M0 0 C4.1650247 1.27588385 7.76214301 2.88575411 11.5625 5 C17.07185921 7.84398343 21.93914581 8.87978144 28.08984375 9.3828125 C31.63758563 10.1352195 33.39053524 11.52590998 36 14 C38.48016941 18.96033882 37.31286894 26.64759889 37.35009766 32.16650391 C37.3666675 33.96871851 37.3939713 35.77086711 37.43212891 37.57275391 C37.48686906 40.17124507 37.50876459 42.76819762 37.5234375 45.3671875 C37.54610687 46.17147186 37.56877625 46.97575623 37.59213257 47.80441284 C37.57665405 51.89954689 37.41691834 53.58195638 34.46728516 56.53955078 C33.65308105 57.02149902 32.83887695 57.50344727 32 58 C30.56490779 55.12981559 30.88841494 52.66456277 30.90234375 49.4609375 C30.90556641 48.15898438 30.90878906 46.85703125 30.91210938 45.515625 C30.92046534 44.13541601 30.92893029 42.75520768 30.9375 41.375 C30.94251499 39.98698074 30.9470779 38.59895978 30.95117188 37.2109375 C30.96299024 33.80724868 30.97946566 30.40364561 31 27 C29.35 27.33 27.7 27.66 26 28 C27.32 28 28.64 28 30 28 C31.38471665 32.80127191 31.18413432 37.53898122 31.1875 42.5 C31.19974609 43.45003906 31.21199219 44.40007812 31.22460938 45.37890625 C31.22654297 46.29542969 31.22847656 47.21195313 31.23046875 48.15625 C31.23457764 48.98962891 31.23868652 49.82300781 31.24291992 50.68164062 C30.97519982 53.2366859 30.36663638 54.83453176 29 57 C26.77109005 58.11445498 25.46944894 58.16480286 23 58.1875 C22.29875 58.20167969 21.5975 58.21585938 20.875 58.23046875 C19 58 19 58 17 56 C16.75 53.5 16.75 53.5 17 51 C17.66 50.34 18.32 49.68 19 49 C21.5625 49.25 21.5625 49.25 24 50 C24.33 50.66 24.66 51.32 25 52 C24.505 52.99 24.505 52.99 24 54 C23.01 54 22.02 54 21 54 C20.67 53.01 20.34 52.02 20 51 C20 52.32 20 53.64 20 55 C22.97 54.505 22.97 54.505 26 54 C26.042721 52.33388095 26.04063832 50.66617115 26 49 C25.67 48.67 25.34 48.34 25 48 C24.95919217 46.00041636 24.95745644 43.99954746 25 42 C24.34 42 23.68 42 23 42 C23 43.65 23 45.3 23 47 C19.38026598 48.31626692 16.90432869 49 13 49 C13 47.68 13 46.36 13 45 C14.485 44.505 14.485 44.505 16 44 C10.87641436 43.89325863 6.07927242 44.32276368 1 45 C0.01 45 -0.98 45 -2 45 C-2 41.04 -2 37.08 -2 33 C-3.32 32.34 -4.64 31.68 -6 31 C-8.57174854 23.67051666 -9.31175743 16.51866035 -6.25 9.25 C-4.55688768 5.79726023 -2.58876492 2.86613259 0 0 Z " fill="#1C1C1C" transform="translate(67,34)"/>
<path d="M0 0 C0.33 0 0.66 0 1 0 C1 11.55 1 23.1 1 35 C2.32 34.01 3.64 33.02 5 32 C5.99 32.33 6.98 32.66 8 33 C7.505 33.99 7.505 33.99 7 35 C9.31 34.01 11.62 33.02 14 32 C13.67 32.99 13.34 33.98 13 35 C13.721875 35.70125 14.44375 36.4025 15.1875 37.125 C17.99823813 39.92770745 20.49516226 42.92262792 23 46 C22.24976563 46.15855469 21.49953125 46.31710938 20.7265625 46.48046875 C14.38990335 47.92497165 8.93444514 49.74218799 3.25390625 52.9140625 C-3.24330768 56.04443594 -12.06570204 56.3585283 -18.828125 54.0234375 C-24.63606962 51.18902141 -30.74224476 47.79156487 -34 42 C-33.54351389 38.37172251 -31.77803706 35.7972415 -29.75 32.8125 C-29.16734375 31.93207031 -28.5846875 31.05164063 -27.984375 30.14453125 C-25.674468 27.64819475 -24.33126085 27.29292121 -21 27 C-21 26.01 -21 25.02 -21 24 C-22.06541016 24.12568359 -22.06541016 24.12568359 -23.15234375 24.25390625 C-24.53099609 24.40666016 -24.53099609 24.40666016 -25.9375 24.5625 C-26.85402344 24.66691406 -27.77054687 24.77132812 -28.71484375 24.87890625 C-29.84599609 24.93884766 -29.84599609 24.93884766 -31 25 C-32 24 -32 24 -32.09765625 21.05859375 C-32.08605469 19.86363281 -32.07445313 18.66867188 -32.0625 17.4375 C-32.05347656 16.23996094 -32.04445313 15.04242188 -32.03515625 13.80859375 C-32.02355469 12.88175781 -32.01195313 11.95492187 -32 11 C-31.67 11 -31.34 11 -31 11 C-30.67 14.63 -30.34 18.26 -30 22 C-24.72 21.67 -19.44 21.34 -14 21 C-14.33 21.66 -14.66 22.32 -15 23 C-15.99 23 -16.98 23 -18 23 C-18 24.32 -18 25.64 -18 27 C-17.278125 26.67 -16.55625 26.34 -15.8125 26 C-12.98302573 24.99396471 -10.97104534 24.83022598 -8 25 C-8 23.35 -8 21.7 -8 20 C-7.34 20 -6.68 20 -6 20 C-3.44785276 28.13496933 -3.44785276 28.13496933 -4 32 C-7 34 -7 34 -9.6875 33.625 C-10.450625 33.41875 -11.21375 33.2125 -12 33 C-11.67 31.35 -11.34 29.7 -11 28 C-10.67 29.32 -10.34 30.64 -10 32 C-9.01 32 -8.02 32 -7 32 C-7.33 30.68 -7.66 29.36 -8 28 C-9.65 28.33 -11.3 28.66 -13 29 C-13.042721 30.66611905 -13.04063832 32.33382885 -13 34 C-11.96593327 35.25949049 -11.96593327 35.25949049 -9.71484375 35.09765625 C-8.79832031 35.08605469 -7.88179687 35.07445312 -6.9375 35.0625 C-6.01839844 35.05347656 -5.09929687 35.04445312 -4.15234375 35.03515625 C-3.44207031 35.02355469 -2.73179688 35.01195312 -2 35 C-0.98914572 31.65613602 -0.88456537 28.6251882 -0.90234375 25.140625 C-0.90556641 24.02558594 -0.90878906 22.91054687 -0.91210938 21.76171875 C-0.92048828 20.60285156 -0.92886719 19.44398437 -0.9375 18.25 C-0.94201172 17.07566406 -0.94652344 15.90132812 -0.95117188 14.69140625 C-0.96294906 11.79421928 -0.97939674 8.89713546 -1 6 C-2.32 6 -3.64 6 -5 6 C-4.67 5.34 -4.34 4.68 -4 4 C-2.68 4.33 -1.36 4.66 0 5 C0 3.35 0 1.7 0 0 Z " fill="#060606" transform="translate(98,56)"/>
<path d="M0 0 C2.94985359 1.25225002 3.59231718 2.97243587 5.06933594 5.78198242 C5.59785156 6.77133789 6.12636719 7.76069336 6.67089844 8.7800293 C7.20972656 9.82094727 7.74855469 10.86186523 8.30371094 11.93432617 C9.13515625 13.50150391 9.13515625 13.50150391 9.98339844 15.1003418 C11.35230631 17.68474546 12.70836296 20.27510208 14.05371094 22.87182617 C10.34358664 26.93596996 6.68214505 29.49133442 1.80371094 31.99682617 C1.14491943 32.34229492 0.48612793 32.68776367 -0.19262695 33.04370117 C-4.99100572 35.50905278 -9.74223083 37.41103789 -14.94628906 38.87182617 C-15.13191406 37.94370117 -15.13191406 37.94370117 -15.32128906 36.99682617 C-15.81826262 34.68061786 -15.81826262 34.68061786 -17.94628906 32.87182617 C-16.95628906 32.87182617 -15.96628906 32.87182617 -14.94628906 32.87182617 C-15.27628906 30.56182617 -15.60628906 28.25182617 -15.94628906 25.87182617 C-13.45330944 24.98147631 -12.39524807 24.66137664 -9.94628906 25.80932617 C-8.95628906 26.33526367 -8.95628906 26.33526367 -7.94628906 26.87182617 C-6.62628906 26.87182617 -5.30628906 26.87182617 -3.94628906 26.87182617 C-3.61628906 26.21182617 -3.28628906 25.55182617 -2.94628906 24.87182617 C-5.25628906 24.54182617 -7.56628906 24.21182617 -9.94628906 23.87182617 C-9.28628906 22.88182617 -8.62628906 21.89182617 -7.94628906 20.87182617 C-7.69597929 18.2880244 -7.69597929 18.2880244 -7.94628906 15.87182617 C-9.08729337 14.50936725 -9.08729337 14.50936725 -12.13378906 14.68432617 C-15.81386438 14.86531348 -18.53526054 15.54069309 -21.94628906 16.87182617 C-22.60628906 16.21182617 -23.26628906 15.55182617 -23.94628906 14.87182617 C-23.94628906 13.55182617 -23.94628906 12.23182617 -23.94628906 10.87182617 C-23.19605469 10.58049805 -22.44582031 10.28916992 -21.67285156 9.98901367 C-15.38018198 7.46877573 -9.72191954 4.71333613 -4.10253906 0.91088867 C-1.94628906 -0.12817383 -1.94628906 -0.12817383 0 0 Z " fill="#080808" transform="translate(140.9462890625,111.128173828125)"/>
<path d="M0 0 C0.66 0 1.32 0 2 0 C2.8861336 1.32021932 3.70814872 2.68366594 4.5 4.0625 C9.35267811 11.59660905 16.72168161 15.94062147 25 19 C25 19.33 25 19.66 25 20 C23.9378125 19.84917969 22.875625 19.69835937 21.78125 19.54296875 C15.3280298 18.89570939 15.3280298 18.89570939 9 20 C4.98601685 23.31915759 2.96558861 28.29293253 1 33 C-2.11896676 31.59368017 -4.45402854 29.90245104 -7 27.625 C-7.6909375 27.00753906 -8.381875 26.39007813 -9.09375 25.75390625 C-11.12025994 23.889351 -13.09274947 21.9867193 -15 20 C-14.505 18.515 -14.505 18.515 -14 17 C-11.85546875 16.03515625 -11.85546875 16.03515625 -9.1875 15.0625 C-5.63289893 13.42504428 -4.2726559 12.52608165 -2.44921875 9.0078125 C-1.48253255 6.01987334 -0.6561565 3.07022483 0 0 Z " fill="#070707" transform="translate(29,88)"/>
<path d="M0 0 C0.66 0.33 1.32 0.66 2 1 C2.51263976 2.71954021 2.98523974 4.4511018 3.4375 6.1875 C5.15546207 11.2816887 7.01854731 13.16081923 11.75 15.6875 C13.48417631 16.49330182 15.22983516 17.27667402 17 18 C15.40153531 22.24908336 12.1869608 24.82225739 8.875 27.75 C8.31167969 28.25660156 7.74835938 28.76320313 7.16796875 29.28515625 C5.78348469 30.52884532 4.39238512 31.76516305 3 33 C0 32 0 32 -1.3671875 29.27734375 C-1.86476562 28.17519531 -2.36234375 27.07304688 -2.875 25.9375 C-4.5506585 22.59499598 -4.5506585 22.59499598 -7 20 C-11.48842336 18.93681454 -15.47332811 19.26484126 -20 20 C-17.92284471 17.81419351 -15.78641314 16.09118315 -13.3125 14.375 C-8.20868707 10.61330084 -2.86839772 5.73679543 0 0 Z " fill="#0A0A0A" transform="translate(150,88)"/>
<path d="M0 0 C3 1 3 1 5.125 3.75 C9.31436291 9.01844124 15.40671563 12.03011122 22 13 C33.37806813 13.99433804 41.4711255 11.69558934 51.3125 6.125 C54.85837797 4.64067899 57.30648327 5.18742632 61 6 C61.99 8.475 61.99 8.475 63 11 C48.66904449 18.69625389 30.04508453 22.2503206 13.92382812 18.51953125 C7.71264526 16.38337416 0.41665242 11.77796819 -3 6 C-2.70417 3.0193732 -2.15544206 2.15544206 0 0 Z " fill="#0B0B0B" transform="translate(61,99)"/>
<path d="M0 0 C7.48958764 0.14659335 11.65447278 0.65447278 17 6 C19.21587348 7.27852287 19.21587348 7.27852287 21 8 C19.35 8.66 17.7 9.32 16 10 C16.66 10.66 17.32 11.32 18 12 C18.125 15.125 18.125 15.125 18 18 C13.31297605 19.69233204 8.69777654 20.74249843 3.8125 21.625 C3.10158203 21.7590625 2.39066406 21.893125 1.65820312 22.03125 C-1.27304766 22.57172521 -4.01273112 23 -7 23 C-7.02703381 21.06257659 -7.04641125 19.12504521 -7.0625 17.1875 C-7.07410156 16.10855469 -7.08570312 15.02960938 -7.09765625 13.91796875 C-7 11 -7 11 -6 8 C-4.35 7.67 -2.7 7.34 -1 7 C-0.67 4.69 -0.34 2.38 0 0 Z " fill="#F7F7F7" transform="translate(75,56)"/>
<path d="M0 0 C0.93199219 0.48210938 1.86398438 0.96421875 2.82421875 1.4609375 C10.29795732 5.20372423 16.72698531 7.78230551 25.1953125 8.41796875 C28.6894401 9.14307322 30.42937925 10.57117505 33 13 C35.48016941 17.96033882 34.31286894 25.64759889 34.35009766 31.16650391 C34.3666675 32.96871851 34.3939713 34.77086711 34.43212891 36.57275391 C34.48686906 39.17124507 34.50876459 41.76819762 34.5234375 44.3671875 C34.54610687 45.17147186 34.56877625 45.97575623 34.59213257 46.80441284 C34.57665405 50.89954689 34.41691834 52.58195638 31.46728516 55.53955078 C30.65308105 56.02149902 29.83887695 56.50344727 29 57 C29 54.0901368 29.04951847 51.18322411 29.1026001 48.27394104 C29.15581085 45.05360154 29.18855223 41.83316876 29.21972656 38.61254883 C29.23988879 36.9142062 29.26721886 35.21593335 29.30175781 33.51782227 C29.35031254 31.0650946 29.37296704 28.61327688 29.390625 26.16015625 C29.41127014 25.4027565 29.43191528 24.64535675 29.45318604 23.86500549 C29.45467124 20.37099369 29.28220883 18.38446391 27.1875 15.53076172 C24.09663065 13.3678431 21.48613477 13.33855044 17.75 13.0625 C11.47211409 12.45000486 6.81904898 11.18561728 2 7 C1.41734375 6.53464844 0.8346875 6.06929687 0.234375 5.58984375 C-0.17296875 5.06519531 -0.5803125 4.54054688 -1 4 C-0.6875 1.8125 -0.6875 1.8125 0 0 Z " fill="#F3F3F3" transform="translate(70,35)"/>
<path d="M0 0 C4.14720281 4.03511625 6.05721491 8.34374175 6.2746582 14.08422852 C6.29450569 15.68235491 6.30256917 17.28065762 6.30078125 18.87890625 C6.30506638 19.72799057 6.3093515 20.57707489 6.31376648 21.45188904 C6.31949348 23.24127309 6.32002208 25.03068042 6.31567383 26.82006836 C6.3125065 29.55688017 6.33601808 32.29261798 6.36132812 35.02929688 C6.36360056 36.77083197 6.36430487 38.51236997 6.36328125 40.25390625 C6.372491 41.07065323 6.38170074 41.88740021 6.39118958 42.72889709 C6.3639848 46.06734303 6.22977243 48.56175604 4.66479492 51.54663086 C3 53 3 53 0 53 C0.0314209 51.03208496 0.0314209 51.03208496 0.06347656 49.02441406 C0.1358797 44.15668656 0.18180113 39.28900665 0.21972656 34.42089844 C0.23984126 32.31404618 0.26713667 30.20724975 0.30175781 28.10058594 C0.35028168 25.07212553 0.37297016 22.04440322 0.390625 19.015625 C0.41127014 18.07382385 0.43191528 17.13202271 0.45318604 16.16168213 C0.52137992 10.93029838 0.52137992 10.93029838 -1.89941406 6.43652344 C-6.1794669 3.5095324 -9.96010709 3.67306507 -15.0546875 3.37890625 C-17.85200059 3.01903971 -19.60179832 2.43081115 -22 1 C-22 0.67 -22 0.34 -22 0 C-19.64628886 -0.1968999 -17.2925305 -0.38270974 -14.9375 -0.5625 C-13.62652344 -0.66691406 -12.31554687 -0.77132812 -10.96484375 -0.87890625 C-7.12232302 -0.99626403 -3.7579492 -0.79728203 0 0 Z " fill="#F2F2F2" transform="translate(105,38)"/>
<path d="M0 0 C0.99 0.33 1.98 0.66 3 1 C3.27350427 16.58974359 3.27350427 16.58974359 -1 23 C-6.69139902 21.90301833 -11.74567937 20.45946923 -17 18 C-16.01 17.67 -15.02 17.34 -14 17 C-14 15.35 -14 13.7 -14 12 C-12.68 12.66 -11.36 13.32 -10 14 C-9.01 10.04 -8.02 6.08 -7 2 C-2 1 -2 1 0 2 C0 1.34 0 0.68 0 0 Z " fill="#0C0C0C" transform="translate(60,128)"/>
<path d="M0 0 C2.60901597 1.64779956 3.64421912 2.95448441 4.63671875 5.87109375 C5.087146 8.05711223 5.27720642 9.78234865 5 12 C2.625 14.9375 2.625 14.9375 0 17 C-0.33 17.33 -0.66 17.66 -1 18 C-4.56196755 18.40476904 -6.62280725 18.18039653 -9.875 16.625 C-12.68437507 13.1545955 -12.71920905 10.72631711 -12.48046875 6.3515625 C-12 4 -12 4 -9.9375 1.375 C-6.27526509 -0.33923762 -4.0001851 -0.58184511 0 0 Z " fill="#E5E5E5" transform="translate(112,131)"/>
<path d="M0 0 C0.33 0 0.66 0 1 0 C1.06058594 1.12019531 1.12117188 2.24039062 1.18359375 3.39453125 C1.26801424 4.86719984 1.35266149 6.33985544 1.4375 7.8125 C1.47681641 8.55048828 1.51613281 9.28847656 1.55664062 10.04882812 C1.74381035 13.23071342 1.98720793 15.96162378 3 19 C3.01625518 21.58968807 2.97489835 24.14479659 2.87890625 26.73046875 C2.85529526 27.48088943 2.83168427 28.23131012 2.80735779 29.00447083 C2.73084327 31.39901219 2.64676674 33.79322013 2.5625 36.1875 C2.50926706 37.8118327 2.45652674 39.43618162 2.40429688 41.06054688 C2.27524473 45.04057534 2.13941046 49.02032144 2 53 C0.35 53 -1.3 53 -3 53 C-3 41.12 -3 29.24 -3 17 C-2.01 16.67 -1.02 16.34 0 16 C0 10.72 0 5.44 0 0 Z " fill="#7A7A7A" transform="translate(119,20)"/>
<path d="M0 0 C2 2 2 2 2.25 4.5 C2 7 2 7 0 9 C1.98 9.66 3.96 10.32 6 11 C5.67 11.99 5.34 12.98 5 14 C-2.42857143 13 -2.42857143 13 -6 12 C-6 14.31 -6 16.62 -6 19 C-6.99 19 -7.98 19 -9 19 C-9.50806447 17.27318563 -10.00610467 15.54342021 -10.5 13.8125 C-10.91765625 12.36810547 -10.91765625 12.36810547 -11.34375 10.89453125 C-11.97549512 8.10808401 -12.28108965 5.84048489 -12 3 C-8.24524002 -0.29963756 -4.8630082 -0.45877436 0 0 Z " fill="#EBEBEB" transform="translate(132,125)"/>
<path d="M0 0 C4.90867027 0.42074317 6.68333303 2.5215444 10 6 C17.6740829 11.59568545 23.62180132 12.76102736 33 12 C38.85042734 10.85005947 43.87641864 8.6418092 49.10546875 5.8515625 C52.04494334 4.53031413 54.80327912 4.26639341 58 4 C54.49011742 6.92639826 50.56495247 8.7463524 46.4375 10.625 C45.76525391 10.93695313 45.09300781 11.24890625 44.40039062 11.5703125 C35.70922599 15.57498022 26.48069524 16.6555388 17.125 13.875 C9.90975676 11.01840742 4.63933776 6.0891308 0 0 Z " fill="#EAEAEA" transform="translate(61,98)"/>
<path d="M0 0 C2.82904086 0.30584226 4.53339412 0.5671621 6.6496582 2.53027344 C8.57137578 6.04502574 8.37170779 9.36621151 8.29296875 13.265625 C8.28872391 14.05902283 8.28447906 14.85242065 8.28010559 15.66986084 C8.2633504 18.1969232 8.22570506 20.72317983 8.1875 23.25 C8.17244903 24.96613429 8.15876134 26.68228112 8.14648438 28.3984375 C8.11345735 32.59926746 8.06169765 36.79949725 8 41 C7.67 41 7.34 41 7 41 C6.67 31.76 6.34 22.52 6 13 C3.03 12.505 3.03 12.505 0 12 C-3.06397411 9.54882071 -4.71670094 7.9806506 -5.8125 4.1875 C-5.874375 3.465625 -5.93625 2.74375 -6 2 C-2.23145777 3.25618074 -1.92041544 4.66014706 0 8 C0.66 8.33 1.32 8.66 2 9 C1.484375 8.443125 0.96875 7.88625 0.4375 7.3125 C-1 5 -1 5 -0.6875 2.25 C-0.460625 1.5075 -0.23375 0.765 0 0 Z " fill="#393939" transform="translate(92,48)"/>
<path d="M0 0 C0.66 0 1.32 0 2 0 C2.08701039 3.60401481 2.14039388 7.20776012 2.1875 10.8125 C2.22520508 12.34874023 2.22520508 12.34874023 2.26367188 13.91601562 C2.27817383 15.39038086 2.27817383 15.39038086 2.29296875 16.89453125 C2.31653442 18.25348511 2.31653442 18.25348511 2.34057617 19.63989258 C1.93461163 22.453125 1.24639156 23.31537718 -1 25 C-3.79881044 25.5154245 -6.11759395 25.22876238 -9 25 C-11 23 -11 23 -11.25 20.5 C-11 18 -11 18 -9 16 C-6.4375 16.25 -6.4375 16.25 -4 17 C-3.67 17.66 -3.34 18.32 -3 19 C-3.33 19.66 -3.66 20.32 -4 21 C-4.99 21 -5.98 21 -7 21 C-7.33 20.01 -7.66 19.02 -8 18 C-8 19.32 -8 20.64 -8 22 C-6.02 21.67 -4.04 21.34 -2 21 C-1.957279 19.33388095 -1.95936168 17.66617115 -2 16 C-2.33 15.67 -2.66 15.34 -3 15 C-3.04063832 13.33382885 -3.042721 11.66611905 -3 10 C-2.34 9.67 -1.68 9.34 -1 9 C-0.53348793 6.87423218 -0.53348793 6.87423218 -0.375 4.4375 C-0.30023438 3.61121094 -0.22546875 2.78492187 -0.1484375 1.93359375 C-0.09945312 1.29550781 -0.05046875 0.65742187 0 0 Z " fill="#F2F2F2" transform="translate(95,67)"/>
<path d="M0 0 C5.75 1.875 5.75 1.875 8 3 C8.09765625 9.15234375 8.09765625 9.15234375 8 11 C7.67 11.33 7.34 11.66 7 12 C5.35 12 3.7 12 2 12 C1.67 16.62 1.34 21.24 1 26 C0.67 26 0.34 26 0 26 C-0.03738281 25.16855469 -0.07476562 24.33710937 -0.11328125 23.48046875 C-0.17902344 22.39378906 -0.24476562 21.30710937 -0.3125 20.1875 C-0.37050781 19.10855469 -0.42851563 18.02960938 -0.48828125 16.91796875 C-1.03068507 13.82502483 -1.55289624 12.86977097 -4 11 C-3.525625 10.29875 -3.05125 9.5975 -2.5625 8.875 C-0.91260143 5.83918663 -0.39631536 3.40831214 0 0 Z " fill="#E0E0E0" transform="translate(67,52)"/>
<path d="M0 0 C0.41713515 1.43146378 0.8080497 2.87058886 1.1875 4.3125 C1.40792969 5.11300781 1.62835938 5.91351563 1.85546875 6.73828125 C2 9 2 9 0.7421875 10.7734375 C-1.86345557 12.6079037 -3.90217789 12.32955554 -7 12 C-9 10 -9 10 -9.3125 6.0625 C-9.23330121 3.50018618 -9.11578846 2.21227884 -7.875 -0.0625 C-5.06457284 -1.46771358 -2.96791942 -0.72549141 0 0 Z " fill="#090909" transform="translate(112,134)"/>
<path d="M0 0 C1.99954746 -0.04254356 4.00041636 -0.04080783 6 0 C7 1 7 1 7.11352539 3.04125977 C7.10828857 3.91580811 7.10305176 4.79035645 7.09765625 5.69140625 C7.09443359 6.63564453 7.09121094 7.57988281 7.08789062 8.55273438 C7.07951172 9.54595703 7.07113281 10.53917969 7.0625 11.5625 C7.05798828 12.55958984 7.05347656 13.55667969 7.04882812 14.58398438 C7.03700007 17.05604849 7.02051849 19.52799518 7 22 C6.67 22 6.34 22 6 22 C6 15.4 6 8.8 6 2 C5.34 2 4.68 2 4 2 C4 4.97 4 7.94 4 11 C3.01 11.33 2.02 11.66 1 12 C0.34 11.67 -0.32 11.34 -1 11 C-1 12.65 -1 14.3 -1 16 C-4.61973402 17.31626692 -7.09567131 18 -11 18 C-11 16.68 -11 15.36 -11 14 C-10.01 13.67 -9.02 13.34 -8 13 C-8.99 12.34 -9.98 11.68 -11 11 C-7.04 10.34 -3.08 9.68 1 9 C1.33 7.02 1.66 5.04 2 3 C1.01 2.67 0.02 2.34 -1 2 C-0.67 1.34 -0.34 0.68 0 0 Z " fill="#2E2E2E" transform="translate(91,65)"/>
<path d="M0 0 C0.99 0.33 1.98 0.66 3 1 C2.835 1.639375 2.67 2.27875 2.5 2.9375 C1.84476574 6.95080982 1.71483498 10.94059212 2 15 C3.06645115 16.29633621 3.06645115 16.29633621 5.5625 16.0625 C6.7690625 16.0315625 6.7690625 16.0315625 8 16 C9.67110042 13.03821227 10.32682752 10.62928808 10.625 7.25 C10.69976562 6.45078125 10.77453125 5.6515625 10.8515625 4.828125 C10.90054688 4.22484375 10.94953125 3.6215625 11 3 C11.99 3 12.98 3 14 3 C13.96687272 5.08400734 13.89736131 7.16745766 13.8125 9.25 C13.77769531 10.41015625 13.74289063 11.5703125 13.70703125 12.765625 C13 16 13 16 10.640625 18.42578125 C8 20 8 20 4.9375 19.9375 C-0.0262418 18.35332709 -0.0262418 18.35332709 -2 16 C-2.58486424 10.24883501 -1.57818526 5.52364842 0 0 Z " fill="#F6F6F6" transform="translate(64,129)"/>
<path d="M0 0 C0.99 0.33 1.98 0.66 3 1 C3.12357051 5.92951281 3.21432177 10.85812532 3.2746582 15.78881836 C3.29980792 17.46606141 3.33393259 19.1431948 3.37719727 20.82006836 C3.4378346 23.23058085 3.46620284 25.63964552 3.48828125 28.05078125 C3.51408768 28.80087967 3.5398941 29.55097809 3.56648254 30.32380676 C3.56762695 32.4465332 3.56762695 32.4465332 3 36 C0.46948242 37.99682617 0.46948242 37.99682617 -2 39 C-1.67 38.01 -1.34 37.02 -1 36 C-0.84629652 33.27116927 -0.74271735 30.56302858 -0.68359375 27.83203125 C-0.66281265 27.03721848 -0.64203156 26.2424057 -0.62062073 25.42350769 C-0.55527913 22.88659237 -0.49631192 20.34957427 -0.4375 17.8125 C-0.39430014 16.09178628 -0.35068537 14.37108292 -0.30664062 12.65039062 C-0.19961352 8.43369887 -0.09830276 4.2169038 0 0 Z " fill="#FAFAFA" transform="translate(100,53)"/>
<path d="M0 0 C0.44730469 0.39832031 0.89460938 0.79664063 1.35546875 1.20703125 C6.60872419 5.81063036 11.23507346 8.95478965 18 11 C18 12.65 18 14.3 18 16 C11.01866768 15.06269149 6.11191498 12.90791837 1 8 C-1 5.125 -1 5.125 -2 3 C-1.34 2.01 -0.68 1.02 0 0 Z " fill="#F0F0F0" transform="translate(66,39)"/>
<path d="M0 0 C3.05286935 2.81906323 4.24673033 4.98092383 4.45410156 9.0559082 C4.4534731 10.63767395 4.43115787 12.21953479 4.390625 13.80078125 C4.38496521 14.63715622 4.37930542 15.47353119 4.37347412 16.33525085 C4.35116268 18.99492711 4.30097788 21.65323405 4.25 24.3125 C4.22992815 26.12042319 4.21167858 27.92836759 4.1953125 29.73632812 C4.15131527 34.15807611 4.08232546 38.57880625 4 43 C3.67 43 3.34 43 3 43 C3 31.78 3 20.56 3 9 C0.525 8.01 0.525 8.01 -2 7 C-3.625 5.5 -3.625 5.5 -5 4 C-5.99 3.34 -6.98 2.68 -8 2 C-8 1.34 -8 0.68 -8 0 C-4.99733781 -1.5013311 -3.18669322 -0.8922741 0 0 Z " fill="#DBDBDB" transform="translate(100,45)"/>
<path d="M0 0 C0.99 0.33 1.98 0.66 3 1 C3 11.56 3 22.12 3 33 C1.515 33.495 1.515 33.495 0 34 C0 22.78 0 11.56 0 0 Z " fill="#FCFCFC" transform="translate(107,53)"/>
<path d="M0 0 C0.680625 0.721875 1.36125 1.44375 2.0625 2.1875 C6.40569768 6.518394 11.13716002 10.04572001 17 12 C17 12.66 17 13.32 17 14 C12.02693484 13.50269348 8.36200187 12.44697666 4 10 C3.67 10.99 3.34 11.98 3 13 C3 10.69 3 8.38 3 6 C1.68 5.67 0.36 5.34 -1 5 C-1.33 7.31 -1.66 9.62 -2 12 C-2.33 12 -2.66 12 -3 12 C-3.08131463 10.56344146 -3.13933559 9.1255517 -3.1875 7.6875 C-3.22230469 6.88699219 -3.25710937 6.08648437 -3.29296875 5.26171875 C-2.93801608 2.52148416 -2.10633718 1.70828921 0 0 Z " fill="#0D0D0D" transform="translate(63,42)"/>
<path d="M0 0 C6.435 2.97 6.435 2.97 13 6 C13 6.66 13 7.32 13 8 C11.02 8 9.04 8 7 8 C5.68 11.96 4.36 15.92 3 20 C2.01 19.67 1.02 19.34 0 19 C0.47811177 17.22888156 0.9575278 15.45811517 1.4375 13.6875 C1.70433594 12.70136719 1.97117188 11.71523437 2.24609375 10.69921875 C2.78079425 8.78482474 3.37144538 6.88566385 4 5 C1.525 4.01 1.525 4.01 -1 3 C-0.67 2.01 -0.34 1.02 0 0 Z " fill="#DFDFDF" transform="translate(47,122)"/>
<path d="M0 0 C0.33 0 0.66 0 1 0 C1.07420027 5.48092694 1.1286258 10.96156099 1.16479492 16.44287109 C1.17987414 18.30718072 1.20034061 20.17145492 1.22631836 22.03564453 C1.26273996 24.71656033 1.2797349 27.3970068 1.29296875 30.078125 C1.30845261 30.91055725 1.32393646 31.7429895 1.33988953 32.60064697 C1.34090884 36.11170903 1.30965766 38.40488468 -0.33081055 41.55761719 C-2 43 -2 43 -5 43 C-4.67 35.74 -4.34 28.48 -4 21 C-3.67 21 -3.34 21 -3 21 C-2.67 26.28 -2.34 31.56 -2 37 C-1.67 37 -1.34 37 -1 37 C-0.67 24.79 -0.34 12.58 0 0 Z " fill="#D6D6D6" transform="translate(110,48)"/>
<path d="M0 0 C4.29 0.33 8.58 0.66 13 1 C9 3 9 3 6 4 C5.67 4.66 5.34 5.32 5 6 C4.01 5.34 3.02 4.68 2 4 C1.18639005 5.29096781 0.37414954 6.58279875 -0.4375 7.875 C-0.88996094 8.59429687 -1.34242187 9.31359375 -1.80859375 10.0546875 C-3.02461501 11.9777547 -3.02461501 11.9777547 -4 14 C-4.99 13.67 -5.98 13.34 -7 13 C-5.34871173 8.1962523 -2.73611689 4.24818148 0 0 Z " fill="#EDEDED" transform="translate(38,107)"/>
<path d="M0 0 C0 11.22 0 22.44 0 34 C-0.99 34 -1.98 34 -3 34 C-3.33 23.11 -3.66 12.22 -4 1 C-1 0 -1 0 0 0 Z " fill="#090909" transform="translate(121,38)"/>
<path d="M0 0 C3.67033927 3.27708863 5.69281189 6.71522208 8 11 C8.86625 10.566875 8.86625 10.566875 9.75 10.125 C11.83333333 9.08333333 13.91666667 8.04166667 16 7 C15.31829621 8.18242427 14.60330945 9.34569823 13.875 10.5 C13.48054688 11.1496875 13.08609375 11.799375 12.6796875 12.46875 C11 14 11 14 7.8203125 14.21875 C6.88960937 14.1465625 5.95890625 14.074375 5 14 C4.38511719 12.84371094 4.38511719 12.84371094 3.7578125 11.6640625 C3.21898437 10.66117188 2.68015625 9.65828125 2.125 8.625 C1.32449219 7.12839844 1.32449219 7.12839844 0.5078125 5.6015625 C-0.8820138 2.94651605 -0.8820138 2.94651605 -3 1 C-2.01 0.67 -1.02 0.34 0 0 Z " fill="#E6E6E6" transform="translate(143,109)"/>
<path d="M0 0 C0 0.66 0 1.32 0 2 C-0.66 2 -1.32 2 -2 2 C-2 2.66 -2 3.32 -2 4 C-1.34 4 -0.68 4 0 4 C0 4.66 0 5.32 0 6 C-2.58463502 5.71749338 -5.16731135 5.4243774 -7.75 5.125 C-8.84441406 5.00705078 -8.84441406 5.00705078 -9.9609375 4.88671875 C-13.66777257 4.44863824 -16.80452172 4.0013785 -20 2 C-20 1.67 -20 1.34 -20 1 C-17.60429729 0.8312461 -15.20846637 0.66493164 -12.8125 0.5 C-12.13896484 0.45230469 -11.46542969 0.40460937 -10.77148438 0.35546875 C-7.17363248 0.10976179 -3.60627694 -0.05601984 0 0 Z " fill="#D5D5D5" transform="translate(103,37)"/>
<path d="M0 0 C1.17949219 0.19464844 2.35898438 0.38929688 3.57421875 0.58984375 C4.92966797 0.82380859 4.92966797 0.82380859 6.3125 1.0625 C5.9825 2.0525 5.6525 3.0425 5.3125 4.0625 C-2.11607143 3.0625 -2.11607143 3.0625 -5.6875 2.0625 C-5.6875 4.3725 -5.6875 6.6825 -5.6875 9.0625 C-6.6775 9.0625 -7.6675 9.0625 -8.6875 9.0625 C-9.0175 6.0925 -9.3475 3.1225 -9.6875 0.0625 C-6.00942463 -1.16352512 -3.80506073 -0.64045577 0 0 Z " fill="#F3F3F3" transform="translate(131.6875,134.9375)"/>
<path d="M0 0 C-3.03564742 1.49175507 -6.07945062 2.96607988 -9.125 4.4375 C-10.40890625 5.06881836 -10.40890625 5.06881836 -11.71875 5.71289062 C-16.14985731 7.84323068 -20.03260858 9.55212045 -25 10 C-25 9.01 -25 8.02 -25 7 C-24.05640625 6.74476562 -24.05640625 6.74476562 -23.09375 6.484375 C-17.99752648 5.04146834 -13.35774807 3.38058247 -8.69140625 0.8671875 C-5.35810418 -0.8418034 -3.51240224 -1.09005587 0 0 Z " fill="#DFDFDF" transform="translate(119,103)"/>
<path d="M0 0 C4.62 0 9.24 0 14 0 C14 0.66 14 1.32 14 2 C12.02 2 10.04 2 8 2 C8 6.95 8 11.9 8 17 C7.34 17 6.68 17 6 17 C6 12.05 6 7.1 6 2 C4.02 2 2.04 2 0 2 C0 1.34 0 0.68 0 0 Z " fill="#FDFDFD" transform="translate(82,133)"/>
<path d="M0 0 C0.66 0.99 1.32 1.98 2 3 C2.86625 3.845625 3.7325 4.69125 4.625 5.5625 C7 8 7 8 7 10 C8.32 10 9.64 10 11 10 C11 10.99 11 11.98 11 13 C7.66045532 11.91955907 5.78506137 10.80842426 3.125 8.4375 C-0.39814561 5.68944643 -2.60291507 5.2638251 -7 5 C-6.67 4.01 -6.34 3.02 -6 2 C-4.0625 1.375 -4.0625 1.375 -2 1 C-1.34 0.67 -0.68 0.34 0 0 Z " fill="#2B2B2B" transform="translate(86,52)"/>
<path d="M0 0 C2.5625 0.25 2.5625 0.25 5 1 C5.33 1.66 5.66 2.32 6 3 C5.67 3.66 5.34 4.32 5 5 C4.01 5 3.02 5 2 5 C1.67 4.01 1.34 3.02 1 2 C1 3.32 1 4.64 1 6 C2.98 6 4.96 6 7 6 C7 6.99 7 7.98 7 9 C3.625 9.125 3.625 9.125 0 9 C-2 7 -2 7 -2.25 4.5 C-2 2 -2 2 0 0 Z " fill="#F8F8F8" transform="translate(86,83)"/>
<path d="M0 0 C0.763125 0.20625 1.52625 0.4125 2.3125 0.625 C1.9825 2.275 1.6525 3.925 1.3125 5.625 C-0.6675 6.285 -2.6475 6.945 -4.6875 7.625 C-5.0175 5.645 -5.3475 3.665 -5.6875 1.625 C-2.6875 -0.375 -2.6875 -0.375 0 0 Z " fill="#0F0F0F" transform="translate(128.6875,127.375)"/>
<path d="M0 0 C0.33 0 0.66 0 1 0 C1.33 2.31 1.66 4.62 2 7 C3.4540625 7.4021875 3.4540625 7.4021875 4.9375 7.8125 C5.948125 8.204375 6.95875 8.59625 8 9 C8.33 9.99 8.66 10.98 9 12 C5.30787163 12.3434538 3.39209869 12.221621 0.125 10.375 C-2 8 -2 8 -2.4375 4.875 C-2 2 -2 2 0 0 Z " fill="#DDDDDD" transform="translate(102,137)"/>
<path d="M0 0 C4.28282783 0.25193105 6.52200982 0.62370986 9.9375 3.3125 C12 6 12 6 12 10 C8.28490737 8.76163579 6.71117136 6.77895064 4 4 C3.01 3.34 2.02 2.68 1 2 C0.67 1.34 0.34 0.68 0 0 Z " fill="#232323" transform="translate(94,41)"/>
<path d="M0 0 C0 0.99 0 1.98 0 3 C-3.96 4.98 -3.96 4.98 -8 7 C-10 4 -10 4 -11 1 C-7.27569643 0.30710631 -3.78916254 -0.11144596 0 0 Z " fill="#F5F5F5" transform="translate(143,107)"/>
<path d="M0 0 C1.66611905 -0.042721 3.33382885 -0.04063832 5 0 C6 1 6 1 6.0625 3.5625 C6.041875 4.366875 6.02125 5.17125 6 6 C3.625 6.625 3.625 6.625 1 7 C0.34 6.34 -0.32 5.68 -1 5 C-0.625 2.375 -0.625 2.375 0 0 Z " fill="#111111" transform="translate(69,57)"/>
<path d="M0 0 C6.0546875 -0.1953125 6.0546875 -0.1953125 8 0 C8.66 0.66 9.32 1.32 10 2 C9.01 2 8.02 2 7 2 C7.495 2.78375 7.99 3.5675 8.5 4.375 C10 7 10 7 10 9 C6.51866169 7.60746468 5.52113967 6.36823784 4 3 C3.34 2.67 2.68 2.34 2 2 C2 2.99 2 3.98 2 5 C1.34 5 0.68 5 0 5 C0 3.35 0 1.7 0 0 Z " fill="#080808" transform="translate(84,48)"/>
<path d="M0 0 C0.99 0 1.98 0 3 0 C2.94011859 2.12579013 2.85137256 4.25078413 2.75 6.375 C2.70359375 7.55835938 2.6571875 8.74171875 2.609375 9.9609375 C2.40828125 10.96382812 2.2071875 11.96671875 2 13 C0.02 13.99 0.02 13.99 -2 15 C-1.34 10.05 -0.68 5.1 0 0 Z " fill="#EEEEEE" transform="translate(75,132)"/>
<path d="M0 0 C0.309375 0.639375 0.61875 1.27875 0.9375 1.9375 C1.8345163 3.93610821 1.8345163 3.93610821 3 5 C6.63194641 5.19149081 6.63194641 5.19149081 10 4 C10 5.32 10 6.64 10 8 C7.375 8.75 7.375 8.75 4 9 C0.625 7.0625 0.625 7.0625 -2 5 C-1.34 4.67 -0.68 4.34 0 4 C0 2.68 0 1.36 0 0 Z " fill="#D1D1D1" transform="translate(64,140)"/>
<path d="M0 0 C3 1 3 1 4.375 3.4375 C6.2836851 6.44734958 7.64965669 7.00395199 11 8 C11 8.66 11 9.32 11 10 C4.54985337 9.51319648 4.54985337 9.51319648 2.125 7.25 C0.91136473 4.82272946 0.37230633 2.68060559 0 0 Z " fill="#DCDCDC" transform="translate(86,50)"/>
<path d="M0 0 C1.15957207 3.47871621 0.77456651 4.34219645 -0.4375 7.6875 C-0.72496094 8.49574219 -1.01242188 9.30398437 -1.30859375 10.13671875 C-1.53675781 10.75160156 -1.76492187 11.36648437 -2 12 C-2.99 11.67 -3.98 11.34 -5 11 C-4.54917531 9.53932801 -4.08906463 8.08151968 -3.625 6.625 C-3.36976562 5.81289062 -3.11453125 5.00078125 -2.8515625 4.1640625 C-2 2 -2 2 0 0 Z " fill="#ECECEC" transform="translate(52,130)"/>
<path d="M0 0 C0 0.99 0 1.98 0 3 C-3.61973402 4.31626692 -6.09567131 5 -10 5 C-10 3.68 -10 2.36 -10 1 C-6.59437148 0.22157062 -3.49234244 -0.09978121 0 0 Z " fill="#E4E4E4" transform="translate(90,78)"/>
<path d="M0 0 C1.32 0 2.64 0 4 0 C4.1875 2.375 4.1875 2.375 4 5 C1 7 1 7 -1.6875 6.625 C-2.450625 6.41875 -3.21375 6.2125 -4 6 C-3.67 4.35 -3.34 2.7 -3 1 C-2.67 2.32 -2.34 3.64 -2 5 C-1.01 5 -0.02 5 1 5 C0.67 3.35 0.34 1.7 0 0 Z " fill="#202020" transform="translate(90,83)"/>
<path d="M0 0 C0.33 0.99 0.66 1.98 1 3 C0.01 3.33 -0.98 3.66 -2 4 C-2.66 3.67 -3.32 3.34 -4 3 C-4 3.66 -4 4.32 -4 5 C-7.3125 5.6875 -7.3125 5.6875 -11 6 C-12.73046875 4.51953125 -12.73046875 4.51953125 -14 3 C-13.15695313 2.86722656 -12.31390625 2.73445313 -11.4453125 2.59765625 C-10.34960938 2.42105469 -9.25390625 2.24445313 -8.125 2.0625 C-6.48917969 1.80146484 -6.48917969 1.80146484 -4.8203125 1.53515625 C-2.06178454 1.14448841 -2.06178454 1.14448841 0 0 Z " fill="#222222" transform="translate(94,73)"/>
<path d="M0 0 C5 2 5 2 10 4 C10 4.66 10 5.32 10 6 C5.22423661 5.5317879 1.95523655 4.75668002 -2 2 C-1.34 1.34 -0.68 0.68 0 0 Z " fill="#151515" transform="translate(70,50)"/>
<path d="M0 0 C0.66 0 1.32 0 2 0 C3.12256131 2.24512262 3.13413762 3.51456649 3.125 6 C3.12886719 7.051875 3.12886719 7.051875 3.1328125 8.125 C3 10 3 10 2 12 C1.34 12 0.68 12 0 12 C0 8.04 0 4.08 0 0 Z " fill="#E7E7E7" transform="translate(62,47)"/>
<path d="M0 0 C0.33 0 0.66 0 1 0 C1.16781295 2.60409745 1.33429651 5.2082682 1.5 7.8125 C1.54769531 8.55048828 1.59539062 9.28847656 1.64453125 10.04882812 C1.83390613 13.03824588 2 16.00374574 2 19 C0.35 19 -1.3 19 -3 19 C-2.505 17.515 -2.505 17.515 -2 16 C-1.34 16 -0.68 16 0 16 C0 10.72 0 5.44 0 0 Z " fill="#6B6B6B" transform="translate(119,20)"/>
<path d="M0 0 C0.99 0 1.98 0 3 0 C3.70226141 1.24176695 4.38629109 2.49385599 5.0625 3.75 C5.44535156 4.44609375 5.82820313 5.1421875 6.22265625 5.859375 C7.1312406 8.36140628 6.88336837 9.5332355 6 12 C6 11.34 6 10.68 6 10 C5.34 10 4.68 10 4 10 C3.32845067 8.71086513 2.66291141 7.41859796 2 6.125 C1.62875 5.40570313 1.2575 4.68640625 0.875 3.9453125 C0 2 0 2 0 0 Z " fill="#1C1C1C" transform="translate(106,38)"/>
<path d="M0 0 C1.1875 1.625 1.1875 1.625 2 4 C0.625 7.25 0.625 7.25 -1 10 C-1.99 9.67 -2.98 9.34 -4 9 C-2.80100302 5.9168649 -1.52299523 2.93720508 0 0 Z " fill="#E7E7E7" transform="translate(35,111)"/>
<path d="M0 0 C1.3303125 0.11794922 1.3303125 0.11794922 2.6875 0.23828125 C5 0.6875 5 0.6875 7 2.6875 C5.22950311 2.74160687 3.45853151 2.78034119 1.6875 2.8125 C0.20830078 2.84730469 0.20830078 2.84730469 -1.30078125 2.8828125 C-4 2.6875 -4 2.6875 -7 0.6875 C-4.42121756 -0.60189122 -2.85485837 -0.27801673 0 0 Z " fill="#111111" transform="translate(89,40.3125)"/>
<path d="M0 0 C1.96446905 1.6344795 2.92317791 2.46429394 3.29296875 5.04296875 C3.1953125 7.02864583 3.09765625 9.01432292 3 11 C2.01 11.495 2.01 11.495 1 12 C0.03929566 9.11788698 -0.10581883 7.30149956 -0.0625 4.3125 C-0.05347656 3.50425781 -0.04445312 2.69601563 -0.03515625 1.86328125 C-0.02355469 1.24839844 -0.01195312 0.63351563 0 0 Z " fill="#383838" transform="translate(59,48)"/>
<path d="M0 0 C0.86625 0.3403125 0.86625 0.3403125 1.75 0.6875 C0.76 1.1825 0.76 1.1825 -0.25 1.6875 C-0.25 2.3475 -0.25 3.0075 -0.25 3.6875 C-1.24 3.6875 -2.23 3.6875 -3.25 3.6875 C-3.58 4.3475 -3.91 5.0075 -4.25 5.6875 C-4.91 4.6975 -5.57 3.7075 -6.25 2.6875 C-2.80384615 -0.38942308 -2.80384615 -0.38942308 0 0 Z " fill="#141414" transform="translate(141.25,111.3125)"/>
<path d="M0 0 C3.465 1.98 3.465 1.98 7 4 C6.34 4.66 5.68 5.32 5 6 C2.375 5.625 2.375 5.625 0 5 C0 4.34 0 3.68 0 3 C-0.66 2.67 -1.32 2.34 -2 2 C-1.34 1.34 -0.68 0.68 0 0 Z " fill="#ECECEC" transform="translate(63,110)"/>
<path d="M0 0 C2.4375 0.375 2.4375 0.375 5 1 C5.33 1.66 5.66 2.32 6 3 C5.67 3.66 5.34 4.32 5 5 C4.01 5 3.02 5 2 5 C1.67 4.01 1.34 3.02 1 2 C0.01 3.485 0.01 3.485 -1 5 C-0.67 3.35 -0.34 1.7 0 0 Z " fill="#CDCDCD" transform="translate(86,83)"/>
<path d="M0 0 C1.98 0 3.96 0 6 0 C5.67 0.66 5.34 1.32 5 2 C4.34 2 3.68 2 3 2 C3.33 2.99 3.66 3.98 4 5 C1.69 5 -0.62 5 -3 5 C-2.505 4.54625 -2.01 4.0925 -1.5 3.625 C0.22609337 2.12364481 0.22609337 2.12364481 0 0 Z " fill="#DADADA" transform="translate(89,43)"/>
<path d="M0 0 C0.99 0.33 1.98 0.66 3 1 C2.67 2.98 2.34 4.96 2 7 C1.01 7.33 0.02 7.66 -1 8 C-0.67 5.36 -0.34 2.72 0 0 Z " fill="#EFEFEF" transform="translate(94,84)"/>
<path d="M0 0 C2.97 0.495 2.97 0.495 6 1 C5.67 1.99 5.34 2.98 5 4 C2.69 3.67 0.38 3.34 -2 3 C-1.34 2.01 -0.68 1.02 0 0 Z " fill="#D2D2D2" transform="translate(132,135)"/>
<path d="M0 0 C-2.97 0.66 -5.94 1.32 -9 2 C-9 1.01 -9 0.02 -9 -1 C-4.80410573 -2.16552619 -4.17908064 -2.08954032 0 0 Z " fill="#D6D6D6" transform="translate(103,111)"/>
<path d="M0 0 C4.95 1.98 4.95 1.98 10 4 C10 4.33 10 4.66 10 5 C3.51707705 5.3669579 3.51707705 5.3669579 1.0625 3.625 C0 2 0 2 0 0 Z " fill="#0E0E0E" transform="translate(44,103)"/>
<path d="M0 0 C1.2065625 0.0309375 1.2065625 0.0309375 2.4375 0.0625 C1.7775 1.7125 1.1175 3.3625 0.4375 5.0625 C-0.5525 5.0625 -1.5425 5.0625 -2.5625 5.0625 C-3.125 3.125 -3.125 3.125 -3.5625 1.0625 C-2.5625 0.0625 -2.5625 0.0625 0 0 Z " fill="#535353" transform="translate(71.5625,56.9375)"/>
<path d="M0 0 C5.75 1.875 5.75 1.875 8 3 C7.67 3.99 7.34 4.98 7 6 C6.01 5.34 5.02 4.68 4 4 C3.01 4 2.02 4 1 4 C0.67 2.68 0.34 1.36 0 0 Z " fill="#DEDEDE" transform="translate(67,52)"/>
<path d="M0 0 C2.475 0.495 2.475 0.495 5 1 C5.33 2.32 5.66 3.64 6 5 C3.5625 4.1875 3.5625 4.1875 1 3 C0.67 2.01 0.34 1.02 0 0 Z " fill="#EFEFEF" transform="translate(91,51)"/>
<path d="M0 0 C0.66 0 1.32 0 2 0 C2.33 1.98 2.66 3.96 3 6 C2.34 6 1.68 6 1 6 C0.67 6.66 0.34 7.32 0 8 C-0.38063221 5.6739143 -0.71269945 3.33944736 -1 1 C-0.67 0.67 -0.34 0.34 0 0 Z " fill="#DDDDDD" transform="translate(121,129)"/>
<path d="M0 0 C1.98 0 3.96 0 6 0 C6 0.99 6 1.98 6 3 C3.69 3 1.38 3 -1 3 C-0.67 2.01 -0.34 1.02 0 0 Z " fill="#E3E3E3" transform="translate(71,80)"/>
<path d="M0 0 C0.99 0.33 1.98 0.66 3 1 C2.67 2.65 2.34 4.3 2 6 C1.01 6.33 0.02 6.66 -1 7 C-0.67 4.69 -0.34 2.38 0 0 Z " fill="#DADADA" transform="translate(64,129)"/>
<path d="M0 0 C-0.33 1.98 -0.66 3.96 -1 6 C-1.33 5.01 -1.66 4.02 -2 3 C-4.97 2.505 -4.97 2.505 -8 2 C-8 1.67 -8 1.34 -8 1 C-5.23735711 0.40267181 -2.83967231 0 0 0 Z " fill="#1D1D1D" transform="translate(79,77)"/>
<path d="M0 0 C0.66 0 1.32 0 2 0 C2.22162329 1.62324086 2.42689803 3.248721 2.625 4.875 C2.74101563 5.77992187 2.85703125 6.68484375 2.9765625 7.6171875 C2.98429687 8.40351562 2.99203125 9.18984375 3 10 C2.34 10.66 1.68 11.32 1 12 C0.03929566 9.11788698 -0.10581883 7.30149956 -0.0625 4.3125 C-0.05347656 3.50425781 -0.04445312 2.69601563 -0.03515625 1.86328125 C-0.02355469 1.24839844 -0.01195312 0.63351563 0 0 Z " fill="#252525" transform="translate(64,48)"/>
<path d="M0 0 C0.99 0.66 1.98 1.32 3 2 C2.01 2.66 1.02 3.32 0 4 C-0.66 4.99 -1.32 5.98 -2 7 C-2.33 6.01 -2.66 5.02 -3 4 C-1.5625 1.8125 -1.5625 1.8125 0 0 Z " fill="#F6F6F6" transform="translate(69,54)"/>
<path d="M0 0 C1.98 0.99 1.98 0.99 4 2 C4 3.32 4 4.64 4 6 C3.01 5.67 2.02 5.34 1 5 C0.67 3.35 0.34 1.7 0 0 Z " fill="#151515" transform="translate(102,45)"/>
<path d="M0 0 C0.99 0.99 1.98 1.98 3 3 C2.01 4.32 1.02 5.64 0 7 C-0.66 5.68 -1.32 4.36 -2 3 C-1.34 2.01 -0.68 1.02 0 0 Z " fill="#E8E8E8" transform="translate(66,39)"/>
<path d="M0 0 C1.32 0 2.64 0 4 0 C2.47764564 3.04470873 -0.18424486 4.20270948 -3 6 C-1.125 1.125 -1.125 1.125 0 0 Z " fill="#262626" transform="translate(64,38)"/>
</svg>
