<?xml version="1.0" encoding="UTF-8"?>
<svg version="1.1" xmlns="http://www.w3.org/2000/svg" width="500" height="500">
<path d="M0 0 C165 0 330 0 500 0 C500 165 500 330 500 500 C335 500 170 500 0 500 C0 335 0 170 0 0 Z " fill="#FCFDFD" transform="translate(0,0)"/>
<path d="M0 0 C165 0 330 0 500 0 C500 165 500 330 500 500 C335 500 170 500 0 500 C0 335 0 170 0 0 Z M115.61938477 101.57128906 C113.86856089 103.11596286 112.08818188 104.62212458 110.3046875 106.12890625 C106.43900578 109.43586155 103.26943969 113.11255647 100 117 C99.28328125 117.80566406 98.5665625 118.61132812 97.828125 119.44140625 C77.15522392 143.18821909 61.76964114 172.18864265 55 203 C54.82629883 203.7744043 54.65259766 204.54880859 54.47363281 205.34667969 C52.13681263 215.87256607 50.24713961 226.19032857 50 237 C49.97953613 237.86077148 49.95907227 238.72154297 49.93798828 239.60839844 C48.8325483 293.56483276 65.05327113 343.28594581 101 384 C101.721875 384.84433594 102.44375 385.68867188 103.1875 386.55859375 C107.46073882 391.50787231 111.98666135 395.81342246 117 400 C117.83789062 400.73734375 118.67578125 401.4746875 119.5390625 402.234375 C141.5557073 421.27907601 167.21355628 434.58985976 195 443 C195.84820312 443.26296875 196.69640625 443.5259375 197.5703125 443.796875 C203.13087152 445.423546 208.74245393 446.59109114 214.4375 447.625 C215.10483154 447.74818604 215.77216309 447.87137207 216.4597168 447.99829102 C245.04505148 452.95728625 276.20951612 451.26638236 304 443 C305.16402344 442.6604126 305.16402344 442.6604126 306.3515625 442.31396484 C333.6264017 434.21808291 358.83958286 421.0840703 380 402 C381.33268811 400.87423574 382.66594374 399.74914264 384 398.625 C394.47363521 389.34205174 403.76592257 379.31407084 412 368 C412.41314453 367.43651855 412.82628906 366.87303711 413.25195312 366.29248047 C443.21646815 324.89538701 456.30837384 271.32736877 448.48388672 220.75927734 C441.08144769 178.54819468 423.05172907 141.4097362 393.41552734 110.48291016 C392.13444449 109.1408444 390.87266783 107.78041479 389.61328125 106.41796875 C370.16611636 85.98028613 344.4738746 71.70885244 318.31298828 61.87109375 C316.31537363 61.11877276 314.32668881 60.34281909 312.33984375 59.5625 C304.17695803 56.5635064 295.90792278 54.85706375 287.375 53.25 C286.25472412 53.03899658 285.13444824 52.82799316 283.98022461 52.6105957 C223.13282394 41.7448292 161.40659541 60.72226518 115.61938477 101.57128906 Z " fill="#FEFEFE" transform="translate(0,0)"/>
<path d="M0 0 C2.44656028 0.02150607 4.89019591 0.00003491 7.33666992 -0.02539062 C17.66477657 -0.04383309 26.55232378 1.29614964 36.3815918 4.52148438 C37.1862085 4.77285156 37.9908252 5.02421875 38.81982422 5.28320312 C68.96963883 15.06660631 92.37883363 36.52946591 106.6940918 64.52148438 C114.85015948 81.13188958 117.77629687 97.31386739 117.6940918 115.83398438 C117.69127197 116.51635162 117.68845215 117.19871887 117.68554688 117.90176392 C117.49860599 148.03584147 106.59113433 173.42375101 86.3815918 195.52148438 C85.65327148 196.33230469 84.92495117 197.143125 84.17456055 197.97851562 C66.99275771 216.18038839 40.64871037 229.44144943 15.58374023 230.71435547 C14.21961078 230.74708816 12.85532352 230.77367712 11.4909668 230.79492188 C10.3838031 230.81378197 10.3838031 230.81378197 9.25427246 230.83302307 C-21.10196127 231.25043125 -21.10196127 231.25043125 -35.6184082 225.52148438 C-36.29629395 225.26979492 -36.97417969 225.01810547 -37.67260742 224.75878906 C-54.24693208 218.53313912 -68.2106683 209.05934604 -80.6184082 196.52148438 C-81.92551758 195.24724609 -81.92551758 195.24724609 -83.2590332 193.94726562 C-94.64687932 182.2550274 -102.26232022 167.81935211 -107.6184082 152.52148438 C-108.09020508 151.28011719 -108.09020508 151.28011719 -108.5715332 150.01367188 C-112.59392892 139.01123652 -112.93640204 127.68259897 -112.8684082 116.08398438 C-112.87614258 114.76849609 -112.88387695 113.45300781 -112.8918457 112.09765625 C-112.83296048 82.34589607 -101.14348226 55.9579738 -80.6184082 34.52148438 C-80.00610352 33.84601563 -79.39379883 33.17054688 -78.76293945 32.47460938 C-58.72615015 11.11342675 -28.88875112 -0.30101494 0 0 Z " fill="#55B2FE" transform="translate(247.618408203125,134.478515625)"/>
<path d="M0 0 C1.09175537 0.40774658 1.09175537 0.40774658 2.20556641 0.82373047 C20.08223677 7.52696875 36.394025 16.70971532 51.296875 28.63916016 C52.8185414 29.85501 54.3610991 31.04460697 55.90625 32.23046875 C68.99775692 42.49189991 80.16120387 54.64150142 90 68 C90.62003906 68.825 91.24007813 69.65 91.87890625 70.5 C100.75734724 82.69498159 108.1758078 96.09653764 114 110 C114.2897168 110.68690918 114.57943359 111.37381836 114.87792969 112.08154297 C134.49526331 159.49901295 134.05640497 213.97559921 115.1640625 261.53417969 C113.54804391 265.40777625 111.80996794 269.21353737 110 273 C109.62504395 273.78568359 109.25008789 274.57136719 108.86376953 275.38085938 C94.78792562 304.38847106 73.14626914 330.10314499 47 349 C46.43941895 349.41024414 45.87883789 349.82048828 45.30126953 350.24316406 C18.17362939 369.88329562 -13.05945309 381.13215456 -46 386 C-46.98081543 386.14683228 -46.98081543 386.14683228 -47.98144531 386.29663086 C-55.25275388 387.24753344 -62.55316333 387.20035227 -69.875 387.1875 C-70.56285583 387.18656342 -71.25071167 387.18562683 -71.95941162 387.18466187 C-121.68748381 387.03814384 -169.33749547 369.00347412 -205.8984375 334.94921875 C-207.77927667 333.20472294 -209.70618031 331.56532432 -211.6875 329.9375 C-215.55015204 326.62921006 -218.76595058 322.91618414 -222 319 C-222.44005371 318.47229004 -222.88010742 317.94458008 -223.33349609 317.40087891 C-240.45761698 296.79349757 -253.89293742 273.62913453 -262 248 C-262.23799316 247.24912109 -262.47598633 246.49824219 -262.72119141 245.72460938 C-277.9169522 196.73591968 -273.39761629 141.34651317 -249.82421875 95.7421875 C-241.34633476 79.77141623 -230.88664683 65.5736587 -219 52 C-217.93635074 50.70927955 -216.87362367 49.41779758 -215.8125 48.125 C-212.5499359 44.34632407 -208.80802336 41.21301971 -205 38 C-204.05125 37.16339844 -203.1025 36.32679687 -202.125 35.46484375 C-147.18266128 -12.69777879 -67.92734451 -26.09344048 0 0 Z M-127 3 C-128.94001211 3.56965448 -130.88008425 4.13911927 -132.8215332 4.70385742 C-159.63286055 12.65066982 -183.94306876 28.74534601 -204 48 C-204.72533936 48.67869141 -204.72533936 48.67869141 -205.46533203 49.37109375 C-240.44310959 82.18383935 -261.53065024 129.42863319 -263.10961914 177.32519531 C-263.34323618 190.97468653 -263.51852993 204.541801 -261 218 C-260.8546582 218.82677246 -260.70931641 219.65354492 -260.55957031 220.50537109 C-253.7502112 258.43254997 -236.00822191 291.81756321 -210 320 C-209.53239258 320.50756836 -209.06478516 321.01513672 -208.58300781 321.53808594 C-201.39657752 329.24189782 -193.47578023 335.79038539 -185 342 C-184.43361816 342.41604492 -183.86723633 342.83208984 -183.28369141 343.26074219 C-159.84886665 360.2198894 -134.14747412 370.27536488 -106 376 C-105.16742676 376.17966309 -104.33485352 376.35932617 -103.47705078 376.54443359 C-76.20313173 382.31401873 -45.59384878 380.07733915 -19 372 C-18.20561523 371.76297363 -17.41123047 371.52594727 -16.59277344 371.28173828 C20.63668954 360.01101716 55.29810044 338.25173243 79 307 C79.77085937 306.06800781 80.54171875 305.13601563 81.3359375 304.17578125 C101.31347582 279.56622694 114.30071381 248.24032508 119 217 C119.20367187 215.865625 119.40734375 214.73125 119.6171875 213.5625 C127.64396474 164.30227801 112.45653301 113.57991406 84.125 73.375 C71.49047042 56.44422194 57.07165116 42.38508212 40 30 C39.08009277 29.32106689 39.08009277 29.32106689 38.14160156 28.62841797 C26.9481911 20.42758226 14.67504374 14.56281254 2 9 C0.80165527 8.47164551 0.80165527 8.47164551 -0.42089844 7.93261719 C-14.99384683 1.66366619 -30.46207886 -1.17401643 -46 -4 C-46.95302002 -4.18409424 -47.90604004 -4.36818848 -48.88793945 -4.55786133 C-52.61550065 -5.0874458 -56.29724446 -5.19900921 -60.0546875 -5.23828125 C-61.21039497 -5.25283607 -61.21039497 -5.25283607 -62.38945007 -5.26768494 C-64.88468654 -5.29261336 -67.37965138 -5.30521684 -69.875 -5.3125 C-70.72536835 -5.31511841 -71.57573669 -5.31773682 -72.45187378 -5.32043457 C-91.3364344 -5.32666291 -109.07112354 -3.19027704 -127 3 Z " fill="#3A6FAB" transform="translate(321,63)"/>
<path d="M0 0 C2.02698412 0.01828528 4.05350813 0.02050854 6.08056641 0.02026367 C23.62745895 0.0977524 38.70593319 2.29388456 54.52978516 10.20581055 C55.61775391 10.70854492 56.70572266 11.2112793 57.82666016 11.72924805 C85.30700234 24.73661001 105.03795389 46.76976396 117.52978516 74.20581055 C117.93970703 75.0875293 118.34962891 75.96924805 118.77197266 76.87768555 C128.59579322 99.57147258 130.2711583 129.47108926 123.52978516 153.20581055 C123.23177002 154.27049561 123.23177002 154.27049561 122.92773438 155.35668945 C113.66119995 187.69585342 92.47340518 213.46372792 63.40478516 230.14331055 C37.44859002 244.45822137 2.04948504 249.61334571 -26.72412109 241.39331055 C-27.96033203 241.00143555 -29.19654297 240.60956055 -30.47021484 240.20581055 C-31.65486328 239.85518555 -32.83951172 239.50456055 -34.06005859 239.14331055 C-65.23442124 229.04407945 -89.94498294 206.33230294 -105.31005859 177.7878418 C-120.04334707 148.86428036 -122.72440484 115.13498671 -112.96240234 84.2956543 C-102.18324716 52.28911363 -79.41137396 26.4544474 -49.32958984 11.08911133 C-33.55644395 3.59603861 -17.44210322 -0.16224232 0 0 Z M-77.47021484 40.20581055 C-78.14697266 40.80651367 -78.82373047 41.4072168 -79.52099609 42.02612305 C-97.72481555 58.8801603 -109.31684532 86.43829374 -110.67529297 110.8984375 C-110.77301844 114.77429934 -110.79992382 118.64127058 -110.78271484 122.51831055 C-110.77989502 123.2006778 -110.7770752 123.88304504 -110.77416992 124.58609009 C-110.58722903 154.72016764 -99.67975737 180.10807718 -79.47021484 202.20581055 C-78.74189453 203.01663086 -78.01357422 203.82745117 -77.26318359 204.6628418 C-62.74136397 220.04681027 -43.59182785 229.52965145 -23.47021484 235.20581055 C-22.83937988 235.40303711 -22.20854492 235.60026367 -21.55859375 235.8034668 C-14.20381913 237.81857143 -6.57829476 237.50648264 0.98535156 237.46655273 C3.39234799 237.45586577 5.79859314 237.46647375 8.20556641 237.47924805 C38.67850042 237.51251093 65.51632695 224.83964121 87.27978516 203.83081055 C109.29099254 181.05288477 119.7278941 153.86748186 119.84228516 122.51831055 C119.84800537 121.211604 119.85372559 119.90489746 119.85961914 118.55859375 C119.63654254 88.8856562 108.01114643 62.59664612 87.52978516 41.20581055 C86.91748047 40.5303418 86.30517578 39.85487305 85.67431641 39.15893555 C69.94003097 22.38464403 42.52611299 7.71396691 19.16259766 6.94702148 C17.66004763 6.93406418 16.15736954 6.93214456 14.65478516 6.94018555 C13.84541504 6.93827209 13.03604492 6.93635864 12.20214844 6.93438721 C10.50471686 6.93303679 8.80727454 6.93665251 7.10986328 6.94506836 C4.53605588 6.95578444 1.96294628 6.945134 -0.61083984 6.93237305 C-2.27229969 6.93369484 -3.93375911 6.93625766 -5.59521484 6.94018555 C-6.72999268 6.93411285 -6.72999268 6.93411285 -7.88769531 6.92791748 C-34.26514921 7.1553845 -58.96650886 22.78691145 -77.47021484 40.20581055 Z " fill="#F7FAFD" transform="translate(245.47021484375,127.794189453125)"/>
<path d="M0 0 C2.14380001 -0.00961992 4.28660316 -0.04067717 6.43017578 -0.07226562 C25.79415787 -0.2185926 42.91693385 4.67213935 60.17626953 13.24023438 C61.16111328 13.72621094 62.14595703 14.2121875 63.16064453 14.71289062 C90.47543767 28.88342637 112.85200289 55.00025481 122.82861328 84.14599609 C124.08371151 88.14200736 125.13756764 92.18388197 126.17626953 96.24023438 C126.52044922 97.32304687 126.86462891 98.40585938 127.21923828 99.52148438 C132.82786968 121.31502354 130.96556028 148.38923601 123.17626953 169.24023438 C122.9089502 170.00029785 122.64163086 170.76036133 122.36621094 171.54345703 C111.2948485 202.82736205 87.16574095 228.50108478 57.53710938 243.1640625 C52.94782721 245.25605379 48.24017026 246.99288706 43.48876953 248.67773438 C42.56322266 249.00797607 41.63767578 249.33821777 40.68408203 249.6784668 C28.38687629 253.82053513 16.18479464 254.61346773 3.32128906 254.61083984 C0.94278773 254.61520407 -1.4338372 254.65164197 -3.81201172 254.68945312 C-36.19327682 254.92709843 -64.65047512 240.07066863 -87.82373047 218.24023438 C-88.92974609 217.24830078 -88.92974609 217.24830078 -90.05810547 216.23632812 C-104.3523634 202.87981406 -113.44620411 184.83628929 -119.69873047 166.55273438 C-119.98522461 165.72233643 -120.27171875 164.89193848 -120.56689453 164.03637695 C-124.4062408 152.23073369 -125.17533546 140.44229609 -125.1394043 128.12988281 C-125.13624346 125.8745076 -125.15981 123.62044895 -125.18505859 121.36523438 C-125.24300292 108.39428584 -123.40317405 96.12597645 -118.76123047 83.92773438 C-118.4637793 83.13923096 -118.16632813 82.35072754 -117.85986328 81.53833008 C-104.72814149 48.03244196 -78.83328836 22.3928284 -46.00732422 8.00585938 C-31.0691502 2.21759522 -15.94207494 0.04301887 0 0 Z M-33.82373047 9.24023438 C-35.02231689 9.64290527 -35.02231689 9.64290527 -36.24511719 10.05371094 C-54.11847259 16.25053948 -68.89864645 25.5416144 -82.82373047 38.24023438 C-84.00322266 39.27857422 -84.00322266 39.27857422 -85.20654297 40.33789062 C-106.41573487 60.06471966 -119.76604058 91.03695969 -121.17529297 119.74414062 C-122.09979709 155.01490356 -110.08777678 187.00799335 -86.11669922 212.87695312 C-65.9431813 233.66907977 -37.34511003 248.97751377 -7.90576172 249.47851562 C-5.1491731 249.51961926 -2.393108 249.54315479 0.36376953 249.55273438 C1.43782043 249.55666199 1.43782043 249.55666199 2.53356934 249.56066895 C14.16886732 249.56522798 24.98776354 248.5527183 36.17626953 245.24023438 C37.24748047 244.95148438 38.31869141 244.66273438 39.42236328 244.36523438 C70.08529775 235.24372399 95.05127354 212.96490119 110.37548828 185.35351562 C114.04134227 178.47606783 117.02365051 171.42286325 119.55126953 164.05273438 C119.79006836 163.36526123 120.02886719 162.67778809 120.27490234 161.96948242 C123.92117215 150.70483052 124.54071173 139.19000757 124.48876953 127.42773438 C124.48694672 126.77070526 124.4851239 126.11367615 124.48324585 125.43673706 C124.43614823 115.33621614 123.91819018 105.98068637 121.17626953 96.24023438 C120.83595703 95.01175781 120.49564453 93.78328125 120.14501953 92.51757812 C114.81715926 75.1120346 105.92932164 58.98093858 93.44970703 45.68945312 C91.67144072 43.77369199 90.02568021 41.8367464 88.37158203 39.81835938 C85.18437209 36.08487109 81.62594108 33.19503637 77.67626953 30.30273438 C76.97848389 29.78767334 76.28069824 29.2726123 75.56176758 28.74194336 C65.14282663 21.17944708 54.3902399 15.44530696 42.17626953 11.24023438 C41.32935547 10.94375 40.48244141 10.64726562 39.60986328 10.34179688 C37.47355644 9.61162093 35.32921599 8.91943772 33.17626953 8.24023438 C32.06251953 7.86898437 30.94876953 7.49773437 29.80126953 7.11523438 C10.53753557 2.46536756 -14.94161555 2.83295785 -33.82373047 9.24023438 Z " fill="#3E72AD" transform="translate(247.82373046875,122.759765625)"/>
<path d="M0 0 C1.15242188 0.00902344 2.30484375 0.01804688 3.4921875 0.02734375 C4.36101562 0.03894531 5.22984375 0.05054688 6.125 0.0625 C4.70708437 2.99696886 3.14167393 5.49582409 1.125 8.0625 C4.59 5.0925 4.59 5.0925 8.125 2.0625 C8.785 2.3925 9.445 2.7225 10.125 3.0625 C9.98446128 5.68788284 9.83781053 8.31267427 9.6875 10.9375 C9.64818359 11.68386719 9.60886719 12.43023437 9.56835938 13.19921875 C9.23828125 18.8359375 9.23828125 18.8359375 8.125 21.0625 C6.85646362 21.7138337 5.55981267 22.31125279 4.25 22.875 C1.16049087 24.3240618 0.30426215 24.74699861 -1.4375 27.8125 C-1.911875 28.555 -2.38625 29.2975 -2.875 30.0625 C-6.5625 30.375 -6.5625 30.375 -9.875 30.0625 C-8.946875 30.2275 -8.01875 30.3925 -7.0625 30.5625 C-3.875 32.0625 -3.875 32.0625 -2.87890625 33.90625 C-2.38460058 35.32001544 -1.9284696 36.74783679 -1.515625 38.1875 C-0.95609992 40.27507327 -0.95609992 40.27507327 1.125 42.0625 C1.25 44.6875 1.25 44.6875 1.125 47.0625 C1.62 46.0725 1.62 46.0725 2.125 45.0625 C3.445 45.0625 4.765 45.0625 6.125 45.0625 C6.25879211 56.10778196 5.88870639 67.04330785 5.125 78.0625 C4.135 78.0625 3.145 78.0625 2.125 78.0625 C1.795 77.7325 1.465 77.4025 1.125 77.0625 C0.465 78.3825 -0.195 79.7025 -0.875 81.0625 C-5.56661011 78.43813059 -10.22932278 75.76733543 -14.875 73.0625 C-15.98053223 72.42103027 -15.98053223 72.42103027 -17.10839844 71.76660156 C-19.33279981 70.46542774 -21.5426602 69.14237251 -23.75 67.8125 C-24.45769531 67.40080566 -25.16539062 66.98911133 -25.89453125 66.56494141 C-27.8671875 65.359375 -27.8671875 65.359375 -30.875 63.0625 C-30.875 61.7425 -30.875 60.4225 -30.875 59.0625 C-27.77114789 58.94636796 -24.66785338 58.87527971 -21.5625 58.8125 C-20.68142578 58.77898437 -19.80035156 58.74546875 -18.89257812 58.7109375 C-16.49082437 58.67440893 -14.24713394 58.68029576 -11.875 59.0625 C-9.9375 61 -9.9375 61 -8.875 63.0625 C-6.29001488 64.33097685 -6.29001488 64.33097685 -3.875 65.0625 C-1.30701415 61.28605023 -2.0572028 58.39682513 -2.875 54.0625 C-2.875 53.7325 -2.875 53.4025 -2.875 53.0625 C-5.35 53.5575 -5.35 53.5575 -7.875 54.0625 C-12.33 45.6475 -12.33 45.6475 -16.875 37.0625 C-16.27429688 38.32707031 -15.67359375 39.59164062 -15.0546875 40.89453125 C-14.28573148 42.55435096 -13.51754182 44.21452586 -12.75 45.875 C-12.35167969 46.70837891 -11.95335937 47.54175781 -11.54296875 48.40039062 C-11.17558594 49.20283203 -10.80820313 50.00527344 -10.4296875 50.83203125 C-10.08405762 51.57042236 -9.73842773 52.30881348 -9.38232422 53.06958008 C-9.21490723 53.72724365 -9.04749023 54.38490723 -8.875 55.0625 C-9.535 56.0525 -10.195 57.0425 -10.875 58.0625 C-12.93798828 58.40307617 -12.93798828 58.40307617 -15.4453125 58.35546875 C-16.34121094 58.34580078 -17.23710937 58.33613281 -18.16015625 58.32617188 C-19.56587891 58.2884668 -19.56587891 58.2884668 -21 58.25 C-21.94488281 58.23646484 -22.88976562 58.22292969 -23.86328125 58.20898438 C-26.20108779 58.17356306 -28.53776237 58.12417271 -30.875 58.0625 C-33.9847561 50.39176829 -33.9847561 50.39176829 -32.875 47.0625 C-33.535 48.0525 -34.195 49.0425 -34.875 50.0625 C-38 50.25 -38 50.25 -40.875 50.0625 C-41.38088147 48.14737728 -41.87948391 46.23033078 -42.375 44.3125 C-42.6534375 43.24515625 -42.931875 42.1778125 -43.21875 41.078125 C-43.875 38.0625 -43.875 38.0625 -43.875 34.0625 C-43.215 34.0625 -42.555 34.0625 -41.875 34.0625 C-41.545 32.7425 -41.215 31.4225 -40.875 30.0625 C-32.46 29.5675 -32.46 29.5675 -23.875 29.0625 C-23.875 30.0525 -23.875 31.0425 -23.875 32.0625 C-23.545 31.4025 -23.215 30.7425 -22.875 30.0625 C-20.8125 28.9375 -20.8125 28.9375 -18.875 28.0625 C-18.875 27.0725 -18.875 26.0825 -18.875 25.0625 C-19.535 24.7325 -20.195 24.4025 -20.875 24.0625 C-20.50445152 21.16137657 -20.10481833 18.26944854 -19.6875 15.375 C-19.58630859 14.55837891 -19.48511719 13.74175781 -19.38085938 12.90039062 C-18.76461633 8.78655195 -18.15954804 6.44636673 -15.63671875 3.04296875 C-10.75805627 -0.45559119 -5.83096468 -0.05949964 0 0 Z " fill="#58B4FE" transform="translate(246.875,184.9375)"/>
<path d="M0 0 C7.06395023 3.27319674 12.50269126 9.20261916 15.41015625 16.3515625 C15.72138275 19.08250493 15.88850193 21.50726965 15.84765625 24.2265625 C15.83935791 24.93546631 15.83105957 25.64437012 15.82250977 26.37475586 C15.5399858 35.11087955 12.44320459 39.73433889 6.484375 45.80859375 C-1.0766059 51.43305224 -9.62583274 51.41343942 -18.58984375 50.3515625 C-26.3344631 47.733663 -30.90751669 42.48522194 -34.58984375 35.3515625 C-36.82418466 28.64853977 -36.80818592 20.00193886 -34.56640625 13.28515625 C-27.43314307 0.37828503 -13.76874785 -3.4473788 0 0 Z " fill="#233564" transform="translate(419.58984375,206.6484375)"/>
<path d="M0 0 C6.04416653 2.8006633 11.55649271 7.82306542 14.34765625 13.9140625 C16.54566212 20.96141882 16.92551014 29.98329076 13.84765625 36.7890625 C9.75273549 43.50819304 4.84281817 47.70918165 -2.58984375 50.3515625 C-11.20881344 51.48494383 -19.23075842 51.44410607 -26.53125 46.2734375 C-32.35162858 40.83961158 -35.64133743 34.8897359 -35.98461914 26.90576172 C-36.14998174 18.71322596 -35.44938825 12.61521352 -29.58984375 6.3515625 C-20.80578068 -0.81399648 -11.07817386 -2.77372076 0 0 Z " fill="#233564" transform="translate(100.58984375,206.6484375)"/>
<path d="M0 0 C2.33944736 0.28730055 4.6739143 0.61936779 7 1 C7.20778076 1.77359863 7.41556152 2.54719727 7.62963867 3.34423828 C9.48263047 6.93533836 11.1328482 7.24780236 14.92578125 8.4921875 C16.70952148 9.08386719 16.70952148 9.08386719 18.52929688 9.6875 C19.77775391 10.079375 21.02621094 10.47125 22.3125 10.875 C23.54935547 11.29007813 24.78621094 11.70515625 26.06054688 12.1328125 C33.43067741 14.7236853 33.43067741 14.7236853 41 14 C47.30077121 12.56298201 47.30077121 12.56298201 50.5 14.5625 C52 17 52 17 52 20.125 C51 23 51 23 47 25 C47 30.28 47 35.56 47 41 C46.67 41 46.34 41 46 41 C45.505 33.575 45.505 33.575 45 26 C43.35 25.67 41.7 25.34 40 25 C39.94714844 23.94683594 39.89429688 22.89367187 39.83984375 21.80859375 C39.37072172 19.78398523 39.37072172 19.78398523 38 18 C33.73225775 15.70912821 29.19566662 14.4279899 24.5625 13.0625 C23.30888672 12.66482422 22.05527344 12.26714844 20.76367188 11.85742188 C14.49480853 9.75939493 14.49480853 9.75939493 8 9 C10.31 11.31 12.62 13.62 15 16 C14.67 16.66 14.34 17.32 14 18 C13.54109375 17.50628906 13.0821875 17.01257813 12.609375 16.50390625 C11.99578125 15.86324219 11.3821875 15.22257813 10.75 14.5625 C10.14671875 13.92441406 9.5434375 13.28632813 8.921875 12.62890625 C6.88312567 10.65752613 6.88312567 10.65752613 3 10 C2.67 16.27 2.34 22.54 2 29 C3.65 29.33 5.3 29.66 7 30 C8.11955078 31.51980469 8.11955078 31.51980469 9.26171875 33.0703125 C10.7975534 35.08162473 11.47521735 35.89501768 13.98681641 36.39746094 C16.29882743 36.36593583 18.51904566 36.16720877 20.8125 35.875 C21.60076172 35.80023438 22.38902344 35.72546875 23.20117188 35.6484375 C25.13708149 35.46071293 27.06915803 35.23417047 29 35 C27.89718873 33.72799029 26.79269231 32.45744147 25.6875 31.1875 C24.76517578 30.12595703 24.76517578 30.12595703 23.82421875 29.04296875 C22.26665665 27.29863261 20.67341125 25.63221959 19 24 C19.33 23.34 19.66 22.68 20 22 C21.03060547 23.06541016 21.03060547 23.06541016 22.08203125 24.15234375 C22.98308594 25.07144531 23.88414062 25.99054688 24.8125 26.9375 C25.70582031 27.85402344 26.59914063 28.77054688 27.51953125 29.71484375 C29.85436593 32.17935108 29.85436593 32.17935108 33 33 C33.7844722 34.69968978 34.56020802 36.40596439 35.234375 38.15234375 C36.03524303 40.22700973 36.03524303 40.22700973 37.75 42.8125 C38.1625 43.534375 38.575 44.25625 39 45 C38.505 45.99 38.505 45.99 38 47 C36.02 44.03 34.04 41.06 32 38 C30.02 44.93 28.04 51.86 26 59 C25.02364756 55.09459026 24.98595177 54.09949116 25.99609375 50.453125 C26.33930664 49.18662109 26.33930664 49.18662109 26.68945312 47.89453125 C26.93630859 47.02183594 27.18316406 46.14914063 27.4375 45.25 C27.68048828 44.36183594 27.92347656 43.47367188 28.17382812 42.55859375 C28.77392324 40.37001155 29.38582632 38.18467317 30 36 C24.06 36.99 18.12 37.98 12 39 C11.67 41.31 11.34 43.62 11 46 C10.608125 46.721875 10.21625 47.44375 9.8125 48.1875 C9.544375 48.785625 9.27625 49.38375 9 50 C9.78309467 52.23470405 9.78309467 52.23470405 11 54 C9.515 53.01 9.515 53.01 8 52 C5.36 52 2.72 52 0 52 C-0.33 62.89 -0.66 73.78 -1 85 C1.94729537 86.15811388 1.94729537 86.15811388 5 86 C4.855625 86.515625 4.71125 87.03125 4.5625 87.5625 C3.90240964 90.16543422 3.90240964 90.16543422 3.6875 93.5625 C3 97 3 97 1.3125 99 C-1.87167993 100.37694267 -3.70924801 99.980224 -7 99 C-8.8125 97.875 -8.8125 97.875 -10 96 C-10.00257813 94.93265625 -10.00515625 93.8653125 -10.0078125 92.765625 C-11.30142109 87.85602388 -13.24660469 86.91451587 -17.45117188 84.36328125 C-18.31291016 83.87214844 -19.17464844 83.38101563 -20.0625 82.875 C-21.31450195 82.12669922 -21.31450195 82.12669922 -22.59179688 81.36328125 C-24.24973631 80.37342809 -25.91393471 79.39397679 -27.58447266 78.42553711 C-30.5689459 76.66423336 -33.46647403 74.78241859 -36.35522461 72.86889648 C-38.06029087 71.78163976 -38.06029087 71.78163976 -40.5 72.1875 C-41.7375 72.5896875 -41.7375 72.5896875 -43 73 C-46.88600804 73.45349792 -50.04736848 73.57157891 -53.5 71.5 C-55.58990624 68.01682293 -55.88022062 64.96929677 -55 61 C-53.948125 60.071875 -53.948125 60.071875 -52.875 59.125 C-51.946875 58.073125 -51.946875 58.073125 -51 57 C-51.20334093 54.3742497 -51.75441772 51.98315104 -52.421875 49.4375 C-53 47 -53 47 -53 43 C-53.928125 42.814375 -53.928125 42.814375 -54.875 42.625 C-57 42 -57 42 -59 40 C-59.3633156 37.16613833 -59.3568671 35.59477849 -57.875 33.125 C-55.07848948 31.44709369 -53.06309468 32.25124352 -50 33 C-50 33.99 -50 34.98 -50 36 C-49.03578125 35.855625 -48.0715625 35.71125 -47.078125 35.5625 C-45.81484375 35.376875 -44.5515625 35.19125 -43.25 35 C-41.99703125 34.814375 -40.7440625 34.62875 -39.453125 34.4375 C-36 34 -36 34 -32 34 C-32 33.34 -32 32.68 -32 32 C-31.34 32 -30.68 32 -30 32 C-29.66131223 29.79248152 -29.32928311 27.58394089 -29 25.375 C-28.814375 24.14523438 -28.62875 22.91546875 -28.4375 21.6484375 C-28.04597484 18.3833973 -27.91919076 15.28287549 -28 12 C-29.65 13.98 -31.3 15.96 -33 18 C-33.66 17.67 -34.32 17.34 -35 17 C-34.195625 16.13375 -33.39125 15.2675 -32.5625 14.375 C-30.03075864 11.37123907 -29.28342624 8.96796738 -29 5 C-27.02 4.67 -25.04 4.34 -23 4 C-22.505 5.485 -22.505 5.485 -22 7 C-20.71416016 6.7834375 -20.71416016 6.7834375 -19.40234375 6.5625 C-13.54390042 5.61141112 -7.93817322 4.7238059 -2 5 C-1.855625 4.360625 -1.71125 3.72125 -1.5625 3.0625 C-1 1 -1 1 0 0 Z M-24.07421875 10.46875 C-26.94809829 14.24618194 -27.1688222 18.12108974 -27.75 22.75 C-27.93755859 24.08224609 -27.93755859 24.08224609 -28.12890625 25.44140625 C-28.43428048 27.62600654 -28.72405579 29.81152082 -29 32 C-28.34 32 -27.68 32 -27 32 C-27.3125 33.9375 -27.3125 33.9375 -28 36 C-28.99 36.33 -29.98 36.66 -31 37 C-31.33 37.33 -31.66 37.66 -32 38 C-32 37.34 -32 36.68 -32 36 C-40.415 36.495 -40.415 36.495 -49 37 C-49.33 38.32 -49.66 39.64 -50 41 C-50.66 41 -51.32 41 -52 41 C-51.40984815 46.50808397 -50.43336231 51.64878069 -49 57 C-46.12586875 57.33397787 -46.12586875 57.33397787 -43 57 C-41.08743288 55.11922127 -41.08743288 55.11922127 -40 53 C-40.66 54.98 -41.32 56.96 -42 59 C-41.34 59.66 -40.68 60.32 -40 61 C-39.67 62.32 -39.34 63.64 -39 65 C-32.4 65 -25.8 65 -19 65 C-18.34 63.68 -17.68 62.36 -17 61 C-18.01114264 58.22083602 -19.03608609 55.85584925 -20.375 53.25 C-21.57125 50.8575 -22.7675 48.465 -24 46 C-20.04 53.425 -20.04 53.425 -16 61 C-13.525 60.505 -13.525 60.505 -11 60 C-11 60.99 -11 61.98 -11 63 C-10.79375 63.804375 -10.5875 64.60875 -10.375 65.4375 C-9.94271933 68.39141793 -10.43782583 69.51889985 -12 72 C-17.75 69.375 -17.75 69.375 -20 66 C-22.02887311 65.58519893 -22.02887311 65.58519893 -24.3515625 65.70703125 C-25.20234375 65.71669922 -26.053125 65.72636719 -26.9296875 65.73632812 C-28.26386719 65.7740332 -28.26386719 65.7740332 -29.625 65.8125 C-30.5221875 65.82603516 -31.419375 65.83957031 -32.34375 65.85351562 C-34.56309789 65.88893075 -36.78125188 65.93831539 -39 66 C-39 67.32 -39 68.64 -39 70 C-37.30449207 71.57212671 -37.30449207 71.57212671 -34.9765625 72.8046875 C-34.11933594 73.30613281 -33.26210937 73.80757813 -32.37890625 74.32421875 C-31.47011719 74.83597656 -30.56132812 75.34773438 -29.625 75.875 C-27.8671875 76.89322917 -26.109375 77.91145833 -24.3515625 78.9296875 C-23.03913574 79.67943848 -23.03913574 79.67943848 -21.70019531 80.44433594 C-17.43133856 82.90375323 -13.21539319 85.45033957 -9 88 C-8.34 86.68 -7.68 85.36 -7 84 C-5.68 84.33 -4.36 84.66 -3 85 C-2.23629361 73.98080785 -1.86620789 63.04528196 -2 52 C-3.32 52 -4.64 52 -6 52 C-6.33 52.33 -6.66 52.66 -7 53 C-7.1546875 51.9171875 -7.1546875 51.9171875 -7.3125 50.8125 C-8.06718283 47.72516116 -9.3227585 45.68358639 -11 43 C-11.495 41.63875 -11.495 41.63875 -12 40.25 C-12.495 39.13625 -12.495 39.13625 -13 38 C-13.99 37.67 -14.98 37.34 -16 37 C-15.2575 37.12375 -14.515 37.2475 -13.75 37.375 C-12.8425 37.25125 -11.935 37.1275 -11 37 C-10.38125 36.071875 -9.7625 35.14375 -9.125 34.1875 C-6.40542514 30.10813771 -4.48566359 29.69270324 0 28 C1.585869 24.828262 1.37866445 21.36486178 1.5625 17.875 C1.62727539 16.74384766 1.62727539 16.74384766 1.69335938 15.58984375 C1.7994832 13.72678112 1.90025001 11.86341476 2 10 C1.01 9.67 0.02 9.34 -1 9 C-2.90801574 10.20129367 -2.90801574 10.20129367 -4.6875 11.9375 C-5.31011719 12.50339844 -5.93273437 13.06929687 -6.57421875 13.65234375 C-7.04472656 14.09707031 -7.51523438 14.54179687 -8 15 C-7.566875 14.59007812 -7.13375 14.18015625 -6.6875 13.7578125 C-6.130625 13.21898437 -5.57375 12.68015625 -5 12.125 C-4.443125 11.59132812 -3.88625 11.05765625 -3.3125 10.5078125 C-1.78114478 9.08175012 -1.78114478 9.08175012 -2 7 C-13.59769742 6.30460675 -13.59769742 6.30460675 -24.07421875 10.46875 Z " fill="#F3F9FE" transform="translate(255,178)"/>
<path d="M0 0 C0 8.58 0 17.16 0 26 C-5.7234375 26.1546875 -5.7234375 26.1546875 -11.5625 26.3125 C-45.46349053 27.5406064 -73.91242578 42.21384803 -100 63 C-101.32909649 64.00562433 -102.66056855 65.0081829 -104 66 C-98.58217701 54.07534437 -87.05880424 43.17068983 -77 35 C-76.49307617 34.5860498 -75.98615234 34.17209961 -75.46386719 33.74560547 C-54.68083943 16.84663865 -27.62871307 0 0 0 Z " fill="#F9FCFE" transform="translate(356,247)"/>
<path d="M0 0 C34.74851674 2.89570973 64.04924641 21.41896342 88 46 C88.59167969 46.56976563 89.18335938 47.13953125 89.79296875 47.7265625 C95.01503642 52.7971195 99.55979313 58.23717831 104 64 C103.67 64.66 103.34 65.32 103 66 C102.52433594 65.53851563 102.04867187 65.07703125 101.55859375 64.6015625 C81.80862718 46.19735792 56.21466259 33.71414649 30 28 C29.31365479 27.82629883 28.62730957 27.65259766 27.92016602 27.47363281 C21.92392027 26.00005259 16.09563469 25.58139606 9.9375 25.375 C6.658125 25.25125 3.37875 25.1275 0 25 C0 16.75 0 8.5 0 0 Z " fill="#FBFDFE" transform="translate(144,247)"/>
<path d="M0 0 C-0.31193464 1.72926874 -0.62457362 3.45841044 -0.9375 5.1875 C-1.19853516 6.63189453 -1.19853516 6.63189453 -1.46484375 8.10546875 C-1.95222476 10.74159525 -2.47425133 13.37125667 -3 16 C-1.68 11.05 -0.36 6.1 1 1 C5 5 5 5 6.4375 7.4375 C7.95306406 10.14939741 7.95306406 10.14939741 10.5 12.5 C13 15 13 15 16 20 C16.33 15.38 16.66 10.76 17 6 C17.33 6 17.66 6 18 6 C18.02578125 7.05960938 18.0515625 8.11921875 18.078125 9.2109375 C18.1343978 10.59900001 18.19174533 11.98701925 18.25 13.375 C18.26417969 14.07367188 18.27835937 14.77234375 18.29296875 15.4921875 C18.36035782 17.77717646 18.36035782 17.77717646 19 21 C20.91388341 22.56483494 20.91388341 22.56483494 23 23 C23.04254356 24.99954746 23.04080783 27.00041636 23 29 C22 30 22 30 19.25 30.125 C16 30 16 30 13.5625 29.375 C10.03034719 28.85809959 7.37895324 29.95559627 4 31 C2.68 31 1.36 31 0 31 C-0.103125 31.928125 -0.20625 32.85625 -0.3125 33.8125 C-1.02848546 37.13206894 -1.35950696 38.028673 -4 40 C-5.91015625 39.9765625 -5.91015625 39.9765625 -8.0625 39.625 C-11.53719623 39.4665448 -12.75274025 39.81733965 -15.6015625 41.921875 C-17.28685461 43.52061132 -18.93673836 45.15778635 -20.54296875 46.8359375 C-23.31893887 49.2809096 -25.38425266 50.26608647 -29 51 C-29.99 50.34 -30.98 49.68 -32 49 C-32.26464844 46.60498047 -32.26464844 46.60498047 -32.109375 43.6171875 C-32.05910156 42.53179687 -32.00882813 41.44640625 -31.95703125 40.328125 C-31.88871094 39.18859375 -31.82039062 38.0490625 -31.75 36.875 C-31.69714844 35.75867188 -31.64429688 34.64234375 -31.58984375 33.4921875 C-31.29198922 27.61821918 -30.82577422 21.82313203 -30 16 C-22.125 15 -22.125 15 -21 15 C-21 14.01 -21 13.02 -21 12 C-20.44308761 8.74554321 -19.66301614 5.86745972 -18 3 C-15.41719086 1.54610082 -12.92125487 1.27715891 -10 1 C-8.9275 0.79375 -7.855 0.5875 -6.75 0.375 C-4 0 -4 0 0 0 Z " fill="#59B4FE" transform="translate(285,214)"/>
<path d="M0 0 C5.17468604 0.95935191 10.64356904 2.17399351 15.07421875 5.1015625 C17.09489374 8.09751596 16.63574262 10.37480416 16.3125 13.9375 C15.56342875 17.44895084 14.58485061 20.87189698 13.5625 24.3125 C13.30984375 25.20710938 13.0571875 26.10171875 12.796875 27.0234375 C8.52241291 41.72758709 8.52241291 41.72758709 4.3125 45.9375 C-2.5013614 47.20041397 -8.67849608 45.04991413 -14.6875 41.9375 C-16.6875 39.9375 -16.6875 39.9375 -17.078125 36.17578125 C-16.92279322 29.48714137 -14.59567506 23.3931793 -12.4375 17.125 C-12.04175781 15.91134766 -11.64601563 14.69769531 -11.23828125 13.44726562 C-6.66069583 -0.11289315 -6.66069583 -0.11289315 0 0 Z " fill="#1E3160" transform="translate(296.6875,73.0625)"/>
<path d="M0 0 C4.36057105 0.87589933 7.26045667 3.23153998 10.6875 5.9375 C11.28111328 6.39318359 11.87472656 6.84886719 12.48632812 7.31835938 C17.73422998 11.40537986 17.73422998 11.40537986 18.4375 15.625 C17.80571933 20.49873656 15.34090107 23.48656413 12 27 C10.33333333 28 8.66666667 29 7 30 C6.89429688 30.70125 6.78859375 31.4025 6.6796875 32.125 C5.71244032 36.2163444 3.42990877 38.98357439 0.9375 42.3125 C0.46505859 42.95767578 -0.00738281 43.60285156 -0.49414062 44.26757812 C-1.65509704 45.85070051 -2.82652336 47.42613569 -4 49 C-6.93446886 47.58208437 -9.43332409 46.01667393 -12 44 C-10.38325319 40.57053707 -8.42402323 37.43736948 -6.375 34.25 C-5.74335938 33.26515625 -5.11171875 32.2803125 -4.4609375 31.265625 C-3.97882813 30.51796875 -3.49671875 29.7703125 -3 29 C-4.32 28.34 -5.64 27.68 -7 27 C-9.97 31.29 -12.94 35.58 -16 40 C-19.04951395 38.47524303 -21.36399506 37.07114674 -24 35 C-22.55434954 30.74077176 -20.42702078 27.75025897 -17.625 24.25 C-11.42377943 16.39674823 -5.72015556 8.20675239 0 0 Z " fill="#1F3160" transform="translate(346,96)"/>
<path d="M0 0 C4.89143352 0 8.09203613 0.04573306 12.625 1.1015625 C14.16788696 1.46072754 14.16788696 1.46072754 15.74194336 1.82714844 C44.73199798 8.92639898 67.3063982 21.5671486 89 42 C85.02375879 42 83.20873215 40.49712525 79.8125 38.4375 C72.7363965 34.2481091 65.41575678 30.92623526 57.83251953 27.76904297 C55.99326406 26.99717317 54.166499 26.19576423 52.33984375 25.39453125 C36.31528899 18.70357681 17.17367584 17.96481325 0 17 C0 11.39 0 5.78 0 0 Z " fill="#FAFCFE" transform="translate(158,277)"/>
<path d="M0 0 C0 5.61 0 11.22 0 17 C-1.23492187 17.03738281 -2.46984375 17.07476562 -3.7421875 17.11328125 C-32.41168648 18.15145252 -63.87969236 24.7239473 -87 43 C-87.66 42.67 -88.32 42.34 -89 42 C-67.6274066 18.0964416 -32.24854056 0 0 0 Z " fill="#FAFDFE" transform="translate(342,277)"/>
<path d="M0 0 C0.29245605 0.82201904 0.58491211 1.64403809 0.88623047 2.4909668 C1.97757767 5.55699875 3.06979688 8.62271828 4.16259766 11.68823242 C4.63429871 13.0120021 5.1056577 14.33589371 5.57666016 15.65991211 C6.2559237 17.56917402 6.9364391 19.47798584 7.6171875 21.38671875 C8.02565918 22.53358154 8.43413086 23.68044434 8.85498047 24.86206055 C9.57330239 26.8306302 10.32420639 28.78793303 11.12158203 30.72583008 C12.29041314 33.7518617 12.46935502 35.78156558 12 39 C8.37158712 44.03295981 3.83752 45.65922686 -2 47 C-5.3125 47.4375 -5.3125 47.4375 -8 47 C-11.87716533 43.91031717 -13.15448467 40.62309878 -14.76171875 36.00390625 C-14.99784378 35.33334702 -15.23396881 34.66278778 -15.47724915 33.97190857 C-15.97238478 32.55923507 -16.4620517 31.14463421 -16.9465332 29.72827148 C-17.6852095 27.56919492 -18.43963101 25.41616024 -19.19726562 23.26367188 C-23.15765245 11.9122347 -23.15765245 11.9122347 -24 7 C-21.03 6.34 -18.06 5.68 -15 5 C-12.0141375 12.30325829 -9.31301514 19.66377816 -6.75 27.125 C-6.38648438 28.176875 -6.02296875 29.22875 -5.6484375 30.3125 C-4.76346459 32.8742637 -3.88069234 35.43676225 -3 38 C-1.68 38 -0.36 38 1 38 C0.49939816 30.54558356 -1.93100856 24.13898963 -4.5625 17.1875 C-5.40139474 14.95341766 -6.23623269 12.71780649 -7.06640625 10.48046875 C-7.43709229 9.49973389 -7.80777832 8.51899902 -8.18969727 7.50854492 C-9 5 -9 5 -9 2 C-5.62902617 0.50178941 -3.79557881 0 0 0 Z " fill="#1F3261" transform="translate(203,74)"/>
<path d="M0 0 C2.15142081 2.08102667 3.9103382 3.84796477 5.4375 6.4375 C6.95306406 9.14939741 6.95306406 9.14939741 9.5 11.5 C12 14 12 14 15 19 C15.33 14.38 15.66 9.76 16 5 C16.33 5 16.66 5 17 5 C17.02578125 6.05960938 17.0515625 7.11921875 17.078125 8.2109375 C17.1343978 9.59900001 17.19174533 10.98701925 17.25 12.375 C17.26417969 13.07367188 17.27835937 13.77234375 17.29296875 14.4921875 C17.36035782 16.77717646 17.36035782 16.77717646 18 20 C19.91388341 21.56483494 19.91388341 21.56483494 22 22 C22.04254356 23.99954746 22.04080783 26.00041636 22 28 C21 29 21 29 18.25 29.125 C15 29 15 29 12.5625 28.375 C9.03034719 27.85809959 6.37895324 28.95559627 3 30 C1.68 30 0.36 30 -1 30 C-1.103125 30.928125 -1.20625 31.85625 -1.3125 32.8125 C-2.03383484 36.1568706 -2.35543959 37.00320832 -5 39 C-7.15625 39.29296875 -7.15625 39.29296875 -9.5 39.1875 C-10.66015625 39.14689453 -10.66015625 39.14689453 -11.84375 39.10546875 C-12.5553125 39.07066406 -13.266875 39.03585938 -14 39 C-14.99 39 -15.98 39 -17 39 C-16.505 38.505 -16.505 38.505 -16 38 C-15.71049516 35.90328312 -15.49312778 33.79638794 -15.3125 31.6875 C-15.15201172 29.96080078 -15.15201172 29.96080078 -14.98828125 28.19921875 C-14.99976995 25.06280271 -15.32859662 23.59355697 -17 21 C-16.46375 21.474375 -15.9275 21.94875 -15.375 22.4375 C-12.57157164 24.28186076 -10.30379742 24.62456847 -7 25 C-6.86408447 24.44280273 -6.72816895 23.88560547 -6.58813477 23.31152344 C-5.96576251 20.86543772 -5.28519717 18.44196459 -4.58984375 16.015625 C-4.32236328 15.08105469 -4.05488281 14.14648438 -3.77929688 13.18359375 C-3.50150391 12.21550781 -3.22371094 11.24742187 -2.9375 10.25 C-2.51500977 8.77466797 -2.51500977 8.77466797 -2.08398438 7.26953125 C-1.38991856 4.84618281 -0.69523591 2.42301296 0 0 Z " fill="#5CB5FE" transform="translate(286,215)"/>
<path d="M0 0 C3.73639216 1.24546405 4.18756513 2.63404953 6 6 C4.625 7.5 4.625 7.5 3 9 C2.34 9 1.68 9 1 9 C3.26909306 12.97274869 5.87896485 16.58660673 8.6875 20.1875 C9.34081299 21.03308472 9.34081299 21.03308472 10.00732422 21.89575195 C13.46140592 26.3520836 17.00529311 30.73168793 20.6015625 35.07421875 C22 37 22 37 22 39 C20.25 40.2890625 20.25 40.2890625 18 41.625 C17.2575 42.07101563 16.515 42.51703125 15.75 42.9765625 C15.1725 43.31429687 14.595 43.65203125 14 44 C13.39414063 43.21238281 12.78828125 42.42476562 12.1640625 41.61328125 C11.76364746 41.09290283 11.36323242 40.57252441 10.95068359 40.03637695 C10.05975593 38.87784284 9.16946618 37.7188179 8.27978516 36.55932617 C5.90427922 33.46532363 3.51848629 30.38042948 1.109375 27.3125 C0.42174072 26.4321106 0.42174072 26.4321106 -0.27978516 25.53393555 C-1.16623514 24.39956915 -2.05645427 23.26813661 -2.95068359 22.13989258 C-6 18.22486481 -6 18.22486481 -6 16 C-8.31 17.32 -10.62 18.64 -13 20 C-15.0625 17.6875 -15.0625 17.6875 -17 15 C-15.47364283 10.4209285 -11.90864335 8.5663467 -8.125 5.75 C-7.39152344 5.1828125 -6.65804687 4.615625 -5.90234375 4.03125 C-5.19464844 3.50015625 -4.48695313 2.9690625 -3.7578125 2.421875 C-3.1095752 1.93299805 -2.46133789 1.44412109 -1.79345703 0.94042969 C-1.20161621 0.63008789 -0.60977539 0.31974609 0 0 Z " fill="#1E3160" transform="translate(149,98)"/>
<path d="M0 0 C7.59 0 15.18 0 23 0 C23 2.31 23 4.62 23 7 C20.69 7 18.38 7 16 7 C16.0714624 7.64106689 16.1429248 8.28213379 16.21655273 8.94262695 C16.97701886 16.37792675 17.11938614 23.71791282 17.0625 31.1875 C17.05798828 32.33025391 17.05347656 33.47300781 17.04882812 34.65039062 C17.03718268 37.4336511 17.02082997 40.21679572 17 43 C13.7 43 10.4 43 7 43 C7 31.45 7 19.9 7 8 C4.69 8 2.38 8 0 8 C0 5.36 0 2.72 0 0 Z " fill="#1F3261" transform="translate(235,68)"/>
<path d="M0 0 C2.33944736 0.28730055 4.6739143 0.61936779 7 1 C7.20778076 1.77359863 7.41556152 2.54719727 7.62963867 3.34423828 C9.48263047 6.93533836 11.1328482 7.24780236 14.92578125 8.4921875 C16.11494141 8.88664063 17.30410156 9.28109375 18.52929688 9.6875 C19.77775391 10.079375 21.02621094 10.47125 22.3125 10.875 C23.54935547 11.29007813 24.78621094 11.70515625 26.06054688 12.1328125 C33.43067741 14.7236853 33.43067741 14.7236853 41 14 C47.30077121 12.56298201 47.30077121 12.56298201 50.5 14.5625 C52 17 52 17 52 20.125 C51 23 51 23 47 25 C47 30.28 47 35.56 47 41 C46.67 41 46.34 41 46 41 C45.505 33.575 45.505 33.575 45 26 C43.35 25.67 41.7 25.34 40 25 C39.94714844 23.94683594 39.89429688 22.89367187 39.83984375 21.80859375 C39.37072172 19.78398523 39.37072172 19.78398523 38 18 C33.73225775 15.70912821 29.19566662 14.4279899 24.5625 13.0625 C23.30888672 12.66482422 22.05527344 12.26714844 20.76367188 11.85742188 C14.49480853 9.75939493 14.49480853 9.75939493 8 9 C10.31 11.31 12.62 13.62 15 16 C14.67 16.66 14.34 17.32 14 18 C13.54109375 17.50628906 13.0821875 17.01257813 12.609375 16.50390625 C11.99578125 15.86324219 11.3821875 15.22257813 10.75 14.5625 C10.14671875 13.92441406 9.5434375 13.28632813 8.921875 12.62890625 C6.88312567 10.65752613 6.88312567 10.65752613 3 10 C2.67 15.94 2.34 21.88 2 28 C1.34 28 0.68 28 0 28 C0.66 22.06 1.32 16.12 2 10 C-2.53460431 11.13365108 -3.90024653 12.64193374 -7 16 C-7.66 15.67 -8.32 15.34 -9 15 C-6.69 12.36 -4.38 9.72 -2 7 C-5.08637723 7.22817575 -8.16708958 7.48153175 -11.25 7.75 C-12.12269531 7.811875 -12.99539062 7.87375 -13.89453125 7.9375 C-17.58467457 8.2755284 -20.30059672 8.57532321 -23.49609375 10.515625 C-25.71286709 14.1776194 -26.21894917 17.80155008 -26.8125 22 C-26.94591797 22.80695313 -27.07933594 23.61390625 -27.21679688 24.4453125 C-27.81457656 28.31969209 -28.15111579 31.19677752 -27 35 C-25.68 35.33 -24.36 35.66 -23 36 C-24.65 36 -26.3 36 -28 36 C-28.33 36.66 -28.66 37.32 -29 38 C-29.66 37.67 -30.32 37.34 -31 37 C-31.99 39.475 -31.99 39.475 -33 42 C-33.33 41.34 -33.66 40.68 -34 40 C-33.0625 37.875 -33.0625 37.875 -32 36 C-32.84304687 36.09539062 -33.68609375 36.19078125 -34.5546875 36.2890625 C-35.65039062 36.39992187 -36.74609375 36.51078125 -37.875 36.625 C-38.96554688 36.74101562 -40.05609375 36.85703125 -41.1796875 36.9765625 C-42.57574219 36.98816406 -42.57574219 36.98816406 -44 37 C-44.66 36.34 -45.32 35.68 -46 35 C-41.38 34.67 -36.76 34.34 -32 34 C-32 33.34 -32 32.68 -32 32 C-31.34 32 -30.68 32 -30 32 C-29.66131223 29.79248152 -29.32928311 27.58394089 -29 25.375 C-28.814375 24.14523438 -28.62875 22.91546875 -28.4375 21.6484375 C-28.04597484 18.3833973 -27.91919076 15.28287549 -28 12 C-29.65 13.98 -31.3 15.96 -33 18 C-33.66 17.67 -34.32 17.34 -35 17 C-34.195625 16.13375 -33.39125 15.2675 -32.5625 14.375 C-30.03075864 11.37123907 -29.28342624 8.96796738 -29 5 C-27.02 4.67 -25.04 4.34 -23 4 C-22.67 4.99 -22.34 5.98 -22 7 C-21.14277344 6.855625 -20.28554687 6.71125 -19.40234375 6.5625 C-13.54390042 5.61141112 -7.93817322 4.7238059 -2 5 C-1.855625 4.360625 -1.71125 3.72125 -1.5625 3.0625 C-1 1 -1 1 0 0 Z " fill="#D4EBFE" transform="translate(255,178)"/>
<path d="M0 0 C2.88381579 2.58803981 3.8491179 4.19529549 4.5625 8 C3.76539101 12.25124797 2.47762929 13.40882523 -1 16 C-6.81401647 18.75023583 -12.53768843 20.94242044 -19 20 C-21.61593153 18.16884793 -21.96989455 17.09031634 -23 14 C-23.375 10.5625 -23.375 10.5625 -23 7 C-18.03960557 1.01331707 -7.349424 -2.54980016 0 0 Z " fill="#223463" transform="translate(108,292)"/>
<path d="M0 0 C2.15625 0.34375 2.15625 0.34375 4.59375 1.90625 C8.61653361 8.18179243 9.36933332 16.05496974 8.15625 23.34375 C6.31563382 25.76006551 5.09885858 27.07680031 2.15625 27.91015625 C-1.39336205 27.90322341 -3.2636294 27.78276019 -6.15625 25.59375 C-9.69928671 18.77012375 -12.09141499 10.88948247 -9.84375 3.34375 C-7.00403625 -0.33832532 -4.40094949 -0.17146556 0 0 Z " fill="#203362" transform="translate(283.84375,392.65625)"/>
<path d="M0 0 C4.86211571 1.0275358 8.86530718 3.43919852 13.1875 5.8125 C14.01958984 6.25142578 14.85167969 6.69035156 15.70898438 7.14257812 C16.89524414 7.79323242 16.89524414 7.79323242 18.10546875 8.45703125 C18.82887451 8.84866455 19.55228027 9.24029785 20.29760742 9.64379883 C22 11 22 11 22.8684082 12.97143555 C23 15 23 15 21 18 C18.8359375 18.29296875 18.8359375 18.29296875 16.375 18.1875 C15.14910156 18.14689453 15.14910156 18.14689453 13.8984375 18.10546875 C13.27195312 18.07066406 12.64546875 18.03585937 12 18 C13.98 19.32 15.96 20.64 18 22 C16.25 26.875 16.25 26.875 14 28 C11.75341797 26.92016602 11.75341797 26.92016602 8.9921875 25.25390625 C8.00605469 24.66416016 7.01992188 24.07441406 6.00390625 23.46679688 C4.97136719 22.83837891 3.93882812 22.20996094 2.875 21.5625 C1.31458984 20.62567383 1.31458984 20.62567383 -0.27734375 19.66992188 C-2.85595953 18.12038671 -5.42983616 16.56350055 -8 15 C-7.34 13.35 -6.68 11.7 -6 10 C-2.04 10 1.92 10 6 10 C3.36 8.68 0.72 7.36 -2 6 C-1 2 -1 2 0 0 Z " fill="#203362" transform="translate(382,315)"/>
<path d="M0 0 C1.98 0.66 3.96 1.32 6 2 C6 5.3 6 8.6 6 12 C6.99 10.02 7.98 8.04 9 6 C11.97 6.495 11.97 6.495 15 7 C15 10.99113348 14.80600558 11.81341447 12.84765625 15.00390625 C12.40099609 15.74447266 11.95433594 16.48503906 11.49414062 17.24804688 C11.02169922 18.01181641 10.54925781 18.77558594 10.0625 19.5625 C9.13427869 21.08314866 8.20839626 22.60522813 7.28515625 24.12890625 C6.87144775 24.79994385 6.45773926 25.47098145 6.03149414 26.16235352 C4.8530914 28.12639232 4.8530914 28.12639232 4 31 C1.83125748 30.49396008 0.00032373 30.00016187 -2 29 C-2 25.37 -2 21.74 -2 18 C-3.32 20.31 -4.64 22.62 -6 25 C-7.65 24.67 -9.3 24.34 -11 24 C-12 21 -12 21 -11.22729492 19.0546875 C-10.81584229 18.33539063 -10.40438965 17.61609375 -9.98046875 16.875 C-9.53509766 16.08609375 -9.08972656 15.2971875 -8.63085938 14.484375 C-8.15455078 13.66453125 -7.67824219 12.8446875 -7.1875 12 C-6.72279297 11.18015625 -6.25808594 10.3603125 -5.77929688 9.515625 C-3.93349755 6.2742213 -2.06999516 3.10499274 0 0 Z " fill="#203261" transform="translate(169,373)"/>
<path d="M0 0 C0.8125 2.0625 0.8125 2.0625 1 5 C-0.41026293 7.54689275 -2.13976035 9.76642506 -4 12 C-2.02 10.68 -0.04 9.36 2 8 C3.9375 8.75 3.9375 8.75 6 10 C6.62890625 12.078125 6.62890625 12.078125 7 14 C6.05898437 14.53109375 5.11796875 15.0621875 4.1484375 15.609375 C2.89055828 16.32279904 1.63274953 17.03634735 0.375 17.75 C-0.24246094 18.09804688 -0.85992187 18.44609375 -1.49609375 18.8046875 C-4.52105503 20.52413918 -7.45860939 22.28444592 -10.3203125 24.265625 C-13 26 -13 26 -15.25 26 C-17 25 -17 25 -19 21 C-17.02 18.36 -15.04 15.72 -13 13 C-14.11375 13.66 -15.2275 14.32 -16.375 15 C-19.75 17 -19.75 17 -22 17 C-24 14 -24 14 -23.88208008 11.98950195 C-22.70718477 9.3395651 -21.37805711 8.62070305 -18.88671875 7.16796875 C-18.05076172 6.68005859 -17.21480469 6.19214844 -16.35351562 5.68945312 C-15.47373047 5.19380859 -14.59394531 4.69816406 -13.6875 4.1875 C-12.81931641 3.67251953 -11.95113281 3.15753906 -11.05664062 2.62695312 C-3.93528115 -1.45566816 -3.93528115 -1.45566816 0 0 Z " fill="#1F3261" transform="translate(121,319)"/>
<path d="M0 0 C3.5 0.25 3.5 0.25 5.5 2.25 C5.84358086 6.80244646 5.49475484 10.13581814 3.5 14.25 C3.83 14.58 4.16 14.91 4.5 15.25 C4.83 14.59 5.16 13.93 5.5 13.25 C6.82 13.25 8.14 13.25 9.5 13.25 C9.41621094 13.92546875 9.33242188 14.6009375 9.24609375 15.296875 C9.14425781 16.18890625 9.04242188 17.0809375 8.9375 18 C8.83308594 18.88171875 8.72867187 19.7634375 8.62109375 20.671875 C8.50543324 23.13432451 8.76361305 24.91538064 9.5 27.25 C-3.23140172 28.0252545 -3.23140172 28.0252545 -7.875 25.1875 C-9.91723737 21.49576321 -10.18050965 19.40867007 -9.5 15.25 C-8.84 14.63125 -8.18 14.0125 -7.5 13.375 C-5.06992315 10.79304334 -5.27673078 10.05350406 -5.375 6.625 C-5.43429688 5.84898437 -5.49359375 5.07296875 -5.5546875 4.2734375 C-5.44908756 0.36623977 -3.55637993 0.25402714 0 0 Z " fill="#263866" transform="translate(250.5,395.75)"/>
<path d="M0 0 C1.15242188 0.00902344 2.30484375 0.01804688 3.4921875 0.02734375 C4.36101562 0.03894531 5.22984375 0.05054688 6.125 0.0625 C4.83779055 2.8613262 3.45973684 5.01335976 1.3671875 7.26953125 C0.82763428 7.853396 0.28808105 8.43726074 -0.26782227 9.03881836 C-0.83944092 9.6447583 -1.41105957 10.25069824 -2 10.875 C-2.58386475 11.49576416 -3.16772949 12.11652832 -3.76928711 12.75610352 C-13.83112786 23.36047405 -13.83112786 23.36047405 -16.875 25.0625 C-18.98022461 24.62133789 -18.98022461 24.62133789 -20.875 24.0625 C-20.50445152 21.16137657 -20.10481833 18.26944854 -19.6875 15.375 C-19.58630859 14.55837891 -19.48511719 13.74175781 -19.38085938 12.90039062 C-18.76461633 8.78655195 -18.15954804 6.44636673 -15.63671875 3.04296875 C-10.75805627 -0.45559119 -5.83096468 -0.05949964 0 0 Z " fill="#62B8FE" transform="translate(246.875,184.9375)"/>
<path d="M0 0 C1.65 0.33 3.3 0.66 5 1 C5 3.31 5 5.62 5 8 C5.99 8.33 6.98 8.66 8 9 C8.33 7.35 8.66 5.7 9 4 C10.65 4 12.3 4 14 4 C15.09658936 7.28976808 14.79953138 8.71303767 14 12 C15.32 12 16.64 12 18 12 C18.66 10.02 19.32 8.04 20 6 C22.475 6.495 22.475 6.495 25 7 C24.46148032 12.27749285 23.22656164 16.25645564 21 21 C12.45115106 18.85406445 4.25949525 16.0505873 -4 13 C-3.29120484 8.14165647 -2.03597876 4.42604077 0 0 Z " fill="#213362" transform="translate(392,290)"/>
<path d="M0 0 C1.41805831 0.28482368 2.83440379 0.57818144 4.25 0.875 C5.03890625 1.03742188 5.8278125 1.19984375 6.640625 1.3671875 C8.96831144 1.99150075 10.89031952 2.84838542 13 4 C12.34 5.65 11.68 7.3 11 9 C8.69 8.67 6.38 8.34 4 8 C4.66868314 11.11332248 4.66868314 11.11332248 7.0625 12.1875 C7.701875 12.455625 8.34125 12.72375 9 13 C8.67 14.65 8.34 16.3 8 18 C5.69 17.67 3.38 17.34 1 17 C1.19471111 18.94999129 1.19471111 18.94999129 2 21 C3.9837767 22.28436734 3.9837767 22.28436734 6 23 C6 24.65 6 26.3 6 28 C2.22134307 29.25955231 0.96588214 28.48087189 -2.6875 27.0625 C-3.68136719 26.68222656 -4.67523438 26.30195313 -5.69921875 25.91015625 C-6.45847656 25.60980469 -7.21773437 25.30945313 -8 25 C-7.43345374 19.56115586 -6.06151824 15.04623814 -4 10 C-3.64164063 9.09894531 -3.28328125 8.19789063 -2.9140625 7.26953125 C-1.94919691 4.84368124 -0.97727757 2.42087033 0 0 Z " fill="#1F3261" transform="translate(197,387)"/>
<path d="M0 0 C0.33 0 0.66 0 1 0 C1.02578125 1.05960938 1.0515625 2.11921875 1.078125 3.2109375 C1.1343978 4.59900001 1.19174533 5.98701925 1.25 7.375 C1.26417969 8.07367188 1.27835937 8.77234375 1.29296875 9.4921875 C1.36035782 11.77717646 1.36035782 11.77717646 2 15 C3.91388341 16.56483494 3.91388341 16.56483494 6 17 C6.04254356 18.99954746 6.04080783 21.00041636 6 23 C5 24 5 24 2.25 24.125 C-1 24 -1 24 -3.4375 23.375 C-6.96965281 22.85809959 -9.62104676 23.95559627 -13 25 C-14.32 25 -15.64 25 -17 25 C-17.103125 25.928125 -17.20625 26.85625 -17.3125 27.8125 C-18.03383484 31.1568706 -18.35543959 32.00320832 -21 34 C-23.15625 34.29296875 -23.15625 34.29296875 -25.5 34.1875 C-26.66015625 34.14689453 -26.66015625 34.14689453 -27.84375 34.10546875 C-28.5553125 34.07066406 -29.266875 34.03585938 -30 34 C-30.99 34 -31.98 34 -33 34 C-32.505 33.505 -32.505 33.505 -32 33 C-31.71049516 30.90328312 -31.49312778 28.79638794 -31.3125 26.6875 C-31.15201172 24.96080078 -31.15201172 24.96080078 -30.98828125 23.19921875 C-30.99976995 20.06280271 -31.32859662 18.59355697 -33 16 C-32.46375 16.474375 -31.9275 16.94875 -31.375 17.4375 C-28.57157164 19.28186076 -26.30379742 19.62456847 -23 20 C-22.67 19.34 -22.34 18.68 -22 18 C-20.68 19.65 -19.36 21.3 -18 23 C-16.39536551 22.68991116 -14.79130769 22.37683713 -13.1875 22.0625 C-12.29417969 21.88847656 -11.40085937 21.71445313 -10.48046875 21.53515625 C-7.88602829 21.02258847 -7.88602829 21.02258847 -5 20 C-3.29144978 16.99992729 -3.29144978 16.99992729 -2 14 C-1.67 14 -1.34 14 -1 14 C-0.67 9.38 -0.34 4.76 0 0 Z " fill="#F5FAFE" transform="translate(302,220)"/>
<path d="M0 0 C0.515625 0.2475 1.03125 0.495 1.5625 0.75 C1.8925 2.07 2.2225 3.39 2.5625 4.75 C1.5725 5.41 0.5825 6.07 -0.4375 6.75 C-0.4375 7.41 -0.4375 8.07 -0.4375 8.75 C1.5425 8.75 3.5225 8.75 5.5625 8.75 C6.2225 10.4 6.8825 12.05 7.5625 13.75 C6.5725 14.08 5.5825 14.41 4.5625 14.75 C5.0575 15.8225 5.5525 16.895 6.0625 18 C7.44903911 21.00416808 7.5625 22.20934895 7.5625 25.75 C5.9125 26.41 4.2625 27.07 2.5625 27.75 C1.90894531 26.71552734 1.90894531 26.71552734 1.2421875 25.66015625 C0.64664062 24.72042969 0.05109375 23.78070313 -0.5625 22.8125 C-1.50996094 21.31203125 -1.50996094 21.31203125 -2.4765625 19.78125 C-4.69822569 16.34696587 -7.05151558 13.02168792 -9.46875 9.72265625 C-10.4375 7.75 -10.4375 7.75 -10.30078125 5.640625 C-8.53372244 1.77068626 -4.1463485 -0.42526651 0 0 Z " fill="#223463" transform="translate(334.4375,371.25)"/>
<path d="M0 0 C0.33 1.65 0.66 3.3 1 5 C-0.65 5.33 -2.3 5.66 -4 6 C-3.67 6.99 -3.34 7.98 -3 9 C-1.02 9 0.96 9 3 9 C3.33 10.65 3.66 12.3 4 14 C3.01 14.66 2.02 15.32 1 16 C1.66 19.3 2.32 22.6 3 26 C1.02 26.33 -0.96 26.66 -3 27 C-4.69510786 23.34579206 -6.35795753 19.67836068 -8 16 C-8.62261719 14.60587891 -8.62261719 14.60587891 -9.2578125 13.18359375 C-9.62648438 12.31863281 -9.99515625 11.45367187 -10.375 10.5625 C-10.71273438 9.78003906 -11.05046875 8.99757813 -11.3984375 8.19140625 C-12.09772944 5.6439856 -12.06659676 4.41143616 -11 2 C-4.07110092 -1.7912844 -4.07110092 -1.7912844 0 0 Z " fill="#1F3161" transform="translate(314,384)"/>
<path d="M0 0 C1.5859375 1.57421875 1.5859375 1.57421875 3.375 3.6875 C3.99246094 4.41324219 4.60992187 5.13898438 5.24609375 5.88671875 C7.19461463 8.23449112 9.1215998 10.59564775 11 13 C11.598125 12.67 12.19625 12.34 12.8125 12 C15 11 15 11 18 11 C20 14 20 14 19.87890625 15.984375 C18.72864706 18.62230274 17.28266742 19.61210529 14.9375 21.25 C14.20402344 21.77078125 13.47054688 22.2915625 12.71484375 22.828125 C12.14894531 23.21484375 11.58304687 23.6015625 11 24 C6.75232531 19.99817143 2.83504444 15.76553505 -0.9375 11.3125 C-1.70964844 10.40113281 -2.48179687 9.48976563 -3.27734375 8.55078125 C-5 6 -5 6 -5 2 C-2 0 -2 0 0 0 Z " fill="#223463" transform="translate(350,359)"/>
<path d="M0 0 C1.32 0.66 2.64 1.32 4 2 C4 6 4 6 2.609375 7.81640625 C1.99578125 8.39261719 1.3821875 8.96882813 0.75 9.5625 C0.11449219 10.16320312 -0.52101562 10.76390625 -1.17578125 11.3828125 C-3.04432396 13.03929361 -4.93387034 14.59503183 -7 16 C-6.6596875 17.6396875 -6.6596875 17.6396875 -6.3125 19.3125 C-6 23 -6 23 -7.4375 24.9375 C-7.953125 25.288125 -8.46875 25.63875 -9 26 C-13.2742558 24.4169423 -15.26531794 21.49431596 -18 18 C-16.41092475 13.85074796 -13.36467701 11.31591806 -10.125 8.4375 C-9.59519531 7.95603516 -9.06539062 7.47457031 -8.51953125 6.97851562 C-5.77768026 4.50540685 -3.00076351 2.15272165 0 0 Z " fill="#1F3261" transform="translate(135,343)"/>
<path d="M0 0 C1.98 0.66 3.96 1.32 6 2 C3.6834524 11.77470084 0.88329377 21.38142315 -2 31 C-6.75 32.125 -6.75 32.125 -9 31 C-8.33222673 24.45211209 -6.44684217 18.39555189 -4.5 12.125 C-4.01853516 10.53945312 -4.01853516 10.53945312 -3.52734375 8.921875 C-1.13533453 1.13533453 -1.13533453 1.13533453 0 0 Z " fill="#F2F3F6" transform="translate(298,80)"/>
<path d="M0 0 C1.65 0.66 3.3 1.32 5 2 C5 6.82954588 3.34288246 8.46205862 0.3125 11.875 C-0.12255859 12.37902344 -0.55761719 12.88304687 -1.00585938 13.40234375 C-1.88371999 14.41936153 -2.7650698 15.43337809 -3.64990234 16.44433594 C-5.80684117 18.92969113 -7.90078271 21.46580976 -10 24 C-13.74278215 22.5511811 -13.74278215 22.5511811 -14.84765625 20.18359375 C-15 18 -15 18 -13.59375 15.95703125 C-12.9028125 15.24933594 -12.211875 14.54164063 -11.5 13.8125 C-7.35363793 9.41794021 -3.64300308 4.8155947 0 0 Z " fill="#213362" transform="translate(153,361)"/>
<path d="M0 0 C4.48037495 0.68937849 7.21129607 3.46662237 10.5 6.375 C11.63458358 7.36293673 12.76998049 8.34994029 13.90625 9.3359375 C14.43734375 9.79838867 14.9684375 10.26083984 15.515625 10.73730469 C17.28469083 12.2421745 19.1159517 13.64237696 21 15 C20.75 16.875 20.75 16.875 20 19 C17.953125 20.1328125 17.953125 20.1328125 16 21 C15.46632813 20.5153125 14.93265625 20.030625 14.3828125 19.53125 C8.75367852 14.46697721 2.95553478 9.6749083 -3 5 C-1.125 1.125 -1.125 1.125 0 0 Z " fill="#223463" transform="translate(365,341)"/>
<path d="M0 0 C2.375 1.625 2.375 1.625 4 4 C4 7.125 4 7.125 3 10 C1.02 10.99 1.02 10.99 -1 12 C-1 17.28 -1 22.56 -1 28 C-1.33 28 -1.66 28 -2 28 C-2.33 23.05 -2.66 18.1 -3 13 C-4.65 12.67 -6.3 12.34 -8 12 C-9.45882353 4.70588235 -9.45882353 4.70588235 -7.375 1.5 C-4.53788623 -0.29186133 -3.28967708 -0.65793542 0 0 Z " fill="#EEF7FE" transform="translate(303,191)"/>
<path d="M0 0 C2.83188775 3.4505463 4.74503018 7.25962359 6.6875 11.25 C7.16799805 12.22453125 7.16799805 12.22453125 7.65820312 13.21875 C8.44247141 14.81069757 9.22174255 16.40510529 10 18 C13.87797662 18.43386092 13.87797662 18.43386092 15.75 16.5 C16.1625 16.005 16.575 15.51 17 15 C16.814375 15.886875 16.62875 16.77375 16.4375 17.6875 C15.82183694 20.88011098 15.82183694 20.88011098 16.5625 23.5 C17.13863985 26.7922277 16.21096607 28.93696818 15 32 C14.34 31.34 13.68 30.68 13 30 C12.175 29.690625 11.35 29.38125 10.5 29.0625 C8 28 8 28 6 25 C3.97723319 24.49378487 3.97723319 24.49378487 1.6484375 24.48828125 C0.79765625 24.45283203 -0.053125 24.41738281 -0.9296875 24.38085938 C-1.81914062 24.35830078 -2.70859375 24.33574219 -3.625 24.3125 C-4.97078125 24.26125977 -4.97078125 24.26125977 -6.34375 24.20898438 C-8.56237538 24.12637598 -10.7805994 24.05727281 -13 24 C-13 23.67 -13 23.34 -13 23 C-3.1 22.505 -3.1 22.505 7 22 C8.27362515 19.20173883 8.27362515 19.20173883 7.37915039 17.23828125 C7.03875732 16.60277344 6.69836426 15.96726563 6.34765625 15.3125 C5.98349609 14.61382812 5.61933594 13.91515625 5.24414062 13.1953125 C4.85419922 12.47085938 4.46425781 11.74640625 4.0625 11 C3.29796311 9.56537652 2.53861401 8.12797305 1.78515625 6.6875 C1.44363525 6.05199219 1.10211426 5.41648438 0.75024414 4.76171875 C0 3 0 3 0 0 Z " fill="#E4F3FE" transform="translate(229,220)"/>
<path d="M0 0 C0.33 0 0.66 0 1 0 C1.02578125 1.05960938 1.0515625 2.11921875 1.078125 3.2109375 C1.1343978 4.59900001 1.19174533 5.98701925 1.25 7.375 C1.26417969 8.07367188 1.27835937 8.77234375 1.29296875 9.4921875 C1.36035782 11.77717646 1.36035782 11.77717646 2 15 C3.91388341 16.56483494 3.91388341 16.56483494 6 17 C6.04254356 18.99954746 6.04080783 21.00041636 6 23 C5 24 5 24 2.25 24.125 C-1 24 -1 24 -3.4375 23.375 C-6.96965281 22.85809959 -9.62104676 23.95559627 -13 25 C-14.32 25 -15.64 25 -17 25 C-17.33 26.32 -17.66 27.64 -18 29 C-18 27.35 -18 25.7 -18 24 C-17.09636719 23.78085938 -16.19273437 23.56171875 -15.26171875 23.3359375 C-14.08222656 23.01882812 -12.90273438 22.70171875 -11.6875 22.375 C-10.51574219 22.07335937 -9.34398437 21.77171875 -8.13671875 21.4609375 C-4.24472961 19.64823023 -3.49322947 17.93522568 -2 14 C-1.67 14 -1.34 14 -1 14 C-0.67 9.38 -0.34 4.76 0 0 Z " fill="#E6F3FE" transform="translate(302,220)"/>
<path d="M0 0 C6.45362563 5.43844857 6.45362563 5.43844857 9.25 8.3125 C10.99500355 10.23771233 10.99500355 10.23771233 14 11 C14.7844722 12.69968978 15.56020802 14.40596439 16.234375 16.15234375 C17.03524303 18.22700973 17.03524303 18.22700973 18.75 20.8125 C19.1625 21.534375 19.575 22.25625 20 23 C19.67 23.66 19.34 24.32 19 25 C17.02 22.03 15.04 19.06 13 16 C11.02 22.93 9.04 29.86 7 37 C6.02364756 33.09459026 5.98595177 32.09949116 6.99609375 28.453125 C7.22490234 27.60878906 7.45371094 26.76445312 7.68945312 25.89453125 C8.05973633 24.58548828 8.05973633 24.58548828 8.4375 23.25 C8.68048828 22.36183594 8.92347656 21.47367188 9.17382812 20.55859375 C9.77392324 18.37001155 10.38582632 16.18467317 11 14 C2.09 15.485 2.09 15.485 -7 17 C-7 16.01 -7 15.02 -7 14 C1.415 13.505 1.415 13.505 10 13 C8.906875 11.741875 7.81375 10.48375 6.6875 9.1875 C6.07261719 8.47980469 5.45773437 7.77210938 4.82421875 7.04296875 C3.06723259 5.01755954 3.06723259 5.01755954 1.26953125 3.36328125 C0 2 0 2 0 0 Z " fill="#CFE9FE" transform="translate(274,200)"/>
<path d="M0 0 C0 0.99 0 1.98 0 3 C1.98 3 3.96 3 6 3 C6 3.33 6 3.66 6 4 C4.35 4.33 2.7 4.66 1 5 C0.67 5.99 0.34 6.98 0 8 C-0.66 8 -1.32 8 -2 8 C-1.01 12.29 -0.02 16.58 1 21 C0.34 21.33 -0.32 21.66 -1 22 C-2.13764351 17.73383684 -3 14.43513689 -3 10 C-3.61875 9.87625 -4.2375 9.7525 -4.875 9.625 C-7 9 -7 9 -9 7 C-9.3633156 4.16613833 -9.3568671 2.59477849 -7.875 0.125 C-5.07848948 -1.55290631 -3.06309468 -0.74875648 0 0 Z " fill="#E9F5FE" transform="translate(205,211)"/>
<path d="M0 0 C1.32 0.33 2.64 0.66 4 1 C4.65234375 2.765625 4.65234375 2.765625 5 5 C4.00390625 6.921875 4.00390625 6.921875 2.5625 8.75 C1.85287109 9.67039062 1.85287109 9.67039062 1.12890625 10.609375 C0.75636719 11.06828125 0.38382812 11.5271875 0 12 C-1.65 11.67 -3.3 11.34 -5 11 C-5 6.86356447 -4.84767359 6.30197567 -2.5 3.25 C-2.0359375 2.63640625 -1.571875 2.0228125 -1.09375 1.390625 C-0.55234375 0.70226562 -0.55234375 0.70226562 0 0 Z " fill="#F3F4F6" transform="translate(350,107)"/>
<path d="M0 0 C0.66 0.33 1.32 0.66 2 1 C2 3.97 2 6.94 2 10 C-0.31 10.66 -2.62 11.32 -5 12 C-5 8.7 -5 5.4 -5 2 C-2.625 0.9375 -2.625 0.9375 0 0 Z " fill="#F5F6F8" transform="translate(429,224)"/>
<path d="M0 0 C1.98 0.99 3.96 1.98 6 3 C6 5.97 6 8.94 6 12 C1.25 11.125 1.25 11.125 -1 10 C-1.02689216 8.52093108 -1.04634621 7.04172517 -1.0625 5.5625 C-1.07410156 4.73878906 -1.08570313 3.91507813 -1.09765625 3.06640625 C-1 1 -1 1 0 0 Z " fill="#F5F6F8" transform="translate(389,224)"/>
<path d="M0 0 C0.66 0.33 1.32 0.66 2 1 C2 3.97 2 6.94 2 10 C-0.31 10.66 -2.62 11.32 -5 12 C-5 8.7 -5 5.4 -5 2 C-2.625 0.9375 -2.625 0.9375 0 0 Z " fill="#F5F6F8" transform="translate(110,224)"/>
<path d="M0 0 C1.98 0.99 3.96 1.98 6 3 C6 5.97 6 8.94 6 12 C1.25 11.125 1.25 11.125 -1 10 C-1.02689216 8.52093108 -1.04634621 7.04172517 -1.0625 5.5625 C-1.07410156 4.73878906 -1.08570312 3.91507813 -1.09765625 3.06640625 C-1 1 -1 1 0 0 Z " fill="#F6F6F8" transform="translate(70,224)"/>
<path d="M0 0 C0 0.66 0 1.32 0 2 C1.32 2.33 2.64 2.66 4 3 C3.01 3.33 2.02 3.66 1 4 C0.01 5.485 0.01 5.485 -1 7 C-2.1446875 6.9071875 -2.1446875 6.9071875 -3.3125 6.8125 C-5.99471523 6.71845545 -5.99471523 6.71845545 -7.4375 8.32421875 C-8.68039978 9.83900285 -9.84555768 11.41676481 -11 13 C-11.66 12.67 -12.32 12.34 -13 12 C-12.195625 11.13375 -11.39125 10.2675 -10.5625 9.375 C-8.00260623 6.3477099 -7.45993719 3.9554598 -7 0 C-4.3333581 -1.33332095 -2.83319697 -0.67102033 0 0 Z " fill="#E9F5FE" transform="translate(233,183)"/>
<path d="M0 0 C0 3.3 0 6.6 0 10 C-2.31 10 -4.62 10 -7 10 C-7 7.03 -7 4.06 -7 1 C-3 0 -3 0 0 0 Z " fill="#F9FAFB" transform="translate(419,228)"/>
<path d="M0 0 C0 3.3 0 6.6 0 10 C-2.31 10 -4.62 10 -7 10 C-7 7.03 -7 4.06 -7 1 C-3 0 -3 0 0 0 Z " fill="#F9FAFB" transform="translate(100,228)"/>
<path d="M0 0 C2.31 0.33 4.62 0.66 7 1 C7 3.97 7 6.94 7 10 C4.69 10 2.38 10 0 10 C0 6.7 0 3.4 0 0 Z " fill="#FBFBFC" transform="translate(400,228)"/>
<path d="M0 0 C2.31 0.33 4.62 0.66 7 1 C7 3.97 7 6.94 7 10 C4.69 10 2.38 10 0 10 C0 6.7 0 3.4 0 0 Z " fill="#FBFBFC" transform="translate(81,228)"/>
<path d="M0 0 C5.97646444 5.82322176 5.97646444 5.82322176 6.0625 10.125 C6.041875 11.07375 6.02125 12.0225 6 13 C4.02 13 2.04 13 0 13 C0 8.71 0 4.42 0 0 Z " fill="#F5F6F8" transform="translate(412,211)"/>
<path d="M0 0 C5.97646444 5.82322176 5.97646444 5.82322176 6.0625 10.125 C6.041875 11.07375 6.02125 12.0225 6 13 C4.02 13 2.04 13 0 13 C0 8.71 0 4.42 0 0 Z " fill="#F4F5F7" transform="translate(93,211)"/>
<path d="M0 0 C0.33 0 0.66 0 1 0 C1 4.29 1 8.58 1 13 C-0.98 13 -2.96 13 -5 13 C-5.50477602 7.69985182 -4.20817314 5.18034682 -1 1 C-0.67 0.67 -0.34 0.34 0 0 Z " fill="#F5F6F8" transform="translate(406,211)"/>
<path d="M0 0 C0.33 0 0.66 0 1 0 C1 4.29 1 8.58 1 13 C-0.98 13 -2.96 13 -5 13 C-5.50477602 7.69985182 -4.20817314 5.18034682 -1 1 C-0.67 0.67 -0.34 0.34 0 0 Z " fill="#F6F6F8" transform="translate(87,211)"/>
<path d="M0 0 C0.99 0.33 1.98 0.66 3 1 C4.4053516 5.43795241 5.29241839 9.32130569 5 14 C3.68 13.67 2.36 13.34 1 13 C0.63901937 11.02206479 0.28638652 9.04260427 -0.0625 7.0625 C-0.25972656 5.96035156 -0.45695312 4.85820312 -0.66015625 3.72265625 C-0.77230469 2.82417969 -0.88445312 1.92570312 -1 1 C-0.67 0.67 -0.34 0.34 0 0 Z " fill="#E6E8ED" transform="translate(281,399)"/>
<path d="M0 0 C-2.36975637 3.72390287 -4.64962537 7.09634199 -8 10 C-8.66 10 -9.32 10 -10 10 C-9.60246179 8.53633658 -9.18118616 7.0791065 -8.75 5.625 C-8.51796875 4.81289062 -8.2859375 4.00078125 -8.046875 3.1640625 C-7 1 -7 1 -5.078125 -0.3515625 C-3 -1 -3 -1 0 0 Z " fill="#E5E7EC" transform="translate(430,240)"/>
<path d="M0 0 C-2.36975637 3.72390287 -4.64962537 7.09634199 -8 10 C-8.66 10 -9.32 10 -10 10 C-9.60246179 8.53633658 -9.18118616 7.0791065 -8.75 5.625 C-8.51796875 4.81289062 -8.2859375 4.00078125 -8.046875 3.1640625 C-7 1 -7 1 -5.078125 -0.3515625 C-3 -1 -3 -1 0 0 Z " fill="#E4E7EC" transform="translate(111,240)"/>
<path d="M0 0 C-1 3 -1 3 -2.92578125 3.984375 C-3.71339844 4.23703125 -4.50101563 4.4896875 -5.3125 4.75 C-6.09238281 5.01296875 -6.87226562 5.2759375 -7.67578125 5.546875 C-10.16921091 6.03298902 -11.6181897 5.80665429 -14 5 C-11.69658115 1.54487173 -10.85120076 1.3471444 -7 0.25 C-6.113125 -0.01296875 -5.22625 -0.2759375 -4.3125 -0.546875 C-2 -1 -2 -1 0 0 Z " fill="#F0F1F4" transform="translate(105,299)"/>
<path d="M0 0 C3.37462715 0.54723683 5.08235 1.0549 8 3 C8.98515378 5.62356462 9.42238929 8.24524123 10 11 C5.78771439 9.43989422 3.65453155 6.5154607 1 3 C0.67 2.01 0.34 1.02 0 0 Z " fill="#E7E9EE" transform="translate(389,239)"/>
<path d="M0 0 C3.37462715 0.54723683 5.08235 1.0549 8 3 C8.98515378 5.62356462 9.42238929 8.24524123 10 11 C5.78771439 9.43989422 3.65453155 6.5154607 1 3 C0.67 2.01 0.34 1.02 0 0 Z " fill="#E9EBF0" transform="translate(70,239)"/>
<path d="M0 0 C1.98 0 3.96 0 6 0 C4.79157144 4.43090471 3.48331435 6.98112756 0 10 C0 6.7 0 3.4 0 0 Z " fill="#EFF0F3" transform="translate(412,242)"/>
<path d="M0 0 C1.98 0 3.96 0 6 0 C6 3.3 6 6.6 6 10 C2.51668565 6.98112756 1.20842856 4.43090471 0 0 Z " fill="#F0F1F4" transform="translate(401,242)"/>
<path d="M0 0 C1.98 0 3.96 0 6 0 C4.79157144 4.43090471 3.48331435 6.98112756 0 10 C0 6.7 0 3.4 0 0 Z " fill="#EEF0F3" transform="translate(93,242)"/>
<path d="M0 0 C1.98 0 3.96 0 6 0 C6 3.3 6 6.6 6 10 C2.51668565 6.98112756 1.20842856 4.43090471 0 0 Z " fill="#F0F1F4" transform="translate(82,242)"/>
<path d="M0 0 C0.66 0 1.32 0 2 0 C1.01 2.97 0.02 5.94 -1 9 C-3.475 8.01 -3.475 8.01 -6 7 C-5.04882866 5.8274869 -4.08882991 4.66212985 -3.125 3.5 C-2.59132813 2.8503125 -2.05765625 2.200625 -1.5078125 1.53125 C-0.76144531 0.77328125 -0.76144531 0.77328125 0 0 Z " fill="#E9EBEF" transform="translate(397,213)"/>
<path d="M0 0 C0.66 0 1.32 0 2 0 C1.01 2.97 0.02 5.94 -1 9 C-3.475 8.01 -3.475 8.01 -6 7 C-5.04882866 5.8274869 -4.08882991 4.66212985 -3.125 3.5 C-2.59132813 2.8503125 -2.05765625 2.200625 -1.5078125 1.53125 C-0.76144531 0.77328125 -0.76144531 0.77328125 0 0 Z " fill="#E8EAEF" transform="translate(78,213)"/>
<path d="M0 0 C4.0084034 2.0042017 5.41409657 3.49055963 8 7 C6.35 7.66 4.7 8.32 3 9 C2.01 6.03 1.02 3.06 0 0 Z " fill="#EDEEF2" transform="translate(420,213)"/>
<path d="M0 0 C4.0084034 2.0042017 5.41409657 3.49055963 8 7 C6.35 7.66 4.7 8.32 3 9 C2.01 6.03 1.02 3.06 0 0 Z " fill="#EDEEF2" transform="translate(101,213)"/>
<path d="M0 0 C0.66 0.33 1.32 0.66 2 1 C0.49776416 5.20626034 -2.28550034 6.73900021 -6 9 C-6.66 8.67 -7.32 8.34 -8 8 C-5.36 5.36 -2.72 2.72 0 0 Z " fill="#E7F4FE" transform="translate(261,311)"/>
</svg>
